<svg width="377" height="172" viewBox="0 0 377 172" fill="none" xmlns="http://www.w3.org/2000/svg">
<rect x="21.3062" y="6.36133" width="115" height="32" rx="16" transform="rotate(7.23655 21.3062 6.36133)" fill="#01594D"/>
<path fill-rule="evenodd" clip-rule="evenodd" d="M37.3169 18.9129C38.3629 18.1194 39.6896 17.7675 41.0051 17.9345C42.3206 18.1016 43.5172 18.7739 44.3317 19.8036C45.1461 20.8333 45.5117 22.1361 45.348 23.4253C44.8851 27.071 39.2416 31.823 39.2416 31.823C39.2416 31.823 34.9648 25.8114 35.4277 22.1657C35.5914 20.8764 36.271 19.7064 37.3169 18.9129ZM40.0729 25.276C41.1687 25.4151 42.1698 24.6396 42.3089 23.5438C42.448 22.4481 41.6725 21.447 40.5768 21.3078C39.481 21.1687 38.4799 21.9442 38.3408 23.04C38.2016 24.1357 38.9771 25.1368 40.0729 25.276Z" fill="white"/>
<path d="M59.8084 23.5283L56.4057 23.0963L55.2947 31.846L54.0447 31.6873L55.1557 22.9375L51.753 22.5055L51.8941 21.3944L59.9494 22.4172L59.8084 23.5283ZM59.2002 32.3419L60.1189 25.106L61.3411 25.2612L60.6304 30.8583L65.3983 25.7623L66.5094 25.9033L65.5889 33.1531L64.3667 32.9979L65.0633 27.512L60.3668 32.4901L59.2002 32.3419ZM71.149 34.0003C70.6027 33.9309 70.115 33.7702 69.686 33.5182C69.2675 33.258 68.9139 32.9309 68.6252 32.5367C68.3458 32.1437 68.1424 31.7086 68.0148 31.2314C67.8965 30.7554 67.8696 30.2627 67.9343 29.7535C68.0213 29.0683 68.2534 28.4628 68.6307 27.9368C69.008 27.4108 69.4955 27.0164 70.0934 26.7536C70.6924 26.4815 71.3577 26.392 72.0891 26.4848C72.8021 26.5754 73.4019 26.8162 73.8885 27.2072C74.3855 27.5902 74.7296 28.0667 74.9206 28.6366L73.6786 28.86C73.5369 28.4939 73.3112 28.1971 73.0014 27.9696C72.6927 27.7328 72.3347 27.5886 71.9273 27.5368C71.4829 27.4804 71.0608 27.5444 70.6611 27.7289C70.2706 27.9145 69.943 28.1975 69.6783 28.5778C69.4148 28.9489 69.2501 29.3937 69.1843 29.9122C69.1196 30.4215 69.1673 30.8979 69.3274 31.3416C69.4978 31.7772 69.7483 32.1383 70.0789 32.4249C70.4187 32.7127 70.8108 32.8848 71.2552 32.9412C71.5422 32.9777 71.8218 32.9614 72.094 32.8925C72.3755 32.8247 72.624 32.7199 72.8396 32.5779C73.0656 32.4278 73.2286 32.2557 73.3286 32.0614L74.4771 32.5741C74.2843 32.9072 74.0175 33.1932 73.6767 33.4321C73.3463 33.663 72.9628 33.8307 72.5261 33.9352C72.0987 34.0409 71.6397 34.0626 71.149 34.0003ZM79.1463 35.0158C78.6001 34.9464 78.1171 34.7863 77.6973 34.5354C77.2787 34.2753 76.9292 33.9533 76.6486 33.5696C76.3692 33.1766 76.1704 32.7421 76.0521 32.2661C75.9337 31.7901 75.9063 31.302 75.9698 30.8021C76.0345 30.2928 76.1836 29.8225 76.4171 29.3912C76.6506 28.9598 76.9512 28.5934 77.3188 28.292C77.6875 27.9813 78.1064 27.7569 78.5755 27.6189C79.0551 27.4728 79.568 27.4345 80.1143 27.5039C80.6513 27.572 81.1291 27.7362 81.5477 27.9963C81.9674 28.2472 82.317 28.5691 82.5964 28.9621C82.8862 29.347 83.0903 29.7775 83.2086 30.2535C83.3269 30.7296 83.3537 31.2222 83.2891 31.7314C83.2256 32.2314 83.0771 32.6971 82.8435 33.1284C82.61 33.5598 82.3089 33.9308 81.9401 34.2415C81.5726 34.5429 81.149 34.7667 80.6694 34.9128C80.2003 35.0508 79.6926 35.0851 79.1463 35.0158ZM77.218 30.9747C77.1545 31.4747 77.2034 31.9419 77.3646 32.3763C77.5351 32.8119 77.7856 33.173 78.1162 33.4596C78.4479 33.7369 78.8359 33.9038 79.2804 33.9602C79.7248 34.0167 80.1429 33.9474 80.5345 33.7526C80.9354 33.5589 81.2683 33.2718 81.5329 32.8915C81.8081 32.503 81.9774 32.0588 82.0409 31.5588C82.1043 31.0588 82.0508 30.591 81.8804 30.1554C81.7191 29.721 81.4686 29.3599 81.1288 29.0721C80.7983 28.7856 80.4108 28.614 79.9664 28.5576C79.522 28.5012 79.1033 28.575 78.7105 28.7792C78.3188 28.9741 77.986 29.2611 77.712 29.6403C77.4474 30.0206 77.2827 30.4654 77.218 30.9747ZM84.7143 35.5816L85.6348 28.3318L89.3847 28.808C89.8199 28.8633 90.1698 28.9971 90.4345 29.2094C90.7004 29.4125 90.8857 29.6572 90.9905 29.9433C91.1046 30.2306 91.1422 30.5271 91.1034 30.8326C91.054 31.2215 90.9167 31.5616 90.6916 31.8529C90.4676 32.1349 90.1697 32.3323 89.7979 32.445C90.1992 32.6183 90.5096 32.8788 90.7288 33.2265C90.9493 33.565 91.0307 33.9611 90.9731 34.4147C90.9214 34.8221 90.7801 35.157 90.5492 35.4193C90.3183 35.6817 90.017 35.8692 89.6451 35.9819C89.2745 36.0854 88.8577 36.1078 88.3947 36.049L84.7143 35.5816ZM85.9902 34.8687L88.4763 35.1844C88.6985 35.2126 88.9046 35.1823 89.0946 35.0935C89.2939 35.0059 89.4563 34.876 89.5816 34.7038C89.707 34.5315 89.7826 34.3435 89.8085 34.1398C89.8367 33.9176 89.811 33.7121 89.7315 33.5232C89.6624 33.3263 89.5464 33.1657 89.3834 33.0416C89.2309 32.9093 89.0435 32.829 88.8213 32.8008L86.2936 32.4799L85.9902 34.8687ZM86.3959 31.6743L88.6597 31.9618C88.8819 31.99 89.0834 31.9591 89.2642 31.8692C89.4461 31.77 89.5951 31.6337 89.7112 31.4603C89.8273 31.2868 89.8983 31.0983 89.9242 30.8946C89.963 30.589 89.8946 30.3122 89.7192 30.0641C89.5529 29.8172 89.3124 29.6738 88.9976 29.6338L86.6921 29.3411L86.3959 31.6743ZM92.6855 36.5938L93.6043 29.3579L94.8265 29.5131L94.1158 35.1102L98.8837 30.0142L99.9948 30.1552L99.0742 37.405L97.852 37.2498L98.5486 31.7639L93.8521 36.7419L92.6855 36.5938ZM106.935 40.139L107.152 38.4307L101.43 37.7041L102.35 30.4543L103.573 30.6095L102.788 36.7899L106.149 37.2167L106.934 31.0363L108.156 31.1915L107.371 37.3719L108.371 37.4988L108.018 40.2765L106.935 40.139ZM109.47 38.7251L111.896 36.0695C111.435 35.9169 111.084 35.6465 110.842 35.2582C110.601 34.8607 110.518 34.361 110.595 33.7592C110.65 33.324 110.8 32.9527 111.046 32.6452C111.292 32.3378 111.608 32.1097 111.994 31.9611C112.389 31.8137 112.832 31.7712 113.323 31.8335L116.295 32.2109L115.373 39.4746L114.15 39.3194L114.496 36.5972L113.08 36.4173L110.817 38.8961L109.47 38.7251ZM112.944 35.4829L114.611 35.6945L114.951 33.014L113.423 32.82C112.988 32.7648 112.625 32.8457 112.334 33.0627C112.044 33.2706 111.875 33.5643 111.827 33.9439C111.779 34.3235 111.844 34.6611 112.023 34.9566C112.211 35.2534 112.518 35.4288 112.944 35.4829Z" fill="white"/>
<rect x="21.3062" y="6.36133" width="115" height="32" rx="16" transform="rotate(7.23655 21.3062 6.36133)" stroke="#4F998F" stroke-width="1.4"/>
<rect x="30.9619" y="118.038" width="109" height="32" rx="16" transform="rotate(-14.3295 30.9619 118.038)" fill="#01594D"/>
<path fill-rule="evenodd" clip-rule="evenodd" d="M50.4655 123.826C51.1466 122.704 52.251 121.889 53.5358 121.56C54.8207 121.232 56.1806 121.418 57.3166 122.076C58.4525 122.734 59.2714 123.811 59.593 125.07C60.5026 128.631 57.0008 135.125 57.0008 135.125C57.0008 135.125 50.8137 131.106 49.9041 127.545C49.5825 126.286 49.7844 124.948 50.4655 123.826ZM55.3674 128.731C56.4376 128.457 57.0836 127.368 56.8102 126.298C56.5368 125.228 55.4476 124.582 54.3774 124.855C53.3072 125.128 52.6613 126.218 52.9347 127.288C53.208 128.358 54.2972 129.004 55.3674 128.731Z" fill="white"/>
<path d="M68.3166 130.17L65.8565 120.54L73.2898 118.641L75.7499 128.272L74.5291 128.583L72.3462 120.038L67.3545 121.313L69.5374 129.859L68.3166 130.17ZM77.6597 127.842L77.386 126.77C77.6211 126.71 77.8141 126.598 77.9649 126.434C78.1225 126.259 78.2367 126.008 78.3074 125.682C78.3759 125.347 78.385 124.911 78.3347 124.375C78.2911 123.827 78.1801 123.147 78.0017 122.336L77.5598 120.267L82.3752 119.037L84.1839 126.117L82.9903 126.422L81.4518 120.4L78.8881 121.054L79.1417 122.16C79.3527 123.137 79.4769 123.962 79.5143 124.637C79.5517 125.311 79.5047 125.863 79.3733 126.291C79.242 126.72 79.0298 127.058 78.7368 127.306C78.4528 127.552 78.0938 127.731 77.6597 127.842ZM89.6461 124.866C89.1125 125.003 88.6045 125.031 88.1219 124.952C87.637 124.864 87.1936 124.693 86.7916 124.44C86.3873 124.177 86.0427 123.846 85.7577 123.447C85.4727 123.047 85.2678 122.604 85.1431 122.115C85.016 121.618 84.9818 121.126 85.0404 120.639C85.0991 120.152 85.2439 119.701 85.4749 119.285C85.7037 118.861 86.0108 118.498 86.3963 118.197C86.7886 117.885 87.2515 117.661 87.7851 117.525C88.3096 117.391 88.8143 117.368 89.2991 117.456C89.7817 117.535 90.2251 117.706 90.6294 117.968C91.0404 118.22 91.3884 118.545 91.6734 118.944C91.9585 119.344 92.1645 119.792 92.2915 120.289C92.4163 120.778 92.4493 121.265 92.3907 121.752C92.3321 122.239 92.1884 122.695 91.9597 123.119C91.7286 123.535 91.417 123.899 91.0247 124.211C90.6391 124.512 90.1796 124.73 89.6461 124.866ZM86.3673 121.817C86.4921 122.305 86.7093 122.722 87.0189 123.067C87.3376 123.409 87.7033 123.653 88.116 123.798C88.5264 123.934 88.9487 123.946 89.3827 123.836C89.8168 123.725 90.1801 123.507 90.4727 123.181C90.7744 122.854 90.9784 122.465 91.0847 122.014C91.1978 121.551 91.192 121.076 91.0673 120.588C90.9425 120.099 90.7208 119.684 90.4022 119.341C90.0925 118.997 89.7268 118.753 89.305 118.61C88.8923 118.465 88.4689 118.448 88.0348 118.559C87.6008 118.67 87.2386 118.892 86.9483 119.227C86.6557 119.552 86.4517 119.941 86.3363 120.394C86.2299 120.845 86.2403 121.32 86.3673 121.817ZM94.4357 123.556L94.1619 122.485C94.397 122.425 94.59 122.313 94.7409 122.149C94.8984 121.974 95.0126 121.723 95.0833 121.397C95.1518 121.061 95.1609 120.626 95.1106 120.089C95.0671 119.542 94.9561 118.862 94.7776 118.05L94.3358 115.981L99.1511 114.751L100.96 121.832L99.7662 122.137L98.2277 116.114L95.6641 116.769L95.9176 117.875C96.1286 118.852 96.2528 119.677 96.2902 120.352C96.3276 121.026 96.2806 121.577 96.1493 122.006C96.0179 122.434 95.8057 122.773 95.5127 123.021C95.2287 123.267 94.8697 123.445 94.4357 123.556ZM106.463 120.571C105.929 120.707 105.417 120.737 104.925 120.66C104.44 120.572 103.991 120.398 103.578 120.137C103.173 119.874 102.824 119.545 102.53 119.148C102.245 118.749 102.039 118.3 101.912 117.803C101.741 117.134 101.734 116.485 101.892 115.857C102.049 115.229 102.358 114.683 102.817 114.219C103.274 113.746 103.86 113.418 104.575 113.236C105.271 113.058 105.917 113.061 106.513 113.246C107.117 113.42 107.612 113.736 107.999 114.196L106.926 114.86C106.659 114.572 106.34 114.379 105.969 114.281C105.595 114.175 105.209 114.172 104.811 114.274C104.377 114.385 104.008 114.599 103.704 114.918C103.409 115.234 103.208 115.617 103.102 116.068C102.993 116.51 103.004 116.985 103.133 117.491C103.26 117.988 103.479 118.414 103.791 118.768C104.11 119.11 104.476 119.354 104.888 119.499C105.31 119.642 105.738 119.658 106.172 119.547C106.453 119.475 106.707 119.357 106.934 119.193C107.171 119.027 107.364 118.838 107.512 118.626C107.667 118.404 107.755 118.184 107.777 117.966L109.034 118.021C108.977 118.402 108.834 118.766 108.605 119.113C108.382 119.449 108.087 119.746 107.72 120.004C107.361 120.259 106.942 120.448 106.463 120.571ZM111.199 119.216L109.39 112.136L110.584 111.831L111.329 114.747L112.115 114.546L113.595 111.062L114.951 110.715L113.183 114.823L117.072 117.716L115.689 118.069L112.396 115.645L111.609 115.846L112.392 118.911L111.199 119.216ZM121.45 116.742C120.917 116.878 120.404 116.908 119.913 116.832C119.428 116.743 118.98 116.574 118.569 116.322C118.164 116.06 117.815 115.73 117.521 115.333C117.236 114.934 117.03 114.485 116.903 113.988C116.732 113.319 116.73 112.669 116.897 112.039C117.063 111.409 117.375 110.857 117.832 110.384C118.298 109.908 118.884 109.581 119.589 109.4C120.304 109.218 120.967 109.231 121.579 109.441C122.198 109.639 122.723 109.977 123.153 110.455C123.59 110.921 123.89 111.471 124.051 112.104C124.074 112.195 124.093 112.286 124.107 112.379C124.128 112.46 124.14 112.525 124.142 112.572L118.269 114.073C118.423 114.525 118.654 114.904 118.964 115.21C119.28 115.505 119.641 115.711 120.047 115.829C120.45 115.938 120.855 115.94 121.262 115.837C121.696 115.726 122.076 115.513 122.4 115.199C122.733 114.883 122.927 114.53 122.982 114.14L124.086 114.162C124.02 114.545 123.868 114.911 123.629 115.261C123.4 115.608 123.097 115.912 122.721 116.172C122.353 116.43 121.93 116.62 121.45 116.742ZM118.017 113.256L122.845 112.022C122.692 111.57 122.456 111.197 122.14 110.902C121.824 110.607 121.464 110.405 121.061 110.296C120.657 110.187 120.243 110.187 119.818 110.296C119.402 110.402 119.043 110.6 118.741 110.889C118.439 111.178 118.22 111.527 118.085 111.938C117.958 112.346 117.935 112.785 118.017 113.256Z" fill="white"/>
<rect x="30.9619" y="118.038" width="109" height="32" rx="16" transform="rotate(-14.3295 30.9619 118.038)" stroke="#4F998F" stroke-width="1.4"/>
<rect x="250.305" y="39.5391" width="113" height="32" rx="16" transform="rotate(10.5893 250.305 39.5391)" fill="#01594D"/>
<path fill-rule="evenodd" clip-rule="evenodd" d="M265.555 53.006C266.645 52.2751 267.99 52.0013 269.294 52.245C270.597 52.4887 271.752 53.2299 272.505 54.3055C273.258 55.3811 273.547 56.703 273.308 57.9804C272.633 61.5928 266.721 66.0066 266.721 66.0066C266.721 66.0066 262.803 59.7551 263.478 56.1427C263.717 54.8653 264.464 53.737 265.555 53.006ZM267.934 59.5194C269.02 59.7224 270.064 59.0067 270.267 57.921C270.47 56.8352 269.755 55.7905 268.669 55.5875C267.583 55.3845 266.538 56.1001 266.335 57.1859C266.132 58.2717 266.848 59.3164 267.934 59.5194Z" fill="white"/>
<path d="M288.755 57.9789L286.929 67.7497L285.69 67.5181L286.521 63.0731L281.14 62.0672L280.309 66.5122L279.071 66.2806L280.898 56.5099L282.136 56.7414L281.346 60.9662L286.727 61.9722L287.517 57.7474L288.755 57.9789ZM292.524 68.938C291.982 68.8368 291.505 68.6479 291.091 68.3712C290.689 68.087 290.354 67.7443 290.087 67.3431C289.831 66.9345 289.654 66.4882 289.554 66.0044C289.464 65.5222 289.466 65.0289 289.56 64.5243C289.687 63.8454 289.959 63.2553 290.375 62.754C290.792 62.2526 291.307 61.8837 291.921 61.6472C292.544 61.4123 293.214 61.3618 293.929 61.4956C294.654 61.6311 295.25 61.9229 295.717 62.371C296.195 62.8116 296.528 63.3392 296.717 63.9538C296.917 64.5608 296.957 65.1855 296.837 65.8277C296.819 65.9194 296.798 66.0103 296.771 66.1003C296.756 66.1829 296.739 66.2463 296.722 66.2904L290.763 65.1764C290.712 65.6512 290.762 66.0926 290.914 66.5007C291.077 66.9014 291.317 67.2407 291.635 67.5186C291.955 67.7874 292.322 67.9603 292.735 68.0375C293.175 68.1198 293.608 68.0869 294.035 67.9388C294.471 67.7923 294.795 67.5539 295.009 67.2236L296.001 67.7081C295.78 68.0276 295.487 68.2958 295.124 68.5127C294.77 68.7313 294.367 68.8792 293.916 68.9562C293.474 69.035 293.01 69.0289 292.524 68.938ZM290.879 64.3292L295.778 65.2451C295.828 64.7704 295.773 64.3327 295.61 63.932C295.448 63.5313 295.206 63.1966 294.886 62.9279C294.566 62.6591 294.191 62.4845 293.759 62.4039C293.337 62.325 292.929 62.353 292.533 62.4879C292.138 62.6229 291.792 62.8478 291.495 63.1627C291.208 63.4794 291.003 63.8682 290.879 64.3292ZM296.799 71.3468L297.316 68.5807L297.468 68.609C297.67 68.6467 297.864 68.6214 298.052 68.533C298.248 68.4463 298.438 68.2682 298.622 67.9986C298.816 67.7216 299.003 67.3294 299.183 66.8218C299.364 66.3143 299.543 65.6595 299.722 64.8573L300.179 62.7922L305.064 63.7055L303.922 69.8156L304.899 69.9983L304.382 72.7644L303.308 72.5637L303.625 70.871L298.189 69.8548L297.873 71.5475L296.799 71.3468ZM299.16 68.9255L302.711 69.5892L303.653 64.5525L301.052 64.0662L300.802 65.1732C300.629 65.9479 300.451 66.5936 300.269 67.1102C300.098 67.6195 299.919 68.018 299.732 68.3059C299.554 68.5956 299.364 68.8021 299.16 68.9255ZM306.457 71.4005L307.8 64.217L309.011 64.4434L307.668 71.6269L306.457 71.4005ZM308.052 62.8684L308.335 61.3546L309.546 61.581L309.263 63.0948L308.052 62.8684ZM309.398 72.0074L309.602 70.9202C309.84 70.9648 310.062 70.9446 310.268 70.8596C310.485 70.7672 310.694 70.5879 310.896 70.3218C311.099 70.0465 311.291 69.6551 311.471 69.1476C311.663 68.6326 311.848 67.9695 312.028 67.1581L312.499 65.0955L317.385 66.0088L316.042 73.1924L314.831 72.966L315.973 66.8558L313.372 66.3696L313.136 67.4791C312.916 68.4539 312.681 69.255 312.431 69.8824C312.18 70.5098 311.905 70.9901 311.606 71.3233C311.306 71.6566 310.971 71.8741 310.601 71.9758C310.24 72.0792 309.839 72.0897 309.398 72.0074ZM318.397 73.6326L319.74 66.4491L320.951 66.6755L320.493 69.1251L322.282 69.4595C323.126 69.6173 323.723 69.9521 324.074 70.4639C324.435 70.9683 324.552 71.5645 324.423 72.2526C324.337 72.7113 324.164 73.1061 323.902 73.4371C323.65 73.7698 323.321 74.0073 322.915 74.1497C322.508 74.2921 322.03 74.3119 321.479 74.2089L318.397 73.6326ZM319.785 72.9095L321.492 73.2285C321.831 73.292 322.114 73.2784 322.34 73.1876C322.576 73.0895 322.766 72.9397 322.908 72.7384C323.05 72.5371 323.145 72.308 323.193 72.0511C323.239 71.8034 323.236 71.5655 323.184 71.3373C323.132 71.1092 323.012 70.9111 322.825 70.7432C322.638 70.5753 322.361 70.4571 321.994 70.3885L320.315 70.0746L319.785 72.9095ZM325.69 74.9962L327.033 67.8127L328.244 68.0391L327.689 71.0116L331.432 71.7113L331.988 68.7388L333.199 68.9653L331.856 76.1488L330.645 75.9224L331.231 72.7848L327.488 72.085L326.901 75.2226L325.69 74.9962ZM334.045 74.4075C334.131 73.9488 334.333 73.5783 334.652 73.296C334.981 73.0063 335.392 72.8126 335.885 72.7149C336.378 72.6171 336.928 72.6249 337.533 72.7381C337.854 72.7981 338.189 72.8891 338.536 73.011C338.885 73.1238 339.188 73.2564 339.445 73.4087L339.542 72.8858C339.645 72.3353 339.561 71.8733 339.289 71.4996C339.018 71.1167 338.581 70.8687 337.975 70.7555C337.581 70.6818 337.186 70.684 336.792 70.7622C336.408 70.8329 335.99 70.9635 335.536 71.1541L335.255 70.2186C335.783 69.9849 336.296 69.8339 336.793 69.7654C337.292 69.6877 337.793 69.6961 338.298 69.7904C339.215 69.9619 339.892 70.3543 340.328 70.9675C340.766 71.5716 340.9 72.3278 340.73 73.236L340.162 76.2774C340.134 76.4241 340.141 76.5394 340.182 76.6231C340.235 76.6993 340.329 76.7549 340.465 76.7898L340.29 77.7255C340.167 77.7216 340.059 77.7156 339.965 77.7077C339.881 77.7014 339.811 77.6931 339.756 77.6828C339.472 77.6297 339.271 77.5114 339.153 77.328C339.045 77.1463 338.998 76.9666 339.012 76.7888L339.069 76.3295C338.682 76.6749 338.215 76.9105 337.67 77.0363C337.124 77.1622 336.603 77.1788 336.108 77.0862C335.631 76.997 335.222 76.8209 334.882 76.5579C334.544 76.2858 334.3 75.9648 334.151 75.5951C334.003 75.2162 333.968 74.8203 334.045 74.4075ZM338.629 75.7914C338.763 75.6835 338.874 75.5714 338.962 75.455C339.052 75.3293 339.106 75.2207 339.123 75.1289L339.29 74.2344C339.026 74.0712 338.744 73.9328 338.442 73.8195C338.142 73.6969 337.841 73.6074 337.538 73.5508C336.923 73.4359 336.4 73.4662 335.968 73.6419C335.548 73.8101 335.298 74.1052 335.219 74.5273C335.176 74.7566 335.194 74.9925 335.272 75.235C335.361 75.47 335.512 75.6787 335.725 75.8609C335.947 76.0448 336.236 76.1702 336.594 76.2371C336.97 76.3074 337.342 76.3009 337.709 76.2176C338.077 76.1251 338.384 75.983 338.629 75.7914Z" fill="white"/>
<rect x="250.305" y="39.5391" width="113" height="32" rx="16" transform="rotate(10.5893 250.305 39.5391)" stroke="#4F998F" stroke-width="1.4"/>
<rect x="137.24" y="78.2012" width="183" height="32" rx="16" fill="#01594D"/>
<path fill-rule="evenodd" clip-rule="evenodd" d="M154.705 88.6363C155.642 87.7174 156.914 87.2012 158.24 87.2012C159.566 87.2012 160.838 87.7174 161.776 88.6363C162.713 89.5553 163.24 90.8016 163.24 92.1012C163.24 95.7762 158.24 101.201 158.24 101.201C158.24 101.201 153.24 95.7762 153.24 92.1012C153.24 90.8016 153.767 89.5553 154.705 88.6363ZM158.24 94.6016C159.345 94.6016 160.24 93.7061 160.24 92.6016C160.24 91.497 159.345 90.6016 158.24 90.6016C157.136 90.6016 156.24 91.497 156.24 92.6016C156.24 93.7061 157.136 94.6016 158.24 94.6016Z" fill="white"/>
<path d="M169.786 94.1612C169.786 93.5545 169.889 92.9618 170.094 92.3832C170.309 91.7952 170.617 91.2632 171.018 90.7872C171.429 90.3018 171.928 89.9192 172.516 89.6392C173.104 89.3498 173.772 89.2052 174.518 89.2052C175.405 89.2052 176.166 89.4105 176.8 89.8212C177.435 90.2225 177.906 90.7405 178.214 91.3752L177.22 92.0192C177.024 91.5992 176.772 91.2678 176.464 91.0252C176.166 90.7732 175.839 90.5958 175.484 90.4932C175.139 90.3905 174.798 90.3392 174.462 90.3392C173.912 90.3392 173.422 90.4512 172.992 90.6752C172.572 90.8992 172.218 91.1978 171.928 91.5712C171.639 91.9445 171.42 92.3645 171.27 92.8312C171.13 93.2885 171.06 93.7505 171.06 94.2172C171.06 94.7305 171.144 95.2252 171.312 95.7012C171.49 96.1772 171.732 96.5972 172.04 96.9612C172.348 97.3252 172.712 97.6145 173.132 97.8292C173.552 98.0438 174.01 98.1512 174.504 98.1512C174.85 98.1512 175.204 98.0905 175.568 97.9692C175.932 97.8478 176.273 97.6612 176.59 97.4092C176.908 97.1478 177.16 96.8118 177.346 96.4012L178.396 96.9752C178.191 97.4698 177.874 97.8898 177.444 98.2352C177.015 98.5805 176.534 98.8418 176.002 99.0192C175.48 99.1965 174.962 99.2852 174.448 99.2852C173.767 99.2852 173.142 99.1405 172.572 98.8512C172.003 98.5525 171.508 98.1605 171.088 97.6752C170.678 97.1805 170.356 96.6298 170.122 96.0232C169.898 95.4072 169.786 94.7865 169.786 94.1612ZM179.623 97.0872C179.623 96.6205 179.754 96.2192 180.015 95.8832C180.286 95.5378 180.655 95.2718 181.121 95.0852C181.588 94.8985 182.129 94.8052 182.745 94.8052C183.072 94.8052 183.417 94.8332 183.781 94.8892C184.145 94.9358 184.467 95.0105 184.747 95.1132V94.5812C184.747 94.0212 184.579 93.5825 184.243 93.2652C183.907 92.9385 183.431 92.7752 182.815 92.7752C182.414 92.7752 182.027 92.8498 181.653 92.9992C181.289 93.1392 180.902 93.3445 180.491 93.6152L180.043 92.7472C180.519 92.4205 180.995 92.1778 181.471 92.0192C181.947 91.8512 182.442 91.7672 182.955 91.7672C183.889 91.7672 184.626 92.0285 185.167 92.5512C185.709 93.0645 185.979 93.7832 185.979 94.7072V97.8012C185.979 97.9505 186.007 98.0625 186.063 98.1372C186.129 98.2025 186.231 98.2398 186.371 98.2492V99.2012C186.25 99.2198 186.143 99.2338 186.049 99.2432C185.965 99.2525 185.895 99.2572 185.839 99.2572C185.55 99.2572 185.331 99.1778 185.181 99.0192C185.041 98.8605 184.962 98.6925 184.943 98.5152L184.915 98.0532C184.598 98.4638 184.183 98.7812 183.669 99.0052C183.156 99.2292 182.647 99.3412 182.143 99.3412C181.658 99.3412 181.224 99.2432 180.841 99.0472C180.459 98.8418 180.16 98.5712 179.945 98.2352C179.731 97.8898 179.623 97.5072 179.623 97.0872ZM184.383 97.6052C184.495 97.4745 184.584 97.3438 184.649 97.2132C184.715 97.0732 184.747 96.9565 184.747 96.8632V95.9532C184.458 95.8412 184.155 95.7572 183.837 95.7012C183.52 95.6358 183.207 95.6032 182.899 95.6032C182.274 95.6032 181.765 95.7292 181.373 95.9812C180.991 96.2238 180.799 96.5598 180.799 96.9892C180.799 97.2225 180.86 97.4512 180.981 97.6752C181.112 97.8898 181.299 98.0672 181.541 98.2072C181.793 98.3472 182.101 98.4172 182.465 98.4172C182.848 98.4172 183.212 98.3425 183.557 98.1932C183.903 98.0345 184.178 97.8385 184.383 97.6052ZM187.557 100.923V98.1092H187.711C187.916 98.1092 188.103 98.0485 188.271 97.9272C188.448 97.8058 188.602 97.5958 188.733 97.2972C188.873 96.9892 188.985 96.5692 189.069 96.0372C189.153 95.5052 189.209 94.8285 189.237 94.0072L189.307 91.8932H194.277V98.1092H195.271V100.923H194.179V99.2012H188.649V100.923H187.557ZM189.433 98.1092H193.045V92.9852H190.399L190.357 94.1192C190.329 94.9125 190.273 95.5798 190.189 96.1212C190.114 96.6532 190.012 97.0778 189.881 97.3952C189.76 97.7125 189.61 97.9505 189.433 98.1092ZM197.047 99.2012V91.9072H198.279V97.5492L202.367 91.8932H203.487V99.2012H202.255V93.6712L198.223 99.2012H197.047ZM209.319 99.3412C208.115 99.3412 207.205 98.9772 206.589 98.2492C205.973 97.5212 205.665 96.4945 205.665 95.1692C205.665 94.2638 205.74 93.5032 205.889 92.8872C206.039 92.2618 206.263 91.7485 206.561 91.3472C206.86 90.9365 207.229 90.6052 207.667 90.3532C208.106 90.0918 208.61 89.8772 209.179 89.7092L212.273 88.7712L212.343 89.8352L209.333 90.7452C208.82 90.9132 208.391 91.1278 208.045 91.3892C207.7 91.6505 207.429 91.9865 207.233 92.3972C207.037 92.8078 206.907 93.3352 206.841 93.9792C207.084 93.4845 207.448 93.1018 207.933 92.8312C208.419 92.5512 208.983 92.4112 209.627 92.4112C210.318 92.4112 210.911 92.5558 211.405 92.8452C211.909 93.1252 212.292 93.5218 212.553 94.0352C212.824 94.5392 212.959 95.1225 212.959 95.7852C212.959 96.4945 212.819 97.1152 212.539 97.6472C212.259 98.1792 211.849 98.5945 211.307 98.8932C210.766 99.1918 210.103 99.3412 209.319 99.3412ZM209.319 98.2772C210.075 98.2772 210.659 98.0578 211.069 97.6192C211.489 97.1712 211.699 96.5785 211.699 95.8412C211.699 95.1225 211.494 94.5392 211.083 94.0912C210.673 93.6432 210.085 93.4192 209.319 93.4192C208.871 93.4192 208.465 93.5125 208.101 93.6992C207.747 93.8858 207.462 94.1612 207.247 94.5252C207.042 94.8798 206.939 95.3185 206.939 95.8412C206.939 96.3078 207.028 96.7278 207.205 97.1012C207.392 97.4652 207.663 97.7545 208.017 97.9692C208.372 98.1745 208.806 98.2772 209.319 98.2772ZM214.307 97.0872C214.307 96.6205 214.438 96.2192 214.699 95.8832C214.97 95.5378 215.338 95.2718 215.805 95.0852C216.272 94.8985 216.813 94.8052 217.429 94.8052C217.756 94.8052 218.101 94.8332 218.465 94.8892C218.829 94.9358 219.151 95.0105 219.431 95.1132V94.5812C219.431 94.0212 219.263 93.5825 218.927 93.2652C218.591 92.9385 218.115 92.7752 217.499 92.7752C217.098 92.7752 216.71 92.8498 216.337 92.9992C215.973 93.1392 215.586 93.3445 215.175 93.6152L214.727 92.7472C215.203 92.4205 215.679 92.1778 216.155 92.0192C216.631 91.8512 217.126 91.7672 217.639 91.7672C218.572 91.7672 219.31 92.0285 219.851 92.5512C220.392 93.0645 220.663 93.7832 220.663 94.7072V97.8012C220.663 97.9505 220.691 98.0625 220.747 98.1372C220.812 98.2025 220.915 98.2398 221.055 98.2492V99.2012C220.934 99.2198 220.826 99.2338 220.733 99.2432C220.649 99.2525 220.579 99.2572 220.523 99.2572C220.234 99.2572 220.014 99.1778 219.865 99.0192C219.725 98.8605 219.646 98.6925 219.627 98.5152L219.599 98.0532C219.282 98.4638 218.866 98.7812 218.353 99.0052C217.84 99.2292 217.331 99.3412 216.827 99.3412C216.342 99.3412 215.908 99.2432 215.525 99.0472C215.142 98.8418 214.844 98.5712 214.629 98.2352C214.414 97.8898 214.307 97.5072 214.307 97.0872ZM219.067 97.6052C219.179 97.4745 219.268 97.3438 219.333 97.2132C219.398 97.0732 219.431 96.9565 219.431 96.8632V95.9532C219.142 95.8412 218.838 95.7572 218.521 95.7012C218.204 95.6358 217.891 95.6032 217.583 95.6032C216.958 95.6032 216.449 95.7292 216.057 95.9812C215.674 96.2238 215.483 96.5598 215.483 96.9892C215.483 97.2225 215.544 97.4512 215.665 97.6752C215.796 97.8898 215.982 98.0672 216.225 98.2072C216.477 98.3472 216.785 98.4172 217.149 98.4172C217.532 98.4172 217.896 98.3425 218.241 98.1932C218.586 98.0345 218.862 97.8385 219.067 97.6052ZM226.58 95.2812L230.122 92.7472V93.7832L227.574 95.5752L230.122 97.3252V98.3612L226.58 95.9252V95.2812ZM229.968 95.2812L233.51 92.7472V93.7832L230.962 95.5752L233.51 97.3252V98.3612L229.968 95.9252V95.2812ZM235.97 99.2012V89.2612H242.788V90.3672H237.23V93.5032H240.338C241.43 93.5032 242.242 93.7598 242.774 94.2732C243.315 94.7865 243.586 95.4585 243.586 96.2892C243.586 96.8398 243.469 97.3345 243.236 97.7732C243.003 98.2118 242.653 98.5618 242.186 98.8232C241.719 99.0752 241.131 99.2012 240.422 99.2012H235.97ZM237.23 98.0952H240.268C240.753 98.0952 241.145 98.0065 241.444 97.8292C241.743 97.6518 241.957 97.4232 242.088 97.1432C242.228 96.8538 242.298 96.5552 242.298 96.2472C242.298 95.9485 242.237 95.6685 242.116 95.4072C241.995 95.1365 241.785 94.9218 241.486 94.7632C241.187 94.5952 240.767 94.5112 240.226 94.5112H237.23V98.0952ZM248.629 99.3412C248.078 99.3412 247.574 99.2432 247.117 99.0472C246.669 98.8418 246.277 98.5665 245.941 98.2212C245.614 97.8665 245.358 97.4605 245.171 97.0032C244.994 96.5458 244.905 96.0605 244.905 95.5472C244.905 94.8565 245.064 94.2265 245.381 93.6572C245.698 93.0878 246.137 92.6305 246.697 92.2852C247.266 91.9398 247.915 91.7672 248.643 91.7672C249.38 91.7672 250.02 91.9445 250.561 92.2992C251.112 92.6445 251.536 93.1018 251.835 93.6712C252.143 94.2312 252.297 94.8378 252.297 95.4912C252.297 95.5845 252.292 95.6778 252.283 95.7712C252.283 95.8552 252.278 95.9205 252.269 95.9672H246.207C246.244 96.4432 246.375 96.8678 246.599 97.2412C246.832 97.6052 247.131 97.8945 247.495 98.1092C247.859 98.3145 248.251 98.4172 248.671 98.4172C249.119 98.4172 249.539 98.3052 249.931 98.0812C250.332 97.8572 250.608 97.5632 250.757 97.1992L251.821 97.4932C251.662 97.8478 251.424 98.1652 251.107 98.4452C250.799 98.7252 250.43 98.9445 250.001 99.1032C249.581 99.2618 249.124 99.3412 248.629 99.3412ZM246.165 95.1132H251.149C251.112 94.6372 250.976 94.2172 250.743 93.8532C250.51 93.4892 250.211 93.2045 249.847 92.9992C249.483 92.7938 249.082 92.6912 248.643 92.6912C248.214 92.6912 247.817 92.7938 247.453 92.9992C247.089 93.2045 246.79 93.4892 246.557 93.8532C246.333 94.2172 246.202 94.6372 246.165 95.1132ZM257.321 99.3412C256.77 99.3412 256.266 99.2432 255.809 99.0472C255.361 98.8418 254.969 98.5618 254.633 98.2072C254.306 97.8525 254.049 97.4465 253.863 96.9892C253.685 96.5318 253.597 96.0465 253.597 95.5332C253.597 94.8425 253.751 94.2125 254.059 93.6432C254.367 93.0738 254.801 92.6212 255.361 92.2852C255.921 91.9398 256.569 91.7672 257.307 91.7672C258.025 91.7672 258.651 91.9305 259.183 92.2572C259.724 92.5745 260.125 93.0038 260.387 93.5452L259.183 93.9232C258.996 93.5778 258.735 93.3118 258.399 93.1252C258.063 92.9292 257.689 92.8312 257.279 92.8312C256.831 92.8312 256.42 92.9478 256.047 93.1812C255.683 93.4145 255.393 93.7365 255.179 94.1472C254.964 94.5485 254.857 95.0105 254.857 95.5332C254.857 96.0465 254.964 96.5132 255.179 96.9332C255.403 97.3438 255.697 97.6705 256.061 97.9132C256.434 98.1558 256.845 98.2772 257.293 98.2772C257.582 98.2772 257.857 98.2258 258.119 98.1232C258.389 98.0205 258.623 97.8852 258.819 97.7172C259.024 97.5398 259.164 97.3485 259.239 97.1432L260.443 97.5072C260.293 97.8618 260.065 98.1792 259.757 98.4592C259.458 98.7298 259.099 98.9445 258.679 99.1032C258.268 99.2618 257.815 99.3412 257.321 99.3412ZM262.245 99.2012V91.8932H263.477V94.9032H264.289L266.585 91.8932H267.985L265.255 95.4352L268.307 99.2012H266.879L264.289 96.0372H263.477V99.2012H262.245ZM269.924 99.2012V91.9072H271.156V97.5492L275.244 91.8932H276.364V99.2012H275.132V93.6712L271.1 99.2012H269.924ZM277.941 100.923V98.1092H278.095C278.3 98.1092 278.487 98.0485 278.655 97.9272C278.832 97.8058 278.986 97.5958 279.117 97.2972C279.257 96.9892 279.369 96.5692 279.453 96.0372C279.537 95.5052 279.593 94.8285 279.621 94.0072L279.691 91.8932H284.661V98.1092H285.655V100.923H284.563V99.2012H279.033V100.923H277.941ZM279.817 98.1092H283.429V92.9852H280.783L280.741 94.1192C280.713 94.9125 280.657 95.5798 280.573 96.1212C280.498 96.6532 280.395 97.0778 280.265 97.3952C280.143 97.7125 279.994 97.9505 279.817 98.1092ZM287.43 99.2012V91.9072H288.662V97.5492L292.75 91.8932H293.87V99.2012H292.638V93.6712L288.606 99.2012H287.43ZM303.049 95.9252L299.507 98.3612V97.3252L302.055 95.5752L299.507 93.7832V92.7472L303.049 95.2812V95.9252ZM299.661 95.9252L296.119 98.3612V97.3252L298.667 95.5752L296.119 93.7832V92.7472L299.661 95.2812V95.9252Z" fill="white"/>
<rect x="137.24" y="78.2012" width="183" height="32" rx="16" stroke="#4F998F" stroke-width="1.4"/>
<rect x="163.308" y="123.619" width="192" height="32" rx="16" transform="rotate(-6.1758 163.308 123.619)" fill="#CFE8D0"/>
<path fill-rule="evenodd" clip-rule="evenodd" d="M181.794 132.115C182.627 131.101 183.836 130.45 185.155 130.308C186.473 130.165 187.793 130.542 188.824 131.354C189.855 132.167 190.513 133.349 190.653 134.641C191.048 138.295 186.661 144.227 186.661 144.227C186.661 144.227 181.106 139.371 180.711 135.717C180.571 134.425 180.961 133.129 181.794 132.115ZM185.951 137.665C187.049 137.546 187.843 136.56 187.724 135.462C187.605 134.364 186.619 133.57 185.52 133.688C184.422 133.807 183.628 134.794 183.747 135.892C183.866 136.99 184.853 137.784 185.951 137.665Z" fill="#01594D"/>
<path d="M198.074 142.895L197.748 139.888L198.194 139.84C198.454 139.812 198.67 139.685 198.843 139.46C199.014 139.226 199.145 138.873 199.235 138.404C199.324 137.925 199.369 137.296 199.369 136.516C199.369 135.737 199.327 134.78 199.241 133.643L199.013 130.88L205.137 130.217L206.086 138.986L207.311 138.854L207.636 141.86L206.522 141.981L206.318 140.088L198.982 140.881L199.187 142.774L198.074 142.895ZM199.864 139.659L204.833 139.122L204.005 131.466L200.288 131.869L200.441 133.669C200.54 134.841 200.585 135.826 200.578 136.625C200.57 137.424 200.509 138.069 200.393 138.56C200.277 139.051 200.101 139.418 199.864 139.659ZM208.821 139.817L211.088 135.783L208.271 132.526L209.649 132.376L212.064 135.171L212.843 135.087L212.516 132.066L213.769 131.931L214.096 134.951L214.903 134.864L216.622 131.622L218.014 131.471L215.96 135.256L219.051 138.71L217.645 138.862L215.019 135.935L214.212 136.023L214.555 139.196L213.303 139.332L212.959 136.158L212.18 136.243L210.226 139.665L208.821 139.817ZM224.17 138.297C223.622 138.356 223.111 138.313 222.635 138.167C222.168 138.011 221.748 137.78 221.377 137.472C221.014 137.155 220.715 136.779 220.48 136.344C220.255 135.909 220.115 135.436 220.059 134.925C219.985 134.239 220.075 133.595 220.329 132.995C220.583 132.395 220.97 131.893 221.49 131.489C222.019 131.085 222.645 130.843 223.369 130.765C224.102 130.686 224.757 130.793 225.333 131.088C225.918 131.372 226.389 131.781 226.747 132.315C227.114 132.838 227.332 133.425 227.402 134.074C227.412 134.167 227.418 134.261 227.419 134.354C227.428 134.438 227.43 134.503 227.426 134.551L221.399 135.203C221.487 135.672 221.663 136.08 221.926 136.427C222.197 136.764 222.525 137.02 222.91 137.194C223.294 137.359 223.695 137.419 224.112 137.374C224.558 137.325 224.963 137.169 225.329 136.904C225.704 136.638 225.946 136.316 226.055 135.938L227.145 136.116C227.025 136.486 226.822 136.827 226.537 137.139C226.261 137.451 225.918 137.709 225.508 137.912C225.108 138.115 224.662 138.243 224.17 138.297ZM221.265 134.358L226.22 133.822C226.132 133.353 225.952 132.95 225.681 132.613C225.41 132.276 225.083 132.025 224.699 131.86C224.315 131.695 223.904 131.637 223.468 131.684C223.042 131.73 222.658 131.875 222.318 132.118C221.979 132.361 221.712 132.676 221.519 133.063C221.336 133.449 221.251 133.881 221.265 134.358ZM233.507 137.286C232.913 137.351 232.368 137.259 231.872 137.013C231.376 136.766 230.969 136.43 230.65 136.004L231.126 140.403L229.901 140.535L228.794 130.305L229.88 130.187L230.028 131.551C230.267 131.075 230.604 130.677 231.039 130.358C231.473 130.029 231.964 129.835 232.511 129.776C233.012 129.722 233.483 129.774 233.922 129.933C234.362 130.092 234.754 130.331 235.098 130.651C235.443 130.97 235.723 131.348 235.939 131.785C236.164 132.211 236.302 132.67 236.356 133.162C236.43 133.849 236.359 134.495 236.143 135.1C235.936 135.705 235.605 136.205 235.151 136.602C234.695 136.989 234.147 137.217 233.507 137.286ZM233.017 136.269C233.378 136.23 233.695 136.121 233.967 135.941C234.247 135.751 234.475 135.52 234.652 135.247C234.837 134.964 234.968 134.655 235.044 134.318C235.121 133.981 235.14 133.641 235.103 133.298C235.064 132.936 234.962 132.599 234.797 132.289C234.641 131.977 234.433 131.708 234.174 131.483C233.925 131.256 233.639 131.09 233.318 130.984C233.005 130.868 232.672 130.829 232.319 130.867C232.097 130.891 231.869 130.958 231.637 131.067C231.414 131.176 231.204 131.321 231.008 131.502C230.811 131.673 230.648 131.864 230.521 132.075C230.394 132.286 230.319 132.506 230.296 132.733L230.521 134.807C230.694 135.108 230.911 135.375 231.171 135.61C231.431 135.845 231.723 136.024 232.046 136.149C232.368 136.264 232.692 136.304 233.017 136.269ZM241.901 136.378C241.353 136.437 240.841 136.394 240.366 136.248C239.898 136.093 239.479 135.861 239.108 135.554C238.745 135.236 238.446 134.86 238.211 134.426C237.986 133.99 237.845 133.517 237.79 133.007C237.716 132.32 237.806 131.677 238.06 131.077C238.314 130.476 238.701 129.974 239.221 129.571C239.75 129.166 240.376 128.925 241.1 128.847C241.833 128.767 242.487 128.875 243.064 129.169C243.648 129.453 244.12 129.862 244.478 130.396C244.844 130.92 245.063 131.506 245.133 132.156C245.143 132.249 245.148 132.342 245.149 132.436C245.158 132.519 245.161 132.585 245.156 132.632L239.13 133.284C239.218 133.753 239.394 134.162 239.656 134.509C239.928 134.845 240.256 135.101 240.641 135.275C241.025 135.44 241.425 135.5 241.843 135.455C242.288 135.407 242.694 135.25 243.059 134.985C243.434 134.719 243.676 134.398 243.786 134.02L244.875 134.197C244.756 134.567 244.553 134.908 244.268 135.221C243.992 135.532 243.649 135.79 243.239 135.994C242.838 136.197 242.392 136.325 241.901 136.378ZM238.996 132.44L243.951 131.904C243.863 131.434 243.683 131.031 243.412 130.695C243.141 130.358 242.813 130.107 242.429 129.942C242.045 129.777 241.635 129.718 241.199 129.765C240.772 129.811 240.389 129.956 240.049 130.199C239.709 130.443 239.443 130.758 239.25 131.145C239.067 131.531 238.982 131.962 238.996 132.44ZM246.677 135.777L246.558 134.677C246.799 134.651 247.006 134.568 247.179 134.427C247.36 134.276 247.508 134.044 247.624 133.731C247.74 133.409 247.811 132.979 247.837 132.441C247.871 131.892 247.858 131.204 247.796 130.375L247.652 128.264L252.594 127.73L253.38 134.995L252.155 135.128L251.486 128.948L248.856 129.232L248.95 130.363C249.02 131.36 249.026 132.195 248.967 132.867C248.909 133.54 248.784 134.08 248.593 134.485C248.402 134.891 248.144 135.196 247.819 135.4C247.503 135.603 247.122 135.729 246.677 135.777ZM258.964 134.532C258.417 134.591 257.91 134.547 257.443 134.401C256.976 134.245 256.561 134.013 256.199 133.704C255.836 133.387 255.542 133.01 255.316 132.575C255.091 132.139 254.951 131.671 254.897 131.17C254.842 130.659 254.878 130.167 255.005 129.694C255.132 129.22 255.339 128.794 255.627 128.415C255.913 128.027 256.269 127.712 256.693 127.469C257.126 127.216 257.616 127.059 258.163 127C258.701 126.942 259.204 126.991 259.672 127.147C260.138 127.293 260.553 127.525 260.916 127.843C261.287 128.15 261.585 128.521 261.811 128.957C262.036 129.393 262.177 129.866 262.232 130.376C262.286 130.877 262.25 131.365 262.123 131.838C261.996 132.312 261.789 132.743 261.502 133.131C261.215 133.509 260.854 133.825 260.422 134.078C259.997 134.321 259.512 134.472 258.964 134.532ZM256.151 131.048C256.205 131.549 256.361 131.992 256.619 132.378C256.886 132.762 257.213 133.055 257.601 133.257C257.988 133.45 258.404 133.522 258.85 133.474C259.295 133.426 259.686 133.261 260.021 132.981C260.366 132.7 260.624 132.343 260.793 131.912C260.97 131.47 261.032 130.999 260.978 130.498C260.924 129.997 260.763 129.554 260.496 129.17C260.239 128.785 259.911 128.491 259.514 128.29C259.126 128.088 258.709 128.011 258.264 128.059C257.818 128.108 257.428 128.277 257.094 128.566C256.758 128.847 256.501 129.203 256.322 129.636C256.153 130.067 256.096 130.538 256.151 131.048ZM267.61 129.512L270.859 126.612L270.971 127.642L268.63 129.698L271.352 131.164L271.463 132.194L267.679 130.153L267.61 129.512ZM270.979 129.148L274.227 126.248L274.339 127.278L271.998 129.333L274.72 130.799L274.831 131.829L271.048 129.788L270.979 129.148ZM284.246 121.657L285.315 131.54L284.062 131.675L283.576 127.179L278.133 127.768L278.62 132.264L277.367 132.4L276.298 122.517L277.551 122.382L278.013 126.655L283.455 126.066L282.993 121.793L284.246 121.657ZM287.041 129.226C286.99 128.762 287.077 128.349 287.301 127.987C287.533 127.615 287.871 127.311 288.315 127.075C288.758 126.839 289.287 126.688 289.899 126.622C290.224 126.587 290.57 126.577 290.938 126.594C291.305 126.601 291.633 126.641 291.923 126.713L291.865 126.184C291.805 125.627 291.591 125.209 291.223 124.93C290.853 124.641 290.363 124.53 289.75 124.596C289.351 124.639 288.974 124.755 288.619 124.944C288.272 125.122 287.909 125.368 287.53 125.681L286.991 124.866C287.429 124.49 287.877 124.198 288.333 123.989C288.788 123.771 289.271 123.634 289.781 123.579C290.709 123.478 291.47 123.659 292.064 124.12C292.658 124.572 293.004 125.258 293.104 126.176L293.437 129.253C293.453 129.401 293.493 129.509 293.556 129.578C293.628 129.635 293.734 129.662 293.874 129.656L293.977 130.602C293.858 130.634 293.753 130.659 293.661 130.679C293.579 130.697 293.51 130.709 293.454 130.715C293.166 130.746 292.94 130.691 292.774 130.549C292.618 130.407 292.521 130.248 292.483 130.074L292.406 129.618C292.135 130.06 291.756 130.42 291.27 130.698C290.783 130.976 290.29 131.142 289.789 131.196C289.306 131.248 288.864 131.198 288.462 131.044C288.06 130.881 287.734 130.644 287.484 130.333C287.234 130.013 287.086 129.644 287.041 129.226ZM291.829 129.229C291.926 129.087 292 128.948 292.051 128.811C292.101 128.665 292.121 128.545 292.111 128.453L292.013 127.548C291.713 127.468 291.403 127.417 291.081 127.395C290.759 127.364 290.444 127.366 290.138 127.399C289.516 127.466 289.024 127.646 288.662 127.939C288.307 128.221 288.153 128.576 288.199 129.003C288.224 129.234 288.309 129.455 288.454 129.665C288.607 129.864 288.812 130.021 289.068 130.134C289.334 130.246 289.647 130.282 290.009 130.243C290.39 130.202 290.744 130.088 291.071 129.903C291.397 129.708 291.65 129.483 291.829 129.229ZM299.638 132.989L299.318 130.024L299.039 130.054C298.306 130.134 297.653 130.036 297.078 129.76C296.513 129.483 296.057 129.086 295.71 128.57C295.363 128.054 295.155 127.471 295.085 126.821C295.013 126.162 295.092 125.544 295.32 124.965C295.558 124.385 295.923 123.9 296.416 123.509C296.918 123.116 297.531 122.881 298.255 122.803L298.533 122.773L298.218 119.864L299.443 119.731L299.758 122.64L300.05 122.608C300.774 122.53 301.418 122.629 301.983 122.906C302.558 123.182 303.018 123.578 303.365 124.094C303.721 124.61 303.935 125.197 304.006 125.856C304.077 126.505 303.998 127.119 303.769 127.698C303.541 128.277 303.176 128.762 302.674 129.154C302.181 129.546 301.568 129.781 300.835 129.86L300.543 129.892L300.863 132.856L299.638 132.989ZM298.931 129.052L299.265 129.016L298.697 123.769L298.363 123.805C297.908 123.854 297.513 124.019 297.177 124.299C296.85 124.569 296.606 124.915 296.445 125.336C296.284 125.757 296.23 126.214 296.283 126.706C296.336 127.197 296.482 127.632 296.72 128.01C296.966 128.378 297.278 128.658 297.656 128.852C298.033 129.037 298.458 129.104 298.931 129.052ZM300.378 128.896L300.726 128.858C301.19 128.808 301.587 128.652 301.915 128.391C302.252 128.12 302.497 127.779 302.649 127.369C302.81 126.947 302.864 126.491 302.811 125.999C302.758 125.507 302.607 125.073 302.36 124.696C302.113 124.319 301.8 124.034 301.423 123.84C301.044 123.637 300.623 123.56 300.159 123.611L299.811 123.648L300.378 128.896ZM308.071 129.077L307.402 122.897L304.897 123.168L304.779 122.083L311.015 121.408L311.133 122.494L308.627 122.765L309.296 128.945L308.071 129.077ZM314.684 131.445C314.526 131.463 314.361 131.457 314.189 131.429C314.026 131.399 313.856 131.347 313.679 131.273L314.007 130.392C314.095 130.43 314.177 130.454 314.254 130.464C314.34 130.483 314.421 130.488 314.495 130.48C314.718 130.456 314.915 130.327 315.087 130.092C315.269 129.866 315.425 129.53 315.555 129.084L315.808 128.17L311.842 121.318L313.136 121.178L316.238 126.94L317.799 120.674L319.01 120.543L316.528 129.359C316.406 129.795 316.253 130.159 316.069 130.451C315.886 130.752 315.676 130.986 315.441 131.152C315.205 131.319 314.953 131.416 314.684 131.445ZM324.423 127.449C323.876 127.508 323.364 127.465 322.889 127.319C322.421 127.163 322.001 126.927 321.629 126.61C321.266 126.293 320.967 125.917 320.733 125.482C320.507 125.047 320.367 124.574 320.311 124.063C320.237 123.377 320.322 122.734 320.567 122.135C320.812 121.535 321.195 121.039 321.716 120.644C322.235 120.241 322.862 119.999 323.595 119.92C324.309 119.843 324.949 119.938 325.513 120.205C326.085 120.463 326.53 120.846 326.848 121.356L325.692 121.862C325.469 121.538 325.181 121.302 324.826 121.153C324.471 120.994 324.09 120.937 323.681 120.981C323.236 121.029 322.84 121.189 322.494 121.461C322.157 121.732 321.904 122.084 321.735 122.515C321.565 122.937 321.508 123.408 321.564 123.928C321.619 124.438 321.776 124.89 322.035 125.285C322.302 125.669 322.629 125.962 323.017 126.164C323.414 126.365 323.836 126.442 324.281 126.394C324.569 126.363 324.837 126.282 325.086 126.152C325.344 126.021 325.561 125.861 325.738 125.673C325.923 125.474 326.042 125.269 326.094 125.057L327.33 125.289C327.22 125.658 327.027 125.998 326.75 126.31C326.483 126.611 326.148 126.863 325.748 127.066C325.357 127.268 324.915 127.395 324.423 127.449ZM329.318 126.778L328.532 119.513L329.756 119.38L330.543 126.646L329.318 126.778ZM328.384 118.148L328.218 116.617L329.443 116.485L329.609 118.016L328.384 118.148ZM339.341 122.398L336.082 125.201L335.97 124.171L338.315 122.157L335.589 120.65L335.478 119.62L339.272 121.758L339.341 122.398ZM335.973 122.763L332.714 125.566L332.602 124.536L334.947 122.522L332.221 121.014L332.11 119.984L335.904 122.123L335.973 122.763Z" fill="#01594D"/>
<rect x="38" y="49.2012" width="182" height="32" rx="16" fill="#CFE8D0"/>
<path fill-rule="evenodd" clip-rule="evenodd" d="M55.4645 59.6363C56.4021 58.7174 57.6739 58.2012 59 58.2012C60.3261 58.2012 61.5979 58.7174 62.5355 59.6363C63.4732 60.5553 64 61.8016 64 63.1012C64 66.7762 59 72.2012 59 72.2012C59 72.2012 54 66.7762 54 63.1012C54 61.8016 54.5268 60.5553 55.4645 59.6363ZM59 65.6016C60.1046 65.6016 61 64.7061 61 63.6016C61 62.497 60.1046 61.6016 59 61.6016C57.8954 61.6016 57 62.497 57 63.6016C57 64.7061 57.8954 65.6016 59 65.6016Z" fill="#01594D"/>
<path d="M79.786 70.2012V62.6132L76.51 68.4512H75.74L72.45 62.6132V70.2012H71.19V60.2612H72.52L76.118 66.7152L79.73 60.2612H81.046V70.2012H79.786ZM83.6363 70.2012V62.8932H84.8683V69.1232H87.7523V62.8932H88.9983V69.1232H91.8683V62.8932H93.1003V70.2012H83.6363ZM94.9397 68.0872C94.9397 67.6205 95.0704 67.2192 95.3317 66.8832C95.6024 66.5378 95.971 66.2718 96.4377 66.0852C96.9044 65.8985 97.4457 65.8052 98.0617 65.8052C98.3884 65.8052 98.7337 65.8332 99.0977 65.8892C99.4617 65.9358 99.7837 66.0105 100.064 66.1132V65.5812C100.064 65.0212 99.8957 64.5825 99.5597 64.2652C99.2237 63.9385 98.7477 63.7752 98.1317 63.7752C97.7304 63.7752 97.343 63.8498 96.9697 63.9992C96.6057 64.1392 96.2184 64.3445 95.8077 64.6152L95.3597 63.7472C95.8357 63.4205 96.3117 63.1778 96.7877 63.0192C97.2637 62.8512 97.7584 62.7672 98.2717 62.7672C99.205 62.7672 99.9424 63.0285 100.484 63.5512C101.025 64.0645 101.296 64.7832 101.296 65.7072V68.8012C101.296 68.9505 101.324 69.0625 101.38 69.1372C101.445 69.2025 101.548 69.2398 101.688 69.2492V70.2012C101.566 70.2198 101.459 70.2338 101.366 70.2432C101.282 70.2525 101.212 70.2572 101.156 70.2572C100.866 70.2572 100.647 70.1778 100.498 70.0192C100.358 69.8605 100.278 69.6925 100.26 69.5152L100.232 69.0532C99.9144 69.4638 99.499 69.7812 98.9857 70.0052C98.4724 70.2292 97.9637 70.3412 97.4597 70.3412C96.9744 70.3412 96.5404 70.2432 96.1577 70.0472C95.775 69.8418 95.4764 69.5712 95.2617 69.2352C95.047 68.8898 94.9397 68.5072 94.9397 68.0872ZM99.6997 68.6052C99.8117 68.4745 99.9004 68.3438 99.9657 68.2132C100.031 68.0732 100.064 67.9565 100.064 67.8632V66.9532C99.7744 66.8412 99.471 66.7572 99.1537 66.7012C98.8364 66.6358 98.5237 66.6032 98.2157 66.6032C97.5904 66.6032 97.0817 66.7292 96.6897 66.9812C96.307 67.2238 96.1157 67.5598 96.1157 67.9892C96.1157 68.2225 96.1764 68.4512 96.2977 68.6752C96.4284 68.8898 96.615 69.0672 96.8577 69.2072C97.1097 69.3472 97.4177 69.4172 97.7817 69.4172C98.1644 69.4172 98.5284 69.3425 98.8737 69.1932C99.219 69.0345 99.4944 68.8385 99.6997 68.6052ZM103.672 70.2012V62.8932H104.904V65.9172H108.712V62.8932H109.944V70.2012H108.712V67.0092H104.904V70.2012H103.672ZM115.584 70.3412C115.033 70.3412 114.529 70.2432 114.072 70.0472C113.624 69.8418 113.232 69.5665 112.896 69.2212C112.569 68.8665 112.312 68.4605 112.126 68.0032C111.948 67.5458 111.86 67.0605 111.86 66.5472C111.86 65.8565 112.018 65.2265 112.336 64.6572C112.653 64.0878 113.092 63.6305 113.652 63.2852C114.221 62.9398 114.87 62.7672 115.598 62.7672C116.335 62.7672 116.974 62.9445 117.516 63.2992C118.066 63.6445 118.491 64.1018 118.79 64.6712C119.098 65.2312 119.252 65.8378 119.252 66.4912C119.252 66.5845 119.247 66.6778 119.238 66.7712C119.238 66.8552 119.233 66.9205 119.224 66.9672H113.162C113.199 67.4432 113.33 67.8678 113.554 68.2412C113.787 68.6052 114.086 68.8945 114.45 69.1092C114.814 69.3145 115.206 69.4172 115.626 69.4172C116.074 69.4172 116.494 69.3052 116.886 69.0812C117.287 68.8572 117.562 68.5632 117.712 68.1992L118.776 68.4932C118.617 68.8478 118.379 69.1652 118.062 69.4452C117.754 69.7252 117.385 69.9445 116.956 70.1032C116.536 70.2618 116.078 70.3412 115.584 70.3412ZM113.12 66.1132H118.104C118.066 65.6372 117.931 65.2172 117.698 64.8532C117.464 64.4892 117.166 64.2045 116.802 63.9992C116.438 63.7938 116.036 63.6912 115.598 63.6912C115.168 63.6912 114.772 63.7938 114.408 63.9992C114.044 64.2045 113.745 64.4892 113.512 64.8532C113.288 65.2172 113.157 65.6372 113.12 66.1132ZM126.795 71.9232V70.2012H121.027V62.8932H122.259V69.1232H125.647V62.8932H126.879V69.1232H127.887V71.9232H126.795ZM129.664 70.2012V62.8932H130.896V65.3852H132.716C133.575 65.3852 134.223 65.6045 134.662 66.0432C135.11 66.4725 135.334 67.0372 135.334 67.7372C135.334 68.2038 135.236 68.6238 135.04 68.9972C134.853 69.3705 134.573 69.6645 134.2 69.8792C133.827 70.0938 133.36 70.2012 132.8 70.2012H129.664ZM130.896 69.2352H132.632C132.977 69.2352 133.253 69.1698 133.458 69.0392C133.673 68.8992 133.831 68.7172 133.934 68.4932C134.037 68.2692 134.088 68.0265 134.088 67.7652C134.088 67.5132 134.041 67.2798 133.948 67.0652C133.855 66.8505 133.701 66.6778 133.486 66.5472C133.271 66.4165 132.977 66.3512 132.604 66.3512H130.896V69.2352ZM137.084 70.2012V62.8932H138.316V65.9032H139.128L141.424 62.8932H142.824L140.094 66.4352L143.146 70.2012H141.718L139.128 67.0372H138.316V70.2012H137.084ZM144.778 70.2012V62.8932H146.01V70.2012H144.778ZM144.778 61.5212V59.9812H146.01V61.5212H144.778ZM152.581 70.2012V60.2612H153.841V64.5592H155.171L158.447 60.2612H159.903L156.207 65.0772L160.155 70.2012H158.615L155.199 65.7072H153.841V70.2012H152.581ZM164.652 70.3412C164.101 70.3412 163.602 70.2432 163.154 70.0472C162.706 69.8418 162.318 69.5665 161.992 69.2212C161.665 68.8665 161.413 68.4605 161.236 68.0032C161.058 67.5458 160.97 67.0652 160.97 66.5612C160.97 66.0478 161.058 65.5625 161.236 65.1052C161.413 64.6478 161.665 64.2465 161.992 63.9012C162.318 63.5465 162.706 63.2712 163.154 63.0752C163.611 62.8698 164.115 62.7672 164.666 62.7672C165.207 62.7672 165.702 62.8698 166.15 63.0752C166.598 63.2712 166.985 63.5465 167.312 63.9012C167.648 64.2465 167.904 64.6478 168.082 65.1052C168.259 65.5625 168.348 66.0478 168.348 66.5612C168.348 67.0652 168.259 67.5458 168.082 68.0032C167.904 68.4605 167.652 68.8665 167.326 69.2212C166.999 69.5665 166.607 69.8418 166.15 70.0472C165.702 70.2432 165.202 70.3412 164.652 70.3412ZM162.23 66.5752C162.23 67.0792 162.337 67.5365 162.552 67.9472C162.776 68.3578 163.07 68.6845 163.434 68.9272C163.798 69.1605 164.204 69.2772 164.652 69.2772C165.1 69.2772 165.506 69.1558 165.87 68.9132C166.243 68.6705 166.537 68.3438 166.752 67.9332C166.976 67.5132 167.088 67.0512 167.088 66.5472C167.088 66.0432 166.976 65.5858 166.752 65.1752C166.537 64.7645 166.243 64.4378 165.87 64.1952C165.506 63.9525 165.1 63.8312 164.652 63.8312C164.204 63.8312 163.798 63.9572 163.434 64.2092C163.07 64.4518 162.776 64.7785 162.552 65.1892C162.337 65.5998 162.23 66.0618 162.23 66.5752ZM169.617 70.2572V69.1512C169.859 69.1512 170.074 69.0905 170.261 68.9692C170.457 68.8385 170.629 68.6238 170.779 68.3252C170.928 68.0172 171.045 67.5972 171.129 67.0652C171.222 66.5238 171.283 65.8378 171.311 65.0072L171.395 62.8932H176.365V70.2012H175.133V63.9852H172.487L172.459 65.1192C172.421 66.1178 172.337 66.9485 172.207 67.6112C172.076 68.2738 171.894 68.7965 171.661 69.1792C171.427 69.5618 171.138 69.8372 170.793 70.0052C170.457 70.1732 170.065 70.2572 169.617 70.2572ZM178.76 70.2012V62.9072H179.992V68.5492L184.08 62.8932H185.2V70.2012H183.968V64.6712L179.936 70.2012H178.76ZM191.033 70.3412C189.829 70.3412 188.919 69.9772 188.303 69.2492C187.687 68.5212 187.379 67.4945 187.379 66.1692C187.379 65.2638 187.454 64.5032 187.603 63.8872C187.752 63.2618 187.976 62.7485 188.275 62.3472C188.574 61.9365 188.942 61.6052 189.381 61.3532C189.82 61.0918 190.324 60.8772 190.893 60.7092L193.987 59.7712L194.057 60.8352L191.047 61.7452C190.534 61.9132 190.104 62.1278 189.759 62.3892C189.414 62.6505 189.143 62.9865 188.947 63.3972C188.751 63.8078 188.62 64.3352 188.555 64.9792C188.798 64.4845 189.162 64.1018 189.647 63.8312C190.132 63.5512 190.697 63.4112 191.341 63.4112C192.032 63.4112 192.624 63.5558 193.119 63.8452C193.623 64.1252 194.006 64.5218 194.267 65.0352C194.538 65.5392 194.673 66.1225 194.673 66.7852C194.673 67.4945 194.533 68.1152 194.253 68.6472C193.973 69.1792 193.562 69.5945 193.021 69.8932C192.48 70.1918 191.817 70.3412 191.033 70.3412ZM191.033 69.2772C191.789 69.2772 192.372 69.0578 192.783 68.6192C193.203 68.1712 193.413 67.5785 193.413 66.8412C193.413 66.1225 193.208 65.5392 192.797 65.0912C192.386 64.6432 191.798 64.4192 191.033 64.4192C190.585 64.4192 190.179 64.5125 189.815 64.6992C189.46 64.8858 189.176 65.1612 188.961 65.5252C188.756 65.8798 188.653 66.3185 188.653 66.8412C188.653 67.3078 188.742 67.7278 188.919 68.1012C189.106 68.4652 189.376 68.7545 189.731 68.9692C190.086 69.1745 190.52 69.2772 191.033 69.2772ZM196.581 70.2012V62.9072H197.813V68.5492L201.901 62.8932H203.021V70.2012H201.789V64.6712L197.757 70.2012H196.581Z" fill="#01594D"/>
<rect x="210" y="15" width="103" height="32" rx="16" fill="#01594D"/>
<path fill-rule="evenodd" clip-rule="evenodd" d="M227.464 25.4352C228.402 24.5162 229.674 24 231 24C232.326 24 233.598 24.5162 234.536 25.4352C235.473 26.3541 236 27.6004 236 28.9C236 32.575 231 38 231 38C231 38 226 32.575 226 28.9C226 27.6004 226.527 26.3541 227.464 25.4352ZM231 31.4004C232.105 31.4004 233 30.505 233 29.4004C233 28.2958 232.105 27.4004 231 27.4004C229.895 27.4004 229 28.2958 229 29.4004C229 30.505 229.895 31.4004 231 31.4004Z" fill="white"/>
<path d="M242.546 30.96C242.546 30.3533 242.649 29.7607 242.854 29.182C243.069 28.594 243.377 28.062 243.778 27.586C244.189 27.1007 244.688 26.718 245.276 26.438C245.864 26.1487 246.531 26.004 247.278 26.004C248.165 26.004 248.925 26.2093 249.56 26.62C250.195 27.0213 250.666 27.5393 250.974 28.174L249.98 28.818C249.784 28.398 249.532 28.0667 249.224 27.824C248.925 27.572 248.599 27.3947 248.244 27.292C247.899 27.1893 247.558 27.138 247.222 27.138C246.671 27.138 246.181 27.25 245.752 27.474C245.332 27.698 244.977 27.9967 244.688 28.37C244.399 28.7433 244.179 29.1633 244.03 29.63C243.89 30.0873 243.82 30.5493 243.82 31.016C243.82 31.5293 243.904 32.024 244.072 32.5C244.249 32.976 244.492 33.396 244.8 33.76C245.108 34.124 245.472 34.4133 245.892 34.628C246.312 34.8427 246.769 34.95 247.264 34.95C247.609 34.95 247.964 34.8893 248.328 34.768C248.692 34.6467 249.033 34.46 249.35 34.208C249.667 33.9467 249.919 33.6107 250.106 33.2L251.156 33.774C250.951 34.2687 250.633 34.6887 250.204 35.034C249.775 35.3793 249.294 35.6407 248.762 35.818C248.239 35.9953 247.721 36.084 247.208 36.084C246.527 36.084 245.901 35.9393 245.332 35.65C244.763 35.3513 244.268 34.9593 243.848 34.474C243.437 33.9793 243.115 33.4287 242.882 32.822C242.658 32.206 242.546 31.5853 242.546 30.96ZM254.735 36V29.784H252.215V28.692H258.487V29.784H255.967V36H254.735ZM264.079 36.14C263.481 36.14 262.949 35.9907 262.483 35.692C262.016 35.3933 261.647 35.0153 261.377 34.558V38.982H260.145V28.692H261.237V30.064C261.526 29.616 261.904 29.2567 262.371 28.986C262.837 28.706 263.346 28.566 263.897 28.566C264.401 28.566 264.863 28.6687 265.283 28.874C265.703 29.0793 266.067 29.3593 266.375 29.714C266.683 30.0687 266.921 30.4747 267.089 30.932C267.266 31.38 267.355 31.8513 267.355 32.346C267.355 33.0367 267.215 33.6713 266.935 34.25C266.664 34.8287 266.281 35.2907 265.787 35.636C265.292 35.972 264.723 36.14 264.079 36.14ZM263.701 35.076C264.065 35.076 264.391 35.0013 264.681 34.852C264.979 34.6933 265.231 34.488 265.437 34.236C265.651 33.9747 265.815 33.6807 265.927 33.354C266.039 33.0273 266.095 32.6913 266.095 32.346C266.095 31.982 266.029 31.6367 265.899 31.31C265.777 30.9833 265.6 30.694 265.367 30.442C265.143 30.19 264.877 29.994 264.569 29.854C264.27 29.7047 263.943 29.63 263.589 29.63C263.365 29.63 263.131 29.672 262.889 29.756C262.655 29.84 262.431 29.9613 262.217 30.12C262.002 30.2693 261.82 30.442 261.671 30.638C261.521 30.834 261.423 31.044 261.377 31.268V33.354C261.517 33.6713 261.703 33.9607 261.937 34.222C262.17 34.4833 262.441 34.6933 262.749 34.852C263.057 35.0013 263.374 35.076 263.701 35.076ZM269.287 36V28.692H270.519V36H269.287ZM269.287 27.32V25.78H270.519V27.32H269.287ZM272.29 36.056V34.95C272.532 34.95 272.747 34.8893 272.934 34.768C273.13 34.6373 273.302 34.4227 273.452 34.124C273.601 33.816 273.718 33.396 273.802 32.864C273.895 32.3227 273.956 31.6367 273.984 30.806L274.068 28.692H279.038V36H277.806V29.784H275.16L275.132 30.918C275.094 31.9167 275.01 32.7473 274.88 33.41C274.749 34.0727 274.567 34.5953 274.334 34.978C274.1 35.3607 273.811 35.636 273.466 35.804C273.13 35.972 272.738 36.056 272.29 36.056ZM281.434 36V28.692H282.666V31.702H283.478L285.774 28.692H287.174L284.444 32.234L287.496 36H286.068L283.478 32.836H282.666V36H281.434ZM289.113 36V28.706H290.345V34.348L294.433 28.692H295.553V36H294.321V30.47L290.289 36H289.113Z" fill="white"/>
<rect x="210" y="15" width="103" height="32" rx="16" stroke="#4F998F" stroke-width="1.4"/>
</svg>
