<svg width="18" height="18" viewBox="0 0 18 18" fill="none" xmlns="http://www.w3.org/2000/svg">
<circle cx="9" cy="9" r="8" stroke="#131415" stroke-width="1.2"/>
<path d="M9 16.5C7.34315 16.5 6 13.1421 6 9C6 4.85786 7.34315 1.5 9 1.5" stroke="#131415" stroke-width="1.2"/>
<path d="M2.50342 5C3.8002 5.8967 6.22399 6.5 9.00005 6.5C11.7275 6.5 14.1149 5.91766 15.4275 5.04686" stroke="#131415" stroke-width="1.2"/>
<path d="M15.4272 13C14.1305 12.1033 11.7067 11.5 8.93061 11.5C6.20319 11.5 3.8158 12.0823 2.50317 12.9531" stroke="#131415" stroke-width="1.2"/>
<path d="M9 16.5C10.6569 16.5 12 13.1421 12 9C12 4.85786 10.6569 1.5 9 1.5" stroke="#131415" stroke-width="1.2"/>
</svg>
