<svg width="56" height="56" viewBox="0 0 56 56" fill="none" xmlns="http://www.w3.org/2000/svg">
<g id="Frame" clip-path="url(#clip0_117_91)">
<g id="Group">
<path id="Vector" d="M37.6269 26.5747L37.2045 26.9971H30.4113L32.8047 24.6036L34.2127 23.1957L35.0222 22.4213H41.8154L37.6269 26.5747Z" fill="#01594D"/>
<path id="Vector_2" d="M18.7957 29.0032H25.5889L21.0483 33.5438H14.2551L18.7957 29.0032Z" fill="#01594D"/>
<path id="Vector_3" d="M26.9966 30.4113V37.2045L22.4208 41.8154V34.987L23.1952 34.2126L24.6031 32.8047L26.9966 30.4113Z" fill="#01594D"/>
<path id="Vector_4" d="M29.0029 37.2045V30.4113L31.3963 32.8047L32.8043 34.2126L33.5786 35.0222V41.8154L29.4253 37.6268L29.0029 37.2045Z" fill="#01594D"/>
<path id="Vector_5" d="M34.2123 32.8046L32.8043 31.3967L30.4109 29.0032H37.2041L37.6265 29.4256L41.7446 33.5438H34.9514L34.2123 32.8046Z" fill="#01594D"/>
<path id="Vector_6" d="M21.0131 22.4213L21.7875 23.1957L23.1954 24.6036L25.5889 26.9971H18.7957L14.1847 22.4213H21.0131Z" fill="#01594D"/>
<path id="Vector_7" d="M23.1952 21.7876L22.4208 20.9781V14.1849L26.5742 18.3734L26.9966 18.7958V25.589L24.6031 23.1956L23.1952 21.7876Z" fill="#01594D"/>
<path id="Vector_8" d="M29.0029 18.7958L29.4253 18.3734L33.5786 14.1849V20.9781L29.0029 25.589V18.7958Z" fill="#01594D"/>
<path id="Vector_9" d="M35.6206 14.2202H41.8154V20.415H35.6206V14.2202Z" fill="#01594D"/>
<path id="Vector_10" d="M14.2549 14.2202H20.4497V20.415H14.2549V14.2202Z" fill="#01594D"/>
<path id="Vector_11" d="M35.6206 35.5501H41.8154V41.745H35.6206V35.5501Z" fill="#01594D"/>
<path id="Vector_12" d="M14.2549 35.5501H20.4497V41.745H14.2549V35.5501Z" fill="#01594D"/>
<path id="Vector_13" d="M8.09527 36.43C9.1864 38.9995 10.7351 41.3226 12.7414 43.2937C14.7477 45.2647 17.0356 46.8487 19.605 47.9398C20.8017 48.4678 22.0689 48.8549 23.336 49.1365L24.1104 51.1076C14.2901 49.4533 6.51136 41.6745 4.89225 31.8543L6.86334 32.6639C7.14492 33.8958 7.5673 35.1629 8.09527 36.43Z" fill="#01594D"/>
<path id="Vector_14" d="M47.9396 19.5703C46.8485 17.0008 45.2998 14.6777 43.2935 12.7067C41.3224 10.7356 38.9994 9.15166 36.4299 8.06052C35.2332 7.53255 33.966 7.14537 32.6989 6.86379L31.9246 4.8927C41.6744 6.54701 49.3828 14.2554 51.0723 24.0404L49.1012 23.266C48.8196 21.9989 48.4324 20.767 47.9396 19.5703Z" fill="#01594D"/>
<path id="Vector_15" d="M36.4299 47.9045C38.9993 46.8134 41.3224 45.2647 43.2935 43.2584C45.2646 41.2521 46.8485 38.9994 47.9396 36.43C48.4676 35.198 48.8548 33.9309 49.1363 32.6286L51.1074 31.819C49.4883 41.6745 41.7448 49.4532 31.8893 51.1075L32.6637 49.1364C33.966 48.8197 35.1979 48.4325 36.4299 47.9045Z" fill="#01594D"/>
<path id="Vector_16" d="M19.5698 8.06052C17.0004 9.15166 14.6773 10.7004 12.7062 12.7067C10.7351 14.6777 9.1512 17.0008 8.06007 19.5703C7.5673 20.767 7.18012 21.9989 6.89853 23.2308L4.92744 24.0052C6.58175 14.2202 14.3253 6.51181 24.1104 4.8927L23.336 6.86379C22.0337 7.18057 20.8017 7.56775 19.5698 8.06052Z" fill="#01594D"/>
<path id="Vector_17" d="M43.8567 32.8048L39.0346 27.9826L43.9271 23.1253L49.4532 25.3076L51.3187 26.0467L56 27.877L51.3539 29.7777L49.4884 30.5521L43.8567 32.8048Z" fill="#01594D"/>
<path id="Vector_18" d="M28.0172 16.9655L23.1599 12.1082L25.3774 6.54689L26.1165 4.68139L28.0172 6.10352e-05L29.8827 4.68139L30.6219 6.54689L32.8394 12.1082L28.0172 16.9655Z" fill="#01594D"/>
<path id="Vector_19" d="M4.68075 26.0467L6.54624 25.3076L12.0723 23.1253L16.9648 27.9826L12.1427 32.8048L6.54624 30.5521L4.68075 29.7777L-0.000587463 27.9122L4.68075 26.0467Z" fill="#01594D"/>
<path id="Vector_20" d="M28.0172 39.0347L32.8394 43.892L30.6219 49.4533L29.8827 51.3188L28.0172 56.0001L26.1165 51.3188L25.3774 49.4533L23.1599 43.892L28.0172 39.0347Z" fill="#01594D"/>
</g>
</g>
<defs>
<clipPath id="clip0_117_91">
<rect width="56" height="56" fill="white" transform="matrix(-1 0 0 1 56 0)"/>
</clipPath>
</defs>
</svg>
