<svg width="189" height="56" viewBox="0 0 189 56" fill="none" xmlns="http://www.w3.org/2000/svg">
<g clip-path="url(#clip0_117_90)">
<path d="M37.6269 26.5747L37.2045 26.9971H30.4113L32.8047 24.6036L34.2127 23.1957L35.0222 22.4213H41.8154L37.6269 26.5747Z" fill="#01594D"/>
<path d="M18.7957 29.0032H25.5889L21.0483 33.5438H14.2551L18.7957 29.0032Z" fill="#01594D"/>
<path d="M26.9966 30.4113V37.2045L22.4208 41.8154V34.987L23.1952 34.2126L24.6031 32.8047L26.9966 30.4113Z" fill="#01594D"/>
<path d="M29.0029 37.2045V30.4113L31.3963 32.8047L32.8043 34.2126L33.5786 35.0222V41.8154L29.4253 37.6268L29.0029 37.2045Z" fill="#01594D"/>
<path d="M34.2123 32.8046L32.8043 31.3967L30.4109 29.0032H37.2041L37.6265 29.4256L41.7446 33.5438H34.9514L34.2123 32.8046Z" fill="#01594D"/>
<path d="M21.0131 22.4213L21.7875 23.1957L23.1954 24.6036L25.5889 26.9971H18.7957L14.1847 22.4213H21.0131Z" fill="#01594D"/>
<path d="M23.1952 21.7876L22.4208 20.9781V14.1849L26.5742 18.3734L26.9966 18.7958V25.589L24.6031 23.1956L23.1952 21.7876Z" fill="#01594D"/>
<path d="M29.0029 18.7958L29.4253 18.3734L33.5786 14.1849V20.9781L29.0029 25.589V18.7958Z" fill="#01594D"/>
<path d="M35.6206 14.2202H41.8154V20.415H35.6206V14.2202Z" fill="#01594D"/>
<path d="M14.2549 14.2202H20.4497V20.415H14.2549V14.2202Z" fill="#01594D"/>
<path d="M35.6206 35.5501H41.8154V41.745H35.6206V35.5501Z" fill="#01594D"/>
<path d="M14.2549 35.5501H20.4497V41.745H14.2549V35.5501Z" fill="#01594D"/>
<path d="M8.09527 36.43C9.1864 38.9995 10.7351 41.3226 12.7414 43.2937C14.7477 45.2647 17.0356 46.8487 19.605 47.9398C20.8017 48.4678 22.0689 48.8549 23.336 49.1365L24.1104 51.1076C14.2901 49.4533 6.51136 41.6745 4.89225 31.8543L6.86334 32.6639C7.14492 33.8958 7.5673 35.1629 8.09527 36.43Z" fill="#01594D"/>
<path d="M47.9396 19.5703C46.8485 17.0008 45.2998 14.6777 43.2935 12.7067C41.3224 10.7356 38.9994 9.15166 36.4299 8.06052C35.2332 7.53255 33.966 7.14537 32.6989 6.86379L31.9246 4.8927C41.6744 6.54701 49.3828 14.2554 51.0723 24.0404L49.1012 23.266C48.8196 21.9989 48.4324 20.767 47.9396 19.5703Z" fill="#01594D"/>
<path d="M36.4299 47.9045C38.9993 46.8134 41.3224 45.2647 43.2935 43.2584C45.2646 41.2521 46.8485 38.9994 47.9396 36.43C48.4676 35.198 48.8548 33.9309 49.1363 32.6286L51.1074 31.819C49.4883 41.6745 41.7448 49.4532 31.8893 51.1075L32.6637 49.1364C33.966 48.8197 35.1979 48.4325 36.4299 47.9045Z" fill="#01594D"/>
<path d="M19.5698 8.06052C17.0004 9.15166 14.6773 10.7004 12.7062 12.7067C10.7351 14.6777 9.1512 17.0008 8.06007 19.5703C7.5673 20.767 7.18012 21.9989 6.89853 23.2308L4.92744 24.0052C6.58175 14.2202 14.3253 6.51181 24.1104 4.8927L23.336 6.86379C22.0337 7.18057 20.8017 7.56775 19.5698 8.06052Z" fill="#01594D"/>
<path d="M43.8567 32.8048L39.0346 27.9826L43.9271 23.1253L49.4532 25.3076L51.3187 26.0467L56 27.877L51.3539 29.7777L49.4884 30.5521L43.8567 32.8048Z" fill="#01594D"/>
<path d="M28.0172 16.9655L23.1599 12.1082L25.3774 6.54689L26.1165 4.68139L28.0172 6.10352e-05L29.8827 4.68139L30.6219 6.54689L32.8394 12.1082L28.0172 16.9655Z" fill="#01594D"/>
<path d="M4.68075 26.0467L6.54624 25.3076L12.0723 23.1253L16.9648 27.9826L12.1427 32.8048L6.54624 30.5521L4.68075 29.7777L-0.000587463 27.9122L4.68075 26.0467Z" fill="#01594D"/>
<path d="M28.0172 39.0347L32.8394 43.892L30.6219 49.4533L29.8827 51.3188L28.0172 56.0001L26.1165 51.3188L25.3774 49.4533L23.1599 43.892L28.0172 39.0347Z" fill="#01594D"/>
</g>
<path d="M69.4058 36.1492V20.0484H76.8159V21.5741H71.4762V24.2984H74.1188C74.8272 24.2984 75.4174 24.4074 75.8897 24.6253C76.3619 24.8432 76.716 25.1974 76.9521 25.6878C77.2064 26.1782 77.3335 26.832 77.3335 27.6493V32.09C77.3335 32.8891 77.2609 33.552 77.1156 34.0787C76.9703 34.6054 76.7524 35.0231 76.4618 35.3319C76.1893 35.6225 75.8352 35.8314 75.3993 35.9585C74.9815 36.0856 74.473 36.1492 73.8737 36.1492H69.4058ZM73.4378 35.005C73.9645 35.005 74.355 34.9051 74.6092 34.7053C74.8635 34.5055 75.036 34.224 75.1268 33.8608C75.2177 33.4975 75.2631 33.0889 75.2631 32.6348V27.8945C75.2631 27.4949 75.2177 27.1226 75.1268 26.7775C75.0542 26.4143 74.8817 26.1328 74.6092 25.933C74.355 25.715 73.9554 25.6061 73.4105 25.6061H71.4762V35.005H73.4378Z" fill="#1F2023"/>
<path d="M83.2655 36.3399C82.3938 36.3399 81.6673 36.2309 81.0861 36.013C80.5231 35.795 80.0963 35.3864 79.8057 34.787C79.5332 34.1877 79.397 33.3431 79.397 32.2534V26.1237C79.397 24.7797 79.6967 23.8352 80.296 23.2904C80.9135 22.7274 81.9034 22.4458 83.2655 22.4458C84.6096 22.4458 85.5812 22.7183 86.1806 23.2631C86.7981 23.808 87.1068 24.7615 87.1068 26.1237V32.2534C87.1068 33.325 86.9706 34.1604 86.6982 34.7598C86.4258 35.3591 85.999 35.7769 85.4178 36.013C84.8547 36.2309 84.1373 36.3399 83.2655 36.3399ZM83.2655 35.0595C83.9012 35.0595 84.3553 34.896 84.6277 34.5691C84.9001 34.2422 85.0364 33.6519 85.0364 32.7983V25.9875C85.0364 25.1702 84.9001 24.589 84.6277 24.2439C84.3734 23.8988 83.9194 23.7263 83.2655 23.7263C82.6299 23.7263 82.1667 23.8988 81.8761 24.2439C81.6037 24.5708 81.4675 25.152 81.4675 25.9875V32.7983C81.4675 33.6519 81.6037 34.2422 81.8761 34.5691C82.1667 34.896 82.6299 35.0595 83.2655 35.0595Z" fill="#1F2023"/>
<path d="M89.2154 36.1492V22.691H91.068V32.3896L95.1817 22.691H97.0342V36.1492H95.2089V25.9875C94.5006 27.6947 93.7923 29.3929 93.084 31.082C92.3938 32.7529 91.6764 34.442 90.9318 36.1492H89.2154ZM93.084 21.2744C92.3575 21.2744 91.7945 21.1382 91.3949 20.8657C90.9953 20.5751 90.7138 20.2391 90.5504 19.8577C90.4051 19.4582 90.3233 19.0949 90.3052 18.768H91.5039C91.5583 19.2584 91.7309 19.6216 92.0215 19.8577C92.3302 20.0938 92.6844 20.2119 93.084 20.2119C93.538 20.2119 93.9104 20.1029 94.2009 19.885C94.4915 19.6489 94.6641 19.2765 94.7186 18.768H95.9173C95.8991 19.1676 95.7901 19.5581 95.5904 19.9395C95.4087 20.3209 95.1091 20.6387 94.6913 20.893C94.2918 21.1472 93.756 21.2744 93.084 21.2744Z" fill="#1F2023"/>
<path d="M99.2188 36.1492V22.6638H101.289V28.2487C101.798 27.1952 102.397 26.269 103.087 25.4698C103.778 24.6707 104.495 24.0532 105.24 23.6173C106.002 23.1814 106.702 22.9725 107.337 22.9907V24.4074C106.865 24.5163 106.438 24.707 106.057 24.9795C105.675 25.2519 105.33 25.5607 105.022 25.9057C104.804 26.1418 104.595 26.3961 104.395 26.6685C104.213 26.9228 104.041 27.1952 103.877 27.4858L107.256 36.1492H104.885L102.107 29.747C101.943 30.0013 101.78 30.2828 101.616 30.5916C101.471 30.9003 101.362 31.1274 101.289 31.2727V36.1492H99.2188Z" fill="#1F2023"/>
<path d="M112.956 36.3399C112.085 36.3399 111.358 36.2309 110.777 36.013C110.214 35.795 109.787 35.3864 109.497 34.787C109.224 34.1877 109.088 33.3431 109.088 32.2534V26.1237C109.088 24.7797 109.388 23.8352 109.987 23.2904C110.604 22.7274 111.594 22.4458 112.956 22.4458C114.3 22.4458 115.272 22.7183 115.871 23.2631C116.489 23.808 116.798 24.7615 116.798 26.1237V32.2534C116.798 33.325 116.662 34.1604 116.389 34.7598C116.117 35.3591 115.69 35.7769 115.109 36.013C114.546 36.2309 113.828 36.3399 112.956 36.3399ZM112.956 35.0595C113.592 35.0595 114.046 34.896 114.319 34.5691C114.591 34.2422 114.727 33.6519 114.727 32.7983V25.9875C114.727 25.1702 114.591 24.589 114.319 24.2439C114.064 23.8988 113.61 23.7263 112.956 23.7263C112.321 23.7263 111.858 23.8988 111.567 24.2439C111.295 24.5708 111.158 25.152 111.158 25.9875V32.7983C111.158 33.6519 111.295 34.2422 111.567 34.5691C111.858 34.896 112.321 35.0595 112.956 35.0595Z" fill="#1F2023"/>
<path d="M123.175 36.1492V20.0484H125.736L128.869 32.4169L132.056 20.0484H134.535V36.1492H132.683V23.3994L129.604 36.1492H128.133L125.055 23.3994V36.1492H123.175Z" fill="#1F2023"/>
<path d="M139.881 36.3399C139.445 36.3399 139.019 36.2763 138.601 36.1492C138.183 36.0402 137.829 35.7769 137.538 35.3591C137.248 34.9414 137.102 34.2876 137.102 33.3976V31.9537C137.102 31.0638 137.366 30.3464 137.893 29.8015C138.437 29.2567 139.209 28.7663 140.208 28.3304C140.808 28.058 141.298 27.8128 141.679 27.5948C142.061 27.3587 142.342 27.1044 142.524 26.832C142.705 26.5414 142.796 26.16 142.796 25.6878V25.0612C142.796 24.6616 142.715 24.362 142.551 24.1622C142.406 23.9442 142.197 23.7898 141.925 23.699C141.67 23.6082 141.389 23.5628 141.08 23.5628C140.353 23.5628 139.872 23.7717 139.636 24.1894C139.418 24.589 139.309 25.2065 139.309 26.042V27.1862H137.429V25.8512C137.429 25.1792 137.52 24.589 137.702 24.0804C137.883 23.5537 138.238 23.1451 138.764 22.8545C139.291 22.5457 140.063 22.3914 141.08 22.3914C142.152 22.3914 142.96 22.5094 143.505 22.7455C144.049 22.9635 144.413 23.2904 144.594 23.7263C144.794 24.1622 144.894 24.707 144.894 25.3609V36.1492H142.824V34.5146C142.624 35.114 142.242 35.568 141.679 35.8768C141.134 36.1855 140.535 36.3399 139.881 36.3399ZM140.699 34.9505C141.443 34.9505 141.97 34.6962 142.279 34.1877C142.606 33.661 142.769 32.9527 142.769 32.0627V27.9762C142.606 28.2487 142.333 28.4938 141.952 28.7118C141.589 28.9116 141.216 29.1204 140.835 29.3384C140.29 29.6653 139.863 30.0013 139.554 30.3464C139.264 30.6915 139.118 31.1728 139.118 31.7903V32.9617C139.118 33.5429 139.2 33.9788 139.364 34.2694C139.527 34.56 139.727 34.7507 139.963 34.8415C140.217 34.9142 140.462 34.9505 140.699 34.9505Z" fill="#1F2023"/>
<path d="M147.082 36.1492V22.6638H149.152V28.3031H152.939V22.6638H154.982V36.1492H152.939V29.8833H149.152V36.1492H147.082Z" fill="#1F2023"/>
<path d="M156.621 39.1187V34.896H157.792C158.01 34.8597 158.228 34.7598 158.446 34.5963C158.664 34.4329 158.855 34.1877 159.018 33.8608C159.2 33.5157 159.318 33.0707 159.372 32.5258L160.38 22.691H167.218V34.896H169.371V39.1187H167.6V36.5034H158.392V39.1187H156.621ZM160.653 34.896H165.012V24.1894H162.287L161.443 32.1444C161.388 32.6348 161.307 33.1615 161.198 33.7245C161.107 34.2694 160.925 34.6599 160.653 34.896Z" fill="#1F2023"/>
<path d="M171.271 39.3094V22.6638H173.233L173.287 23.808C173.451 23.4629 173.705 23.1542 174.05 22.8817C174.413 22.6093 175.004 22.4731 175.821 22.4731C176.62 22.4731 177.247 22.6093 177.701 22.8817C178.155 23.136 178.482 23.5174 178.681 24.026C178.881 24.5163 178.981 25.1157 178.981 25.824V32.4441C178.981 33.2614 178.89 33.9607 178.709 34.5418C178.527 35.123 178.209 35.568 177.755 35.8768C177.301 36.1855 176.656 36.3399 175.821 36.3399C175.149 36.3399 174.613 36.2309 174.214 36.013C173.814 35.7769 173.514 35.5044 173.314 35.1957V39.3094H171.271ZM175.113 35.114C175.567 35.114 175.912 35.0504 176.148 34.9233C176.384 34.7961 176.556 34.6236 176.665 34.4056C176.793 34.1877 176.865 33.9425 176.883 33.6701C176.902 33.3976 176.911 33.107 176.911 32.7983V26.0964C176.911 25.7877 176.902 25.4971 176.883 25.2247C176.865 24.9522 176.793 24.707 176.665 24.4891C176.556 24.253 176.384 24.0714 176.148 23.9442C175.912 23.8171 175.567 23.7535 175.113 23.7535C174.677 23.7535 174.332 23.8352 174.077 23.9987C173.841 24.1622 173.669 24.371 173.56 24.6253C173.451 24.8614 173.387 25.1338 173.369 25.4426C173.351 25.7332 173.342 26.0056 173.342 26.2599V32.9345C173.342 33.3522 173.378 33.7245 173.451 34.0515C173.523 34.3784 173.687 34.6417 173.941 34.8415C174.195 35.0231 174.586 35.114 175.113 35.114Z" fill="#1F2023"/>
<path d="M181.083 36.1492V22.691H182.935V32.3896L187.049 22.691H188.901V36.1492H187.076V25.9875C186.368 27.6947 185.659 29.3929 184.951 31.082C184.261 32.7529 183.544 34.442 182.799 36.1492H181.083Z" fill="#1F2023"/>
<defs>
<clipPath id="clip0_117_90">
<rect width="56" height="56" fill="white" transform="matrix(-1 0 0 1 56 0)"/>
</clipPath>
</defs>
</svg>
