<svg width="401" height="275" viewBox="0 0 401 275" fill="none" xmlns="http://www.w3.org/2000/svg">
<path d="M173.513 250.573C173.491 250.764 173.929 250.433 174.113 250.573C174.297 250.713 174.391 250.479 174.575 250.573C174.759 250.668 175.085 251.077 175.037 250.501C174.991 249.925 174.482 249.782 174.668 249.271C174.853 248.757 174.631 248.757 175.042 248.431C175.453 248.106 175.685 247.917 175.685 247.454C175.685 246.992 175.224 246.663 175.13 246.058C175.037 245.452 175.314 245.218 175.314 244.57C175.314 243.921 175.592 244.198 175.314 243.593C175.037 242.987 174.805 242.707 174.596 242.801C174.388 242.896 174.249 242.847 174.065 243.315C173.881 243.781 173.649 244.201 173.51 244.061C173.371 243.921 173.555 243.921 173.51 243.641C173.465 243.361 173.459 242.785 173.459 242.785C173.459 242.785 173.187 242.395 173.051 242.785C172.912 243.176 172.683 243.361 172.683 243.361C172.683 243.361 172.082 242.933 172.082 242.61C172.082 242.287 172.405 241.73 172.637 241.499C172.867 241.268 173.884 240.476 173.884 240.476L174.426 240.022C174.426 240.022 174.137 239.847 173.884 240.022C173.63 240.196 173.005 240.614 173.005 240.614C173.005 240.614 172.002 240.684 171.932 240.231C171.863 239.777 171.898 239.08 171.932 238.485C171.967 237.893 171.956 237.438 171.892 237.053C171.828 236.671 171.308 235.552 171.447 235.272C171.585 234.992 171.93 234.47 172.071 234.295C172.21 234.12 172.349 233.808 172.175 233.493C172.002 233.178 171.724 232.828 171.967 232.621C172.21 232.414 172.592 232.271 172.731 232.201C172.869 232.131 173.39 231.434 173.39 231.434C173.39 231.434 173.769 231.749 173.769 231.994C173.769 232.239 173.758 232.064 173.555 232.519C173.355 232.974 173.112 233.183 173.251 233.845C173.39 234.51 173.942 234.962 174.324 235.242C174.703 235.522 174.983 235.697 175.053 236.289C175.122 236.881 175.261 237.301 175.122 237.651C174.983 238 174.463 238.348 174.949 238.42C175.432 238.49 175.688 238.455 175.688 238.455C175.688 238.455 175.699 238.7 175.688 238.805C175.677 238.91 175.469 239.05 175.4 239.155C175.33 239.26 175.469 239.4 175.955 239.015C176.438 238.633 176.822 238.28 177.202 237.968C177.583 237.653 177.997 237.408 178.138 237.061C178.277 236.711 178.59 236.259 178.451 235.91C178.312 235.56 178.277 235.385 177.863 235.455C177.447 235.525 177.068 235.63 176.79 235.455C176.513 235.28 176.027 235.14 176.235 234.653C176.443 234.166 176.79 233.676 177.239 233.641C177.69 233.606 178.381 233.571 178.485 233.781C178.59 233.991 178.798 234.163 178.937 234.163C179.075 234.163 179.284 234.513 179.353 234.058C179.422 233.603 179.732 232.836 180.012 232.486C180.29 232.137 180.359 232.207 180.495 231.789C180.634 231.37 180.565 231.545 180.495 231.16C180.426 230.778 180.148 230.845 180.357 230.53C180.565 230.215 180.517 230.6 180.575 230.075C180.634 229.55 180.461 229.028 180.391 228.888C180.322 228.748 179.94 228.818 179.94 228.506C179.94 228.194 180.114 227.634 180.252 227.529C180.391 227.424 180.61 227.354 180.586 227.912C180.565 228.471 180.301 228.681 180.586 229.063C180.874 229.445 181.115 229.97 181.36 230.25C181.603 230.53 182.089 230.705 182.193 230.88C182.297 231.055 182.471 231.472 182.366 231.682C182.262 231.892 179.596 234.58 179.526 234.822C179.457 235.067 179.043 235.172 179.457 235.067C179.873 234.962 182.919 231.854 183.061 231.717C183.199 231.577 183.269 231.192 183.234 230.915C183.199 230.635 183.303 229.518 183.613 229.448C183.925 229.378 184.168 229.308 184.168 229.83V230.67C184.168 230.67 184.793 230.775 185.311 230.078C185.831 229.381 185.97 228.891 186.349 228.296C186.728 227.704 186.974 227.18 187.561 226.515C188.148 225.85 192.235 221.103 192.235 221.103C192.235 221.103 192.2 220.511 192.061 220.473C191.922 220.438 191.578 220.648 191.332 220.473C191.09 220.298 190.812 220.193 190.881 219.704C190.951 219.217 190.951 219.074 190.881 218.762C190.812 218.447 190.534 217.575 190.361 217.295C190.187 217.015 189.84 216.703 189.565 216.665C189.288 216.63 188.906 216.665 188.698 216.49C188.49 216.316 188.594 216.036 188.007 215.721C187.419 215.406 187.107 215.234 186.587 215.161C186.066 215.088 186.031 215.616 185.444 214.706C184.857 213.799 184.406 213.17 184.232 212.4C184.059 211.63 184.406 211.143 184.857 211.073C185.308 211.003 185.62 210.653 185.828 210.793C186.037 210.933 186.488 210.863 186.52 211.528C186.555 212.193 186.832 213.03 186.832 213.275C186.832 213.52 186.971 213.729 186.971 213.729C186.971 213.729 187.35 214.044 187.318 213.624C187.283 213.205 187.144 212.823 187.283 212.648C187.422 212.473 187.387 211.776 187.804 211.636C188.22 211.496 188.703 211.776 188.703 212.16C188.703 212.545 188.634 212.615 188.495 213C188.356 213.382 188.426 213.77 188.53 214.082C188.634 214.394 188.703 214.362 189.013 214.432C189.325 214.502 189.846 215.062 190.155 215.374C190.468 215.689 190.676 216.246 190.676 216.246L190.468 216.351C190.468 216.351 190.193 216.456 190.398 216.7C190.606 216.945 190.572 217.435 190.849 217.677C191.127 217.922 191.3 218.237 191.474 218.269C191.647 218.304 191.89 218.269 192.029 218.304C192.168 218.339 192.029 218.549 192.237 218.864C192.446 219.179 192.654 219.494 192.654 219.494L193.174 219.354C193.174 219.354 193.452 219.179 193.591 218.794C193.729 218.409 193.66 218.269 194.007 217.712C194.354 217.155 194.594 216.735 194.802 216.351C195.011 215.968 195.39 215.511 195.635 214.989C195.878 214.464 196.222 214.082 196.19 213.802C196.156 213.522 195.635 212.58 195.358 212.265C195.08 211.951 194.907 211.916 194.941 211.706C194.976 211.496 195.115 211.356 195.115 211.146C195.115 210.936 195.08 211.046 195.115 210.767C195.149 210.484 195.635 209.717 195.635 209.717C195.635 209.717 196.022 209.542 196.19 210.487C196.361 211.428 196.396 211.533 196.396 211.708C196.396 211.883 196.708 212.825 196.708 212.825C196.708 212.825 196.639 213.245 196.916 213.07C197.194 212.895 197.92 212.23 198.128 211.883C198.337 211.533 198.611 211.219 198.753 210.906C198.892 210.592 199.1 210.419 199.065 210.067C199.031 209.717 198.686 209.265 198.753 208.985C198.822 208.705 199.175 208.32 199.068 208.008C198.958 207.693 198.718 207.343 198.649 206.926C198.579 206.506 198.441 206.192 198.579 205.879C198.718 205.565 199.551 205.355 200.104 204.868C200.659 204.38 201.281 203.436 201.732 203.331C202.183 203.226 203.221 203.086 203.881 202.876C204.54 202.666 205.196 202.701 205.752 202.211C206.307 201.724 206.48 202.002 206.547 201.372C206.617 200.742 206.512 199.138 206.374 198.336C206.235 197.534 205.923 197.08 205.995 196.59C206.064 196.103 206.203 195.855 206.099 195.333C205.995 194.808 206.029 194.846 205.682 194.531C205.335 194.216 204.849 194.111 204.644 193.554C204.436 192.994 204.47 192.715 204.265 192.507C204.057 192.297 203.397 192.02 203.397 192.02C203.397 192.02 202.81 191.915 202.81 191.81C202.81 191.705 202.637 191.53 202.706 191.428C202.775 191.323 202.984 191.393 202.984 191.183C202.984 190.973 203.053 191.288 202.81 190.659C202.567 190.029 201.772 189.752 201.911 188.845C202.049 187.938 201.98 185.704 201.98 185.704C201.98 185.704 202.223 185.844 202.396 186.296C202.57 186.751 202.952 187.553 202.984 188.215C203.018 188.88 202.984 189.16 203.192 189.262C203.4 189.367 203.883 189.507 203.987 189.749C204.091 189.994 204.23 191.321 204.23 191.321C204.23 191.321 203.918 191.495 204.091 191.565C204.265 191.635 204.47 191.565 204.82 191.565C205.17 191.565 205.341 191.461 205.375 191.915C205.41 192.37 205.653 192.822 205.792 192.927C205.931 193.032 206.069 193.207 206.312 193.487C206.555 193.767 206.867 193.837 206.763 194.394C206.659 194.954 206.902 195.651 207.041 195.86C207.18 196.07 207.284 195.79 207.284 196.557C207.284 197.324 207.145 198.476 207.284 199.351C207.423 200.223 207.11 200.328 207.284 200.678C207.457 201.027 207.457 201.307 207.804 201.517C208.151 201.727 208.325 201.832 208.672 201.899C209.019 201.969 209.4 202.109 209.988 202.281C210.575 202.456 210.925 202.526 211.13 202.386C211.338 202.246 211.613 202.701 211.613 201.932V199.94C211.613 199.485 211.752 199.243 211.613 198.893C211.475 198.544 211.197 198.301 211.44 198.159C211.683 198.019 212.273 197.879 212.339 198.404C212.409 198.928 212.443 199.31 212.339 199.835C212.235 200.36 212.131 200.01 212.235 200.36C212.339 200.71 212.027 200.952 212.339 200.71C212.652 200.465 212.513 200.255 212.79 199.975C213.065 199.695 213.207 199.66 213.378 199.415C213.551 199.171 213.725 198.856 213.69 198.544C213.655 198.229 213.343 197.774 213.031 197.462C212.718 197.147 212.371 197.112 212.406 196.59C212.441 196.065 212.128 195.368 212.58 195.578C213.031 195.788 213.418 195.893 213.693 196.45C213.968 197.01 214.173 197.252 214.277 197.357C214.381 197.462 214.624 197.532 214.624 197.217C214.624 196.902 214.381 196.625 214.624 196.17C214.867 195.715 215.107 195.435 215.524 195.263C215.94 195.088 216.148 194.913 216.319 194.738C216.493 194.563 216.562 194.179 216.84 194.356C217.117 194.531 217.323 194.811 217.117 195.126C216.909 195.441 216.634 195.651 216.322 196.208C216.01 196.767 215.558 197.674 215.558 197.674C215.558 197.674 215.075 198.826 214.899 199.246C214.726 199.666 214.587 200.363 214.344 200.573C214.101 200.782 213.615 201.307 213.615 201.307C213.615 201.307 213.65 201.657 214.17 201.657C214.691 201.657 215.07 201.972 215.66 201.412C216.247 200.852 216.938 200.47 217.2 200.365C217.462 200.26 218.708 200.19 219.333 200.33C219.957 200.47 220.545 200.645 220.892 200.817C221.239 200.992 221.863 201.342 222.312 201.237C222.763 201.132 223.144 201.237 223.249 200.75C223.353 200.263 223.457 199.354 223.836 198.969C224.215 198.584 224.807 198.272 224.356 197.852C223.905 197.432 223.665 197.47 223.457 196.84C223.248 196.21 222.869 196.175 223.144 195.513C223.422 194.849 223.94 194.327 224.252 193.837C224.564 193.35 225.085 192.93 225.12 192.405C225.154 191.88 225.293 191.323 225.12 191.288C224.946 191.253 224.252 191.393 224.116 191.113C223.977 190.833 223.7 190.589 223.841 190.274C223.98 189.959 224.084 189.787 224.22 189.539C224.359 189.294 224.567 188.842 224.359 188.667C224.151 188.492 223.838 188.247 224.012 188.075C224.185 187.9 224.671 187.34 224.983 187.9C225.296 188.46 225.432 188.912 225.208 189.122C224.984 189.332 224.119 189.017 224.741 189.819C225.363 190.621 225.64 190.484 225.918 190.831C226.195 191.181 226.577 190.971 226.297 191.775C226.019 192.577 225.918 192.472 225.605 193.102C225.293 193.732 225.189 193.102 225.018 194.534C224.845 195.965 224.602 196.105 224.81 196.767C225.018 197.432 225.261 197.744 225.435 198.094C225.608 198.444 225.608 198.619 225.71 198.934C225.814 199.249 226.022 199.421 226.057 199.563C226.091 199.703 226.022 200.123 226.161 200.333C226.299 200.543 226.265 200.998 226.956 201.135C227.647 201.275 228.654 201.275 228.897 201.45C229.139 201.625 229.452 201.905 229.484 202.252C229.519 202.602 229.137 202.917 229.484 202.987C229.831 203.056 229.967 203.301 230.247 203.056C230.525 202.812 230.834 202.392 231.043 202.322C231.251 202.252 232.289 202.112 232.636 202.287C232.983 202.462 233.053 202.774 233.4 202.879C233.747 202.984 234.128 203.089 234.611 203.124C235.095 203.159 235.65 203.124 236.031 203.229C236.411 203.334 236.483 203.299 236.483 203.716C236.483 204.133 236.448 204.241 236.483 204.623C236.517 205.005 236.517 205.182 236.031 205.462C235.548 205.742 233.885 205.949 233.157 205.917C232.428 205.885 230.349 205.22 229.831 205.22C229.313 205.22 228.897 205.57 227.96 205.602C227.023 205.637 225.256 205.147 224.669 204.868C224.081 204.588 224.217 204.413 223.526 204.413C222.835 204.413 220.686 204.483 220.443 204.413C220.2 204.343 217.568 204.273 217.325 204.308C217.083 204.343 215.801 203.538 215.801 203.538C215.801 203.538 215.422 203.293 215.524 203.573C215.628 203.853 216.527 204.375 217.152 204.9C217.777 205.425 218.124 206.017 218.746 206.506C219.37 206.994 219.509 207.241 219.784 207.136C220.061 207.031 220.061 206.611 220.339 206.369C220.617 206.124 221.481 206.092 221.828 206.092C222.175 206.092 222.071 205.812 222.765 205.917C223.457 206.022 223.494 206.127 223.908 206.442C224.324 206.757 224.807 207.072 225.154 207.072C225.501 207.072 225.742 206.862 225.918 206.689C226.091 206.515 226.369 206.307 226.646 206.654C226.924 207.002 227.479 207.142 227.719 207.631C227.962 208.118 228.344 208.401 228.171 208.783C227.997 209.165 228.032 209.308 227.687 209.308C227.343 209.308 227.132 209.028 227.028 209.413C226.924 209.795 227.098 210.043 226.441 210.253C225.782 210.462 223.566 210.917 223.15 211.124C222.733 211.332 221.799 211.544 221.626 211.996C221.452 212.451 221.903 213.393 222.25 213.428C222.597 213.463 223.427 213.533 223.774 213.008C224.121 212.483 224.295 211.681 224.503 211.681C224.711 211.681 224.572 211.751 225.162 212.241C225.752 212.731 226.895 213.323 227.242 213.358C227.589 213.393 228.245 213.288 228.384 213.288C228.523 213.288 228.627 213.428 228.867 213.88C229.11 214.335 228.833 214.472 230.183 214.927C231.534 215.382 232.158 215.452 232.575 215.347C232.991 215.242 233.095 214.997 233.266 215.242C233.44 215.487 233.853 215.977 233.474 216.044C233.095 216.114 232.919 215.939 232.815 216.184C232.711 216.429 233.162 216.848 232.364 216.813C231.568 216.778 220.828 214.717 220.518 214.685C220.206 214.65 219.514 214.615 219.48 214.335C219.445 214.055 219.167 213.638 219.167 213.638C219.167 213.638 218.994 213.813 218.404 213.708C217.817 213.603 217.261 213.428 216.984 213.043C216.706 212.658 216.292 212.136 216.188 211.786C216.084 211.437 215.98 211.122 215.945 210.845C215.911 210.565 215.737 210.18 215.598 210.148C215.46 210.115 215.078 209.483 215.078 209.973C215.078 210.462 215.113 210.845 215.251 211.369C215.39 211.894 215.147 212.626 215.943 213.256C216.738 213.885 217.432 214.163 218.193 214.408C218.956 214.652 219.821 214.862 219.821 214.862L232.674 217.341C232.674 217.341 234.371 217.621 235.273 217.796C236.173 217.971 236.971 218.355 237.732 218.565C238.495 218.775 238.735 218.88 239.325 218.915C239.913 218.95 240.398 218.88 240.745 218.95C241.092 219.02 241.784 219.195 242.374 219.265C242.961 219.335 243.137 219.545 244.173 219.615C245.211 219.685 247.533 219.825 248.329 219.86C249.124 219.895 250.2 219.93 250.336 219.895C250.475 219.86 250.371 219.755 250.614 219.685C250.856 219.615 251.097 219.615 251.097 219.615C251.097 219.615 250.68 219.3 250.229 219.265C249.778 219.23 249.746 219.195 249.5 219.265C249.258 219.335 249.084 219.405 248.772 219.405C248.459 219.405 248.147 219.195 247.8 219.055C247.453 218.915 247.557 218.705 247.037 218.95C246.516 219.195 246.345 219.23 245.929 219.195C245.513 219.16 245.061 218.88 244.682 218.95C244.303 219.02 244.544 219.09 243.919 219.055C243.294 219.02 242.915 218.88 242.603 218.845C242.291 218.81 242.152 218.88 241.666 218.705C241.183 218.53 240.454 218.318 240.316 218.267C240.177 218.216 240.211 217.901 240.836 217.831C241.461 217.761 242.499 217.726 243.02 217.516C243.54 217.306 243.367 216.924 244.509 216.851C245.651 216.781 246.484 216.571 247.592 216.571C248.7 216.571 249.807 216.746 250.258 216.676C250.71 216.606 251.054 216.221 251.091 215.979C251.126 215.734 250.848 215.769 251.091 215.492C251.334 215.212 251.574 214.967 251.887 215.037C252.199 215.107 252.266 215.457 252.615 215.457C252.965 215.457 253.587 215.492 253.931 215.247C254.276 215.002 254.623 213.955 254.831 213.606C255.039 213.256 255.074 212.244 255.247 213.014C255.421 213.783 255.49 214.235 255.49 214.445C255.49 214.655 255.317 214.69 255.247 215.005C255.178 215.32 254.9 215.597 255.178 215.67C255.456 215.74 255.837 215.565 256.15 215.46C256.462 215.355 257.017 215.25 257.292 215.355C257.567 215.46 257.917 215.495 257.671 215.775C257.428 216.055 257.188 216.262 257.15 216.472C257.116 216.682 257.116 216.926 257.359 216.854C257.602 216.784 257.946 216.329 258.122 216.262C258.296 216.192 258.955 217.553 259.75 217.833C260.546 218.113 260.618 218.183 260.858 218.113C261.101 218.043 261.549 217.973 261.792 218.113C262.035 218.253 262.243 218.423 262.417 218.269C262.59 218.113 262.347 217.833 262.243 217.626C262.139 217.416 262.225 217.066 262.476 216.961C262.727 216.856 263.074 217.101 263.106 216.752C263.14 216.402 262.897 216.159 262.793 216.055C262.689 215.95 262.273 215.6 262.585 215.358C262.897 215.113 263.036 215.043 263.314 214.975C263.591 214.905 263.557 214.835 263.73 214.556C263.904 214.278 263.869 213.821 264.181 214.101C264.494 214.381 264.598 215.183 264.841 215.358C265.083 215.532 265.532 215.428 265.569 215.74C265.604 216.055 265.326 216.194 265.086 216.507C264.843 216.822 264.739 217.171 264.878 217.519C265.017 217.868 265.438 218.635 265.575 219.055C265.711 219.475 265.986 219.962 265.815 220.067C265.641 220.172 265.468 220.277 265.607 220.417C265.745 220.557 266.09 220.557 266.402 220.557C266.714 220.557 267.235 220.487 267.51 220.697C267.785 220.907 268.238 221.116 268.065 221.221C267.891 221.326 267.374 222.061 267.302 222.233C267.232 222.408 267.302 222.408 267.406 223.175C267.51 223.945 267.44 224.187 267.267 224.292C267.093 224.397 265.639 223.452 265.5 223.452C265.361 223.452 264.945 223.243 264.875 223.452C264.806 223.662 264.702 223.732 264.251 224.149C263.8 224.569 262.865 224.779 262.692 224.779C262.518 224.779 262.241 224.954 262.209 225.161C262.174 225.371 262.035 225.476 261.726 225.476C261.416 225.476 261.066 225.441 260.789 225.686C260.511 225.931 259.681 226.631 259.195 227.118C258.712 227.605 258.744 227.885 258.4 228.025C258.053 228.165 257.428 228.374 257.118 228.444C256.806 228.514 256.635 228.689 256.219 228.165C255.803 227.64 255.528 227.083 255.282 227.153C255.039 227.223 254.866 227.258 254.903 227.677C254.938 228.097 255.111 228.269 254.972 228.654C254.834 229.036 254.66 229.421 253.934 229.946C253.205 230.471 251.51 231.238 251.059 231.623C250.608 232.005 249.778 232.739 249.535 233.089C249.292 233.439 249.5 233.439 248.911 233.754C248.323 234.069 247.872 234.069 247.768 234.419C247.664 234.769 247.803 235.153 247.803 235.153C247.803 235.153 248.219 235.083 248.08 235.363C247.942 235.643 247.837 235.745 247.56 235.783C247.282 235.818 247.039 235.748 246.692 235.888C246.345 236.028 245.654 236.343 245.654 236.343C245.654 236.343 245.619 236.168 245.307 236.83C244.995 237.495 245.203 237.702 244.682 237.702C244.162 237.702 244.023 237.247 243.644 237.597C243.265 237.947 243.228 238.017 242.641 238.609C242.053 239.201 241.29 239.83 240.943 240.145C240.596 240.46 240.284 240.81 240.075 241.017C239.867 241.227 239.728 241.399 239.728 241.542C239.728 241.685 239.902 241.892 239.971 242.029C240.041 242.169 240.11 242.099 240.006 242.449C239.902 242.799 239.694 243.079 239.971 243.356C240.249 243.636 240.631 243.738 241.044 243.738C241.458 243.738 242.811 243.808 243.193 244.018C243.572 244.228 243.401 244.505 243.922 244.4C244.442 244.295 244.685 244.295 244.859 244.05C245.032 243.805 245.102 243.42 245.414 243.178C245.726 242.933 246.038 242.796 246.869 242.796C247.699 242.796 247.872 242.621 248.427 242.551C248.983 242.481 249.847 242.761 250.678 243.038C251.51 243.318 251.855 243.598 252.549 244.12C253.24 244.645 253.173 244.75 254.108 245.517C255.044 246.286 256.083 247.368 256.499 247.718C256.916 248.068 257.228 248.205 257.436 248.205C257.644 248.205 257.815 247.855 257.957 248.205C258.095 248.555 258.199 249.077 258.477 249.217C258.755 249.357 258.824 249.462 259.064 249.287C259.307 249.112 259.652 248.832 259.756 248.657C259.86 248.482 259.86 248.238 260.311 248.275C260.762 248.31 261.074 248.17 261.245 248.065C261.419 247.96 261.141 247.578 261.766 247.89C262.39 248.205 262.249 248.482 263.877 249.322C265.505 250.162 265.228 250.014 265.884 250.821C266.543 251.628 266.992 252.325 267.2 252.815C267.408 253.302 267.579 254.212 267.579 254.771C267.579 255.331 267.718 255.993 267.718 256.938C267.718 257.882 267.753 258.3 267.614 258.824C267.475 259.349 267.027 259.069 266.781 259.521C266.538 259.976 266.365 259.801 266.402 261.335C266.437 262.872 266.194 263.149 266.367 264.233C266.541 265.315 266.746 265.35 266.61 265.735C266.471 266.117 266.402 266.365 266.231 266.575C266.058 266.785 265.815 266.82 265.607 266.82C265.398 266.82 265.329 266.75 265.228 267.064C265.124 267.379 264.776 267.519 264.64 267.484C264.502 267.449 264.363 267.554 264.328 267.764C264.293 267.974 264.328 268.114 264.05 268.184C263.776 268.254 263.426 268.219 263.426 268.499C263.426 268.779 263.805 269.616 264.881 270.245C265.954 270.875 266.405 271.085 266.888 271.015C267.371 270.945 268.204 270.692 268.516 271.028C268.828 271.365 269.312 271.82 269.554 272.169C269.797 272.519 269.589 272.589 270.246 272.904C270.905 273.219 271.319 272.974 271.735 273.496C272.152 274.021 271.978 274.578 272.672 274.578C273.366 274.578 274.679 274.753 274.96 274.403C275.237 274.053 274.855 273.601 275.584 273.531C276.313 273.461 276.657 273.811 277.108 273.811C277.559 273.811 277.696 273.986 278.32 273.811C278.945 273.636 278.945 273.496 279.497 273.146C280.052 272.797 280.085 272.587 280.883 272.412C281.678 272.237 281.299 272.342 281.956 271.715C282.615 271.085 282.476 270.668 283.063 270.353C283.651 270.038 284.067 269.971 284.379 269.793C284.692 269.618 284.758 269.306 284.935 268.954C285.108 268.604 285.834 268.394 286.008 268.184C286.181 267.974 285.799 268.114 286.008 267.729C286.216 267.347 287.323 265.773 287.566 264.971C287.809 264.169 287.983 263.854 288.362 263.189C288.743 262.525 288.674 262.35 289.195 262.003C289.715 261.653 288.399 262.457 290.094 261.478C291.792 260.501 294.424 258.614 295.152 258.337C295.881 258.057 296.434 257.568 297.715 257.535C298.996 257.5 299.447 257.675 299.826 257.08C300.205 256.486 300.518 256.104 301.107 256.174C301.695 256.244 301.799 256.104 302.458 256.698C303.117 257.29 302.941 257.395 303.635 257.185C304.327 256.975 304.674 257.22 304.743 256.593C304.812 255.964 304.465 255.267 304.743 254.885C305.018 254.502 305.434 254.013 305.885 253.628C306.336 253.246 306.681 252.721 306.82 252.546C306.958 252.371 307.132 251.881 307.407 251.604C307.684 251.324 307.786 251.222 308.378 251.149C308.966 251.079 309.003 251.079 309.417 251.289C309.833 251.499 310.076 251.604 310.284 251.464C310.492 251.324 310.944 251.114 310.597 250.799C310.25 250.485 309.625 250.345 309.905 250.102C310.185 249.86 311.117 249.473 311.117 249.158C311.117 248.843 311.186 248.776 311.117 248.388C311.048 248.006 311.186 247.586 311.533 247.061C311.88 246.537 311.638 245.91 312.988 245.595C314.339 245.28 314.859 245.14 315.588 245.175C316.317 245.21 316.004 244.93 316.939 245.175C317.876 245.42 318.567 245.63 319.087 245.872C319.608 246.117 319.747 245.872 320.195 246.607C320.646 247.341 320.678 247.688 321.268 247.793C321.855 247.898 322.306 248.108 323.275 247.514C324.247 246.922 324.487 246.537 325.667 246.292C326.844 246.047 327.469 246.362 328.125 246.572C328.785 246.782 329.233 246.992 329.684 246.992C330.135 246.992 330.757 246.817 331.174 246.362C331.59 245.907 331.865 245.21 332.559 245.14C333.25 245.07 334.014 244.93 334.395 244.685C334.774 244.44 335.228 244.093 335.332 243.708C335.436 243.326 335.159 242.764 334.953 242.347C334.745 241.927 334.433 241.545 334.433 241.055C334.433 240.565 334.468 240.008 334.433 239.798C334.398 239.588 334.225 239.101 334.259 238.926C334.294 238.751 334.502 238.681 334.572 238.544C334.641 238.404 334.502 237.984 334.294 237.6C334.086 237.217 333.739 236.903 334.086 236.83C334.433 236.76 334.71 236.9 334.849 236.935C334.988 236.97 335.509 236.585 335.578 236.165C335.647 235.745 335.404 235.293 335.578 235.153C335.751 235.013 336.133 234.666 336.203 234.943C336.272 235.223 336.445 235.535 336.79 235.293C337.137 235.048 337.689 234.806 337.932 234.559C338.175 234.314 338.696 234.034 338.8 233.652C338.904 233.27 338.765 232.78 338.421 232.43C338.074 232.08 338.108 231.278 337.588 231.278C337.067 231.278 336.792 231.593 336.203 231.628C335.615 231.663 335.682 231.733 335.164 231.628C334.644 231.523 334.713 231.278 334.022 231.453C333.33 231.628 332.81 231.698 332.706 231.628C332.602 231.558 332.567 231.103 331.806 231.246C331.043 231.386 331.043 231.456 330.768 231.421C330.49 231.386 330.143 231.176 329.868 231.071C329.591 230.966 329.14 230.689 328.622 231.176C328.101 231.663 327.754 231.873 327.306 231.873C326.858 231.873 326.615 231.663 326.473 231.873C326.334 232.083 326.438 232.255 326.161 232.433C325.883 232.608 325.432 232.398 325.536 232.747C325.64 233.097 325.779 233.167 325.675 233.412C325.571 233.657 325.05 233.657 325.016 233.972C324.981 234.287 325.328 234.252 325.155 234.532C324.981 234.812 324.88 234.847 324.255 235.019C323.63 235.194 323.839 235.369 323.46 235.439C323.081 235.509 323.529 235.194 322.731 235.124C321.935 235.054 321.172 234.774 320.964 234.564C320.756 234.354 320.547 233.657 320.513 233.272C320.478 232.89 320.339 232.47 320.374 232.26C320.409 232.05 320.235 231.668 319.683 232.33C319.13 232.992 318.991 233.132 318.991 233.447C318.991 233.762 319.13 233.972 318.818 234.354C318.505 234.736 318.126 234.631 318.089 235.124C318.054 235.611 318.263 235.506 318.054 235.963C317.846 236.418 318.054 236.733 316.981 237.255C315.908 237.78 314.798 238.372 314.141 238.617C313.482 238.862 312.513 239.177 312.134 239.072C311.755 238.967 307.527 235.753 307.215 235.266C306.902 234.779 303.299 230.807 302.85 230.172C302.399 229.537 299.837 226.746 299.351 226.014C298.868 225.28 296.997 222.244 296.615 221.474C296.236 220.707 295.782 219.413 295.577 218.751C295.369 218.086 294.504 216.832 294.261 216.203C294.018 215.573 293.778 214.806 293.674 214.284C293.569 213.759 293.535 213.482 293.535 212.992C293.535 212.502 293.431 211.77 293.327 211.735C293.223 211.7 292.91 211.805 292.91 212.47C292.91 213.135 292.91 213.377 292.771 213.552C292.633 213.727 292.251 213.657 292.251 213.657C292.251 213.657 291.976 213.132 291.73 213.412C291.487 213.692 291.071 213.794 290.794 213.727C290.516 213.657 290.206 212.925 290.238 213.552C290.273 214.182 290.412 214.634 290.759 215.156C291.106 215.68 291.346 215.748 291.522 215.923C291.696 216.098 291.834 216.272 291.834 216.377C291.834 216.482 292.182 216.692 292.182 216.692C292.182 216.692 292.424 215.82 292.633 215.68C292.841 215.541 293.5 215.541 293.465 215.925C293.431 216.308 293.569 216.622 293.778 217.112C293.986 217.602 294.021 217.847 294.261 218.159C294.504 218.474 294.608 218.299 294.64 218.961C294.675 219.626 294.675 220.428 294.57 221.127C294.466 221.824 294.191 222.489 294.501 222.524C294.813 222.559 295.16 221.859 295.334 221.617C295.507 221.372 295.542 221.337 295.854 221.827C296.167 222.314 296.754 223.119 297.032 223.888C297.306 224.658 297.515 225.215 298.59 226.332C299.663 227.449 300.566 228.251 301.049 228.915C301.532 229.58 302.052 230.172 302.712 230.802C303.371 231.432 304.444 232.898 304.756 233.385C305.069 233.872 306.176 235.272 306.764 235.864C307.351 236.456 307.871 236.528 308.149 237.295C308.424 238.065 308.424 237.96 309.12 238.587C309.812 239.217 310.645 239.532 310.54 239.879C310.436 240.226 310.402 240.509 309.916 240.509C309.43 240.509 309.187 240.369 308.912 240.126C308.635 239.882 308.429 239.849 308.013 239.777C307.596 239.707 307.284 239.357 306.905 239.357C306.526 239.357 306.11 239.287 306.11 239.287L305.277 238.657C305.277 238.657 303.544 238.762 303.061 238.692C302.578 238.622 302.124 238.31 302.124 238.31C302.124 238.31 301.951 237.823 301.537 237.96C301.121 238.1 301.607 238.17 300.534 238.24C299.461 238.31 299.009 238.38 299.044 238.205C299.079 238.03 299.391 237.785 299.599 237.435C299.808 237.086 299.773 236.039 299.773 236.039C299.773 236.039 299.498 235.409 299.981 235.199C300.464 234.989 301.297 234.502 301.47 233.907C301.644 233.315 302.13 232.826 301.644 232.161C301.158 231.496 300.915 231.184 300.811 230.799C300.707 230.414 300.811 230.102 300.224 229.717C299.637 229.335 299.356 229.297 299.22 228.878C299.081 228.458 298.353 228.038 298.147 227.971C297.939 227.901 298.113 227.901 297.352 227.761C296.591 227.621 296.001 227.516 296.105 227.411C296.209 227.306 296.071 226.819 295.932 226.746C295.793 226.676 295.481 227.201 295.307 227.128C295.134 227.058 294.72 226.849 294.824 226.641C294.928 226.431 294.998 226.431 295.307 226.187C295.619 225.942 296.175 225.49 295.686 225.42C295.203 225.35 292.534 226.641 292.224 226.746C291.912 226.851 291.047 227.026 291.012 226.816C290.978 226.606 291.221 226.187 291.637 225.909C292.053 225.629 292.328 225.142 292.328 224.933C292.328 224.723 292.294 224.445 292.779 224.445C293.265 224.445 293.647 224.515 293.404 224.131C293.161 223.748 293.092 223.781 292.953 223.501C292.814 223.221 292.814 222.454 292.47 222.629C292.123 222.804 292.47 223.084 291.81 223.326C291.151 223.568 291.015 223.536 290.668 223.606C290.321 223.676 290.043 223.291 290.252 223.046C290.46 222.801 290.425 222.696 290.911 222.416C291.394 222.136 291.29 222.101 291.949 221.682C292.609 221.262 292.988 220.912 292.641 220.88C292.294 220.845 291.912 220.705 291.498 220.845C291.082 220.985 291.015 220.74 290.665 221.227C290.318 221.714 289.176 222.903 288.864 223.46C288.551 224.02 287.548 224.787 287.097 225.137C286.645 225.487 285.885 225.767 285.746 225.662C285.607 225.557 285.33 224.997 285.885 224.685C286.44 224.373 286.752 224.125 287.062 223.915C287.374 223.705 287.545 223.705 287.545 223.251C287.545 222.796 287.58 222.306 287.961 221.959C288.34 221.609 288.445 221.819 288.861 221.087C289.277 220.352 289.865 220.6 289.656 219.97C289.448 219.34 288.861 218.329 288.375 218.366C287.892 218.401 287.476 218.086 287.372 218.681C287.267 219.273 287.337 219.483 287.233 219.868C287.129 220.25 286.854 220.145 286.712 220.565C286.573 220.985 286.678 221.157 286.4 221.367C286.122 221.577 285.532 221.612 285.604 221.087C285.674 220.562 285.604 219.76 285.431 220.075C285.258 220.39 285.847 220.562 285.084 220.74C284.321 220.915 283.803 220.81 283.768 220.53C283.733 220.253 284.115 220.253 284.08 219.938C284.046 219.623 284.08 219.623 283.629 219.203C283.178 218.783 282.762 218.468 282.834 218.261C282.903 218.051 283.317 217.841 283.317 217.841C283.317 217.841 283.143 217.072 282.796 216.97C282.449 216.867 282.345 216.69 282.172 217.074C281.998 217.457 281.964 217.634 281.585 217.704C281.206 217.774 280.546 217.739 280.685 217.284C280.824 216.83 280.65 216.76 280.373 216.83C280.095 216.9 280.199 217.107 280.095 217.459C279.991 217.809 280.199 218.226 279.818 218.019C279.436 217.809 279.471 217.774 279.23 217.354C278.987 216.935 279.161 216.795 278.435 216.762C277.706 216.727 276.98 216.447 276.98 216.447C276.98 216.447 276.807 216.517 277.292 216.797C277.776 217.077 278.16 217.217 278.504 217.637C278.849 218.057 279.268 218.197 279.3 218.684C279.334 219.171 279.508 219.556 279.196 219.731C278.883 219.906 279.022 220.428 278.363 220.08C277.704 219.731 277.047 219.698 277.426 219.416C277.805 219.139 278.117 219.066 277.946 218.719C277.773 218.369 277.842 217.707 277.255 217.497C276.668 217.287 275.835 216.867 275.523 216.552C275.21 216.238 275.072 215.75 275.072 215.608C275.072 215.465 274.589 215.293 274.343 215.331C274.1 215.366 273.684 215.366 273.718 215.855C273.753 216.342 273.927 216.552 273.545 216.625C273.166 216.695 272.854 216.625 272.749 216.625C272.645 216.625 272.541 216.835 272.266 216.765C271.989 216.695 271.85 216.8 271.471 216.205C271.092 215.613 271.263 215.576 271.092 215.613C270.918 215.648 270.224 215.613 270.12 215.543C270.016 215.473 269.947 214.983 269.843 214.879C269.739 214.774 269.773 215.053 270.051 214.704C270.328 214.354 270.224 214.529 270.502 214.249C270.78 213.969 271.022 214.039 270.78 213.689C270.537 213.339 270.296 213.129 270.12 213.164C269.947 213.199 269.808 212.814 269.637 212.884C269.464 212.954 269.36 213.267 269.429 213.581C269.498 213.896 269.637 214.211 269.29 214.278C268.943 214.348 268.839 214.278 268.666 214.278C268.492 214.278 267.902 214.383 267.902 214.383C267.902 214.383 267.659 214.034 267.555 213.791C267.451 213.546 267.347 213.371 267.176 213.476C267.005 213.581 266.413 213.581 266.552 213.301C266.69 213.022 266.725 212.637 266.968 212.535C267.211 212.43 267.315 212.5 267.315 212.08C267.315 211.66 267.107 211.313 267.28 211.173C267.454 211.033 267.659 210.476 268.076 210.543C268.492 210.613 268.839 211.068 269.253 211.103C269.669 211.138 269.6 211.173 269.982 210.963C270.361 210.753 270.502 210.683 270.814 210.858C271.127 211.033 271.543 210.928 271.543 210.928C271.543 210.928 271.682 210.056 272.234 210.788C272.79 211.523 273.62 212.535 274.033 213.094C274.45 213.654 274.621 213.966 274.901 213.861C275.178 213.756 275.421 213.406 275.56 213.374C275.699 213.339 275.872 213.444 276.081 213.584C276.289 213.724 276.601 213.759 276.844 213.619C277.087 213.479 277.365 213.549 277.26 213.237C277.156 212.922 276.948 212.397 276.948 212.05C276.948 211.703 276.673 211.073 277.191 211.458C277.712 211.843 277.778 212.018 277.92 212.33C278.059 212.645 277.989 212.817 278.163 212.855C278.336 212.89 278.542 212.995 278.542 212.54C278.542 212.085 278.646 212.158 278.264 211.738C277.885 211.318 276.844 210.446 276.879 210.236C276.913 210.026 277.258 209.749 277.052 209.539C276.847 209.329 276.393 209.225 276.636 209.015C276.879 208.805 277.26 208.49 277.26 208.49C277.26 208.49 277.26 207.723 277.677 208.14C278.093 208.56 278.336 209.152 278.472 209.642C278.611 210.129 279.097 210.793 279.097 210.793C279.097 210.793 279.826 211.108 279.684 211.595C279.545 212.082 279.407 211.978 279.129 212.607C278.851 213.237 278.646 213.409 278.47 214.039C278.296 214.669 277.81 215.191 278.366 215.191C278.921 215.191 278.99 214.911 279.198 214.911C279.407 214.911 279.615 215.121 279.754 215.156C279.892 215.191 280.274 215.226 280.274 214.736C280.274 214.246 280.239 213.689 280.205 213.374C280.17 213.059 280.378 212.919 280.378 212.919C280.378 212.919 280.725 213.406 280.829 213.759C280.933 214.109 280.552 214.141 280.933 214.109C281.312 214.074 281.384 213.584 281.384 213.584L281.28 212.712C281.28 212.712 281.35 212.187 281.211 211.978C281.072 211.768 280.795 211.803 280.899 211.348C281.003 210.893 281.382 211.138 281.59 211.278C281.798 211.418 281.763 211.66 282.145 211.383C282.524 211.103 282.319 210.858 282.836 210.928C283.357 210.998 282.871 211.52 283.114 211.663C283.357 211.803 283.669 212.012 284.118 212.292C284.569 212.57 284.497 212.537 284.913 212.57C285.33 212.605 285.156 212.535 285.604 212.605C286.056 212.675 286.296 212.08 286.296 212.08C286.296 212.08 285.917 210.963 286.365 210.858C286.814 210.753 287.025 211.138 287.025 211.138L287.684 212.465C287.684 212.465 287.58 213.581 287.267 213.931L286.955 214.281C286.955 214.281 286.608 213.409 286.504 213.409C286.4 213.409 286.088 213.479 286.088 213.479L285.81 213.584C285.81 213.584 285.081 213.794 284.977 214.281C284.873 214.768 284.908 215.643 284.908 215.643C284.908 215.643 284.112 215.678 283.974 215.958C283.835 216.238 283.8 216.902 283.8 216.902C283.8 216.902 284.283 217.007 284.633 217.042C284.98 217.077 285.153 216.902 285.188 217.462C285.223 218.022 285.567 218.509 285.567 218.509C285.567 218.509 286.744 218.719 287.161 217.844C287.577 216.972 287.924 216.622 288.164 215.993C288.407 215.363 288.477 215.086 288.647 214.179C288.821 213.272 288.439 212.155 289.026 211.735C289.614 211.315 291.522 211.106 292.318 211.071C293.113 211.036 292.769 210.511 293.321 209.954C293.874 209.397 294.984 208.662 295.713 208.14C296.442 207.615 296.647 207.058 297.272 206.988C297.896 206.918 297.859 207.058 298.105 206.883C298.347 206.708 298.729 205.696 299.039 205.347C299.351 204.997 299.559 204.612 299.455 204.475C299.351 204.337 299.108 204.615 299.004 204.3C298.9 203.985 298.622 203.53 298.865 203.288C299.108 203.043 299.178 202.623 299.244 202.448C299.314 202.273 299.244 201.541 299.418 201.819C299.591 202.098 299.797 203.215 299.901 203.565C300.005 203.915 300.352 204.195 300.592 203.88C300.835 203.565 301.009 203.078 301.113 202.833C301.217 202.588 301.388 202.273 301.388 202.273C301.388 202.273 301.561 201.681 301.318 201.227C301.075 200.772 300.347 200.11 300.347 199.83C300.347 199.55 299.968 199.515 300.347 199.55C300.726 199.585 301.524 200.075 301.801 200.39C302.079 200.704 302.461 200.982 302.634 201.366C302.808 201.749 302.877 201.959 302.773 202.238C302.669 202.518 302.426 202.621 302.53 203.04C302.634 203.46 302.461 203.737 302.947 203.705C303.43 203.67 303.71 203.635 304.054 203.635C304.399 203.635 305.058 203.39 304.85 203.775C304.642 204.157 304.367 204.3 304.086 204.857C303.811 205.417 303.635 206.219 303.635 206.219C303.635 206.219 303.705 206.393 303.947 206.009C304.19 205.624 307.447 200.597 307.447 200.597L307.1 200.492C307.1 200.492 306.096 201.819 305.645 202.096C305.194 202.376 304.986 202.725 304.85 202.306C304.711 201.886 303.95 200.769 303.742 200.104C303.534 199.44 303.291 198.253 303.259 197.451C303.227 196.649 303.224 195.494 303.12 194.972C303.016 194.448 302.877 193.996 302.877 193.611C302.877 193.226 302.599 192.494 302.877 192.039C303.155 191.584 303.224 191.062 303.502 191.619C303.779 192.179 304.335 193.016 304.297 193.506C304.262 193.993 303.915 193.926 303.95 194.483C303.985 195.042 304.329 196.159 304.609 196.996C304.887 197.836 304.887 198.393 305.544 198.953C306.203 199.512 306.376 199.72 306.721 199.65C307.065 199.58 307.1 199.859 307.276 199.44C307.452 199.02 307.311 198.775 307.588 198.743C307.863 198.708 308.005 198.708 308.005 199.092C308.005 199.477 307.45 199.337 307.866 199.685C308.282 200.034 308.178 200.139 308.733 199.789C309.289 199.44 310.327 198.323 310.778 197.903C311.229 197.483 311.646 196.506 312.267 195.912C312.892 195.32 313.93 194.69 314.312 194.27C314.691 193.85 315.18 193.535 315.18 193.535L316.287 192.454L318.575 191.372L320.203 191.302L322.87 190.777C322.87 190.777 324.012 190.5 324.255 191.232L324.498 191.966L324.914 192.246L325.397 191.931L325.606 192.281C325.606 192.281 325.849 192.526 325.918 192.316C325.987 192.106 326.022 191.861 326.334 191.269C326.647 190.677 326.751 189.978 327.442 189.103C328.133 188.231 328.723 186.765 329.692 186.73C330.664 186.695 330.352 186.834 331.043 186.799C331.734 186.765 331.286 186.66 332.636 186.345C333.987 186.03 335.444 185.473 336.032 186.065C336.619 186.657 337.174 187.497 337.278 187.741C337.382 187.986 337.486 187.811 337.417 188.266C337.348 188.721 337.174 189.106 337.038 189.243C336.899 189.383 336.864 189.348 336.691 189.383C336.517 189.418 336.136 189.453 336.171 189.765C336.205 190.08 336.275 190.252 336.55 190.22C336.824 190.188 336.966 190.325 337.137 189.905C337.31 189.485 338.693 186.31 338.834 185.995C338.976 185.68 339.08 185.365 339.043 185.053C339.008 184.738 338.605 184.283 339.051 184.108C339.494 183.933 339.39 184.073 339.737 183.759C340.084 183.444 339.633 182.782 340.74 182.292C341.848 181.805 343.34 180.688 343.789 180.478C344.24 180.268 345.588 179.326 345.9 179.081C346.212 178.837 346.559 178.522 346.799 178.522C347.04 178.522 347.977 179.081 348.046 179.219C348.115 179.359 348.425 179.604 348.425 179.848V180.373C348.425 180.373 348.46 180.618 348.703 180.198C348.945 179.778 348.945 179.606 349.223 179.429C349.501 179.251 349.81 179.149 349.882 178.799C349.952 178.449 349.57 178.449 349.882 178.102C350.195 177.752 353.969 172.97 354.351 172.827C354.73 172.687 355.493 172.582 356.499 172.582C357.506 172.582 357.746 172.512 358.024 172.268C358.301 172.023 358.44 171.885 358.819 171.885C359.198 171.885 359.444 171.885 359.756 171.536C360.068 171.186 360.172 170.801 360.623 170.801C361.074 170.801 361.87 171.116 362.009 171.151C362.148 171.186 362.321 171.116 362.633 171.046C362.946 170.976 363.776 171.011 364.296 170.801C364.817 170.591 364.817 170.314 365.129 170.276C365.441 170.241 365.924 170.521 366.133 170.763C366.341 171.008 366.512 170.938 366.445 171.218C366.376 171.498 366.237 171.358 366.306 171.673C366.376 171.988 367.102 172.545 367.31 172.16C367.518 171.778 367.553 171.463 368.073 171.008C368.594 170.553 368.973 170.206 369.146 169.891C369.32 169.576 369.459 169.299 369.32 169.019C369.181 168.739 368.837 168.949 368.973 168.322C369.112 167.693 369.181 166.751 369.768 166.054C370.355 165.357 370.807 164.517 370.807 164.03C370.807 163.543 370.532 162.808 370.182 162.948C369.835 163.088 368.45 163.82 368.175 163.403C367.897 162.983 368.418 160.89 368.695 160.263C368.973 159.633 369.216 158.376 369.424 157.644C369.632 156.909 370.048 151.917 370.291 151.812C370.534 151.707 370.847 151.603 371.295 151.533C371.743 151.463 372.09 150.903 372.646 150.591C373.201 150.276 376.284 150.313 376.561 150.276C376.839 150.241 376.596 149.264 377.082 148.462C377.565 147.66 377.811 146.96 378.328 146.715C378.849 146.471 379.575 146.541 379.332 145.634C379.089 144.727 378.328 142.283 378.777 141.968C379.228 141.653 379.26 141.339 379.78 141.514C380.301 141.688 380.923 141.584 381.235 141.236C381.547 140.887 383.28 139.56 385.495 139.56C387.711 139.56 391.21 138.513 391.453 138.548C391.696 138.583 391.349 138.973 392.353 139.092C393.356 139.21 394.293 138.895 394.915 138.86C395.54 138.825 396.96 138.545 397.582 138.755C398.206 138.965 399.418 139.18 399.869 139.092C400.32 139 401.324 138.685 400.633 137.953C399.941 137.219 399.594 137.428 399.386 136.592C399.178 135.752 398.623 133.241 398.866 133.063C399.108 132.889 399.594 132.644 400.216 132.262C400.841 131.879 401.105 128.733 400.867 127.827C400.63 126.92 399.971 126.64 399.904 125.73C399.834 124.823 399.592 124.508 399.8 123.949C400.008 123.389 400.112 122.447 400.043 121.782C399.973 121.118 400.216 120.074 399.904 119.654C399.592 119.234 398.831 119.094 398.692 118.327C398.553 117.56 397.963 116.231 398.105 115.534C398.244 114.837 397.168 114.032 396.893 114.102C396.615 114.172 396.129 114.694 395.577 113.857C395.022 113.017 394.261 112.39 394.4 110.926C394.539 109.46 394.226 106.946 394.469 106.666C394.712 106.387 394.99 105.69 395.646 105.69C396.303 105.69 399.389 105.967 399.629 105.69C399.872 105.41 400.112 104.048 399.768 103.876C399.421 103.701 398.313 103.806 396.754 103.389C395.195 102.969 394.851 103.214 394.675 102.377C394.501 101.537 392.595 100.315 392.595 99.8283C392.595 99.3412 392.908 97.8369 393.047 97.7669C393.185 97.6969 394.05 98.2917 394.779 97.7669C395.508 97.2421 396.442 96.5452 396.719 96.3003C396.997 96.0554 397.344 95.4983 397.515 94.8336C397.686 94.1689 397.341 93.4369 398.174 92.8772C399.007 92.3174 400.566 91.6554 400.737 91.4105C400.91 91.1656 401.188 91.2356 400.737 90.7135C400.285 90.1888 400.008 90.3314 400.008 89.3868C400.008 88.4422 400.355 86.6984 399.973 86.0687C399.594 85.439 397.515 82.9604 397.515 82.3684C397.515 81.7764 397.619 81.0417 398.102 80.5546C398.585 80.0675 399.453 79.4728 399.383 78.878C399.314 78.286 398.863 77.4814 398.551 77.4814C398.238 77.4814 396.647 77.1665 396.439 77.4814C396.231 77.7962 395.123 79.4378 394.672 79.8899C394.221 80.3447 391.763 80.6246 391.312 80.4147C390.861 80.2048 389.649 78.7058 388.784 78.843C387.919 78.9803 387.225 78.913 386.985 78.5282C386.742 78.146 385.808 75.7348 384.977 75.9447C384.145 76.1546 381.374 76.8516 380.856 76.4318C380.336 76.012 379.332 75.4549 378.953 75.1751C378.574 74.8952 378.19 72.1018 377.915 72.0668C377.637 72.0319 376.633 71.8919 376.564 72.4167C376.495 72.9415 375.873 73.8134 375.456 73.9183C375.04 74.0233 371.645 73.7434 371.645 73.7434C371.645 73.7434 370.881 72.3467 370.502 72.2418C370.123 72.1368 369.152 71.5636 368.978 72.0265C368.805 72.4893 369.152 72.8392 368.287 72.6616C367.422 72.484 366.071 71.9081 366.103 71.8489C366.138 71.7897 366.277 70.1858 366.277 70.1858C366.277 70.1858 365.722 69.4511 365.548 69.4888C365.375 69.5238 362.639 69.9086 361.982 69.9758C361.323 70.0458 361.149 70.1508 360.735 69.9059C360.319 69.661 359.868 69.1012 359.524 69.4861C359.177 69.8709 358.728 70.3957 358.451 70.0108C358.173 69.6287 357.412 67.9871 357.204 67.9871C356.996 67.9871 355.405 67.7072 355.405 67.9871C355.405 68.267 355.856 71.6524 355.856 71.7924C355.856 71.9323 355.197 73.7838 354.193 73.6788C353.19 73.5739 349.207 70.5383 348.687 69.9086C348.166 69.2789 345.673 68.337 344.979 68.0221C344.288 67.7072 344.079 67.9521 344.079 67.3574C344.079 66.7627 343.767 66.4155 343.108 65.9257C342.449 65.4386 341.029 65.0188 340.959 64.599C340.89 64.1792 340.025 61.6684 339.713 61.3858C339.4 61.1087 337.254 59.8842 337.289 58.8723C337.324 57.8605 337.219 56.776 336.977 56.776C336.734 56.776 336.248 56.636 335.73 56.776C335.21 56.9159 335.001 57.1581 334.31 57.7878C333.619 58.4175 330.602 61.3159 330.328 61.6307C330.05 61.9456 328.387 61.5957 327.453 61.5258C326.516 61.4558 326.38 61.5258 326.276 61.7707C326.172 62.0156 326.001 62.6103 324.856 62.6103C323.711 62.6103 322.984 62.1555 322.952 62.7852C322.918 63.4149 323.057 64.2169 322.918 64.704C322.779 65.1911 322.918 65.5436 321.706 65.6808C320.494 65.8208 318.244 65.9957 317.998 65.7858C317.755 65.5759 316.786 64.7739 316.786 64.7739L312.11 64.9139L308.544 61.2809L300.646 61.9106C300.646 61.9106 299.434 63.6571 299.226 63.7244C299.017 63.7944 297.84 63.8643 296.938 63.3423C296.039 62.8175 295.587 63.0274 295.587 62.4354C295.587 61.8433 296.004 61.7707 295.24 61.4235C294.477 61.0737 293.233 61.0037 293.196 60.4466C293.161 59.8869 293.057 58.8427 292.921 58.2803C292.782 57.7206 292.747 56.9697 292.438 56.7168C292.125 56.4638 291.778 55.6619 291.987 55.4869C292.195 55.312 292.262 55.242 292.921 55.0671C293.58 54.8922 293.959 54.3325 293.959 54.3325C293.959 54.3325 293.786 52.1661 293.716 51.9939C293.647 51.819 292.884 51.8539 292.713 51.4341C292.539 51.0143 292.23 49.7576 291.949 48.8157C291.672 47.8711 291.154 47.1741 290.772 46.687C290.393 46.1999 289.595 45.6052 289.699 45.3253C289.803 45.0454 290.254 44.4534 290.462 44.1385C290.671 43.8237 291.191 43.2666 291.018 42.8118C290.844 42.357 290.393 42.1148 289.945 42.0422C289.496 41.9695 289.216 41.765 288.872 41.7973C288.525 41.8323 287.9 42.427 287.486 42.1794C287.07 41.9345 285.479 41.3398 285.271 40.5378C285.063 39.7359 284.959 38.7563 284.854 38.3042C284.75 37.8521 284.438 36.7326 284.022 36.6277C283.605 36.5227 283.643 35.9307 283.258 36.4527C282.879 36.9775 282.879 37.8494 282.081 37.5695C281.286 37.2897 280.557 36.6976 280.279 37.0098C280.002 37.3246 277.752 39.1385 277.543 39.2784C277.335 39.4183 276.572 39.1035 276.227 39.2084C275.883 39.3134 275.672 39.4533 275.499 39.3833C275.325 39.3134 274.944 39.3134 275.016 38.5437C275.088 37.7741 275.293 37.322 274.773 37.287C274.252 37.252 272.485 37.0421 271.965 37.4619C271.444 37.8817 271.097 38.3338 270.441 38.1966C269.781 38.0566 268.674 37.6045 268.433 37.9517C268.19 38.3015 267.95 38.7213 267.395 38.8236C266.84 38.9259 265.801 39.2784 265.663 38.6837C265.524 38.0916 265.212 37.6368 265.628 37.147C266.044 36.6599 266.287 36.6223 266.461 36.0302C266.634 35.4382 266.981 34.5986 266.53 34.3214C266.079 34.0415 264.867 33.4495 264.867 33.3095C264.867 33.1696 264.867 32.6125 265.214 32.3649C265.561 32.12 265.388 31.6679 265.318 31.3881C265.249 31.1082 265.353 29.2917 265.353 28.8746C265.353 28.4575 264.833 27.7578 264.59 27.233C264.347 26.7082 264.002 26.4633 263.655 26.1862C263.308 25.9063 262.86 25.5941 262.305 25.2416C261.75 24.8917 261.162 24.5769 261.266 24.1947C261.371 23.8126 261.613 23.3228 262.134 23.3551C262.654 23.3901 262.721 23.3201 263.138 23.1452C263.554 22.9703 263.762 22.9353 264.109 22.5855C264.456 22.2356 264.248 21.9207 264.801 22.0607C265.356 22.2006 266.255 22.5155 266.498 22.4428C266.741 22.3729 267.331 22.3056 267.47 22.0257C267.609 21.7458 268.233 21.0488 268.025 20.4514C267.817 19.8594 267.4 18.8475 267.192 18.495C266.984 18.1451 265.946 17.2382 265.217 16.7861C264.488 16.334 264.109 16.2264 263.832 15.4594C263.554 14.6924 263.623 14.5175 263.207 14.0627C262.791 13.6079 262.169 13.2608 261.613 12.771C261.058 12.2839 260.089 12.1063 260.089 10.9572C260.089 9.80808 260.159 9.73542 260.263 9.21065C260.367 8.68589 260.228 7.744 260.02 7.08198C259.812 6.41728 259.742 6.24236 259.569 5.79025C259.395 5.33546 259.638 5.2305 259.048 4.95063C258.461 4.67075 258.389 4.42586 257.941 4.32091C257.492 4.21596 257.145 4.60078 256.937 4.04372C256.729 3.48397 255.864 2.47212 255.864 2.47212C255.864 2.47212 255.173 2.33218 255.031 2.05231C254.892 1.77243 254.444 0.550667 253.958 0.343452C253.475 0.133546 252.781 0.0285925 252.399 0.0285925C252.018 0.0285925 251.326 0.238499 250.91 0.553358C250.493 0.868218 249.698 1.25036 249.282 1.49794C248.865 1.74283 248.518 1.91775 248.035 2.08998C247.552 2.2649 246.58 2.29989 246.476 2.2649C246.372 2.22992 246.129 2.29989 246.233 2.02001C246.337 1.74014 246.684 1.42797 246.372 0.973171C246.06 0.518374 245.091 0.553358 244.365 0.693296C243.636 0.833234 243.118 0.693296 243.118 0.693296C243.118 0.693296 241.802 0.0635769 241.594 0.0285925C241.386 -0.00639188 241.039 -0.0763607 240.761 0.308468C240.484 0.690605 240.07 1.21537 239.654 1.63518C239.237 2.055 238.546 2.36986 237.817 3.13682C237.088 3.90379 236.362 4.28862 235.842 4.35858C235.321 4.42855 234.665 3.93877 234.283 3.93877C233.901 3.93877 233.52 3.72886 233.346 4.21865C233.173 4.70574 233.034 4.98561 232.513 5.05827C231.993 5.12824 231.51 5.82793 230.33 5.02329C229.153 4.22134 229.257 3.83651 228.563 3.41939C227.872 2.99958 227.421 2.78967 226.622 2.89462C225.827 2.99957 225.098 2.82465 224.682 3.10453C224.265 3.38171 223.678 3.55932 223.574 4.01143C223.47 4.46623 223.366 5.12824 223.644 5.47809C223.921 5.82793 224.127 6.73483 223.817 6.83978C223.505 6.94474 222.536 7.15464 222.95 7.64173C223.363 8.12883 223.886 8.09653 223.505 8.58631C223.126 9.0734 222.845 9.32099 222.672 10.018C222.498 10.715 222.117 11.3097 222.117 11.3097L221.078 11.7645C221.078 11.7645 220.801 12.3942 220.179 12.6714C219.554 12.9513 219.728 13.0213 218.967 12.9863C218.204 12.9513 216.648 13.5783 216.092 13.3011C215.537 13.0213 215.505 12.2193 214.846 12.1493C214.186 12.0794 213.807 11.9045 212.734 12.1843C211.661 12.4615 211.21 12.6391 210.794 12.6391C210.377 12.6391 210.415 12.3592 209.2 12.3592C207.986 12.3592 207.156 12.3243 206.568 12.3942C205.981 12.4642 205.183 11.8345 205.183 11.8345L203.728 11.2747L202.829 11.6945L202.864 13.0912C202.864 13.0912 203.347 14.383 203.28 14.7328C203.211 15.0826 203.072 15.8146 202.412 15.1526C201.753 14.4879 201.39 14.1058 200.742 14.0708C200.093 14.0358 199.642 13.7909 199.642 13.7909C199.642 13.7909 198.43 12.9513 197.875 13.0213C197.32 13.0912 196.663 13.1262 196.177 13.7183C195.691 14.3103 195.657 14.0331 195.104 15.01C194.549 15.9869 193.927 16.7188 193.476 17.5585C193.025 18.3981 193.406 18.8502 192.403 19.2C191.399 19.5499 190.254 19.5499 189.875 20.0397C189.496 20.5268 190.118 20.7743 189.25 21.0515C188.383 21.3314 188.695 21.7862 188.487 22.2383C188.279 22.6931 187.862 22.5182 187.758 22.868C187.654 23.2179 187.932 23.7076 187.55 24.2297C187.171 24.7545 186.963 24.5446 186.821 25.1716C186.683 25.8013 186.683 26.2884 186.613 26.6732C186.544 27.0581 186.301 27.0231 186.058 27.3702C185.815 27.7201 186.127 28.3148 185.989 28.662C185.85 29.0118 185.329 28.9768 185.156 29.5339C184.982 30.0936 184.427 30.3358 184.913 30.9306C185.396 31.5226 185.746 31.4177 185.572 32.0474C185.399 32.6771 185.989 33.2342 186.127 33.3741C186.266 33.514 186.301 34.0711 186.301 34.4909C186.301 34.9107 186.336 35.0507 186.544 35.3305C186.752 35.6104 186.891 35.6804 187.168 36.2025C187.443 36.7272 188.036 37.5642 187.897 37.844C187.758 38.1239 187.585 38.4038 187.585 38.541C187.585 38.6783 187.793 38.9608 187.724 39.3807C187.654 39.8005 187.307 39.5206 187.168 40.1826C187.03 40.8446 187.411 40.9523 186.891 41.2644C186.37 41.5793 185.367 41.8565 185.367 41.8565C185.367 41.8565 183.496 41.0168 183.221 40.7397C182.943 40.4598 181.662 39.343 181.592 38.9931C181.523 38.6433 181.627 38.1212 181.384 37.5265C181.141 36.9317 180.968 36.5146 180.656 36.1648C180.343 35.8149 179.097 34.5932 178.648 34.5932C178.2 34.5932 177.885 35.2229 177.332 35.3951C176.777 35.57 175.117 34.5232 174.628 34.6981C174.145 34.8731 172.445 36.7595 172.205 36.9667C171.962 37.1766 171.062 37.3166 170.854 37.0717C170.646 36.8268 169.573 35.1152 168.914 34.9753C168.254 34.8354 167.494 35.7773 167.181 35.9199C166.869 36.0598 166.039 36.0598 165.726 36.1298C165.414 36.1998 164.894 36.2348 164.894 36.6169C164.894 36.999 164.581 38.1535 164.373 38.4684C164.165 38.7832 163.749 39.1654 163.402 38.8882C163.055 38.6083 162.814 38.2961 162.569 38.5383C162.326 38.7832 161.426 39.0981 161.253 39.0981C161.079 39.0981 160.18 39.0981 159.833 38.2262C159.486 37.3543 158.378 35.6077 158.552 35.3628C158.725 35.1179 159.347 34.0711 159.315 33.8612C159.28 33.6513 158.792 33.584 158.536 33.2315C158.277 32.8816 157.791 31.5226 157.655 31.2078C157.516 30.8929 156.165 30.8579 155.61 31.0328C155.055 31.2078 154.433 31.3477 154.259 31.7998C154.086 32.2546 154.051 32.7767 153.808 33.0566C153.565 33.3364 153.013 33.2665 152.805 33.3014C152.596 33.3364 152.354 32.8816 151.905 33.2665C151.454 33.6486 150.138 34.1734 150.034 34.4882C149.93 34.8031 149.655 35.57 149.655 36.1648C149.655 36.7595 149.586 37.6314 149.412 37.9113C149.239 38.1912 149.169 39.0631 148.339 38.2934C147.506 37.5238 147.544 37.6637 147.023 37.3166C146.503 36.9694 146.156 36.4769 146.124 36.0248C146.089 35.57 146.089 35.2902 146.124 34.6981C146.158 34.1061 146.503 33.0942 145.742 33.0566C144.979 33.0216 144.461 32.9866 144.183 33.0566C143.905 33.1265 143.35 32.5695 142.902 32.5318C142.451 32.4968 141.759 32.6717 141.621 32.8117C141.482 32.9516 140.929 34.0684 140.027 33.9984C139.128 33.9285 138.746 32.007 138.434 31.7971C138.121 31.5872 137.809 31.3423 137.95 30.9952C138.089 30.6453 137.95 29.3186 137.467 29.3913C136.984 29.4639 136.496 29.5662 135.874 30.021C135.249 30.4758 134.801 30.8929 134.419 31.3127C134.04 31.7325 134.245 31.6949 133.898 32.1846C133.551 32.6717 133.378 33.3714 132.825 33.3014C132.27 33.2315 131.475 32.9516 131.093 33.1615C130.714 33.3714 130.506 33.5813 130.33 33.3014C130.156 33.0243 129.705 32.0797 129.705 32.0797L128.702 32.1147V34.3483C128.702 34.3483 128.25 35.2202 127.455 35.745C126.66 36.2697 126.347 37.1766 125.931 36.8618C125.514 36.5469 124.997 36.4796 125.063 35.8149C125.133 35.1502 125.41 34.8031 125.546 34.3133C125.685 33.8262 125.963 33.4414 125.477 32.9516C124.994 32.4645 124.578 32.0447 124.126 32.007C123.675 31.972 123.435 31.972 123.123 31.8321C122.811 31.6922 122.223 31.0974 122.015 30.7503C121.807 30.4031 121.148 30.2255 120.664 30.4731C120.181 30.718 119.797 31.2078 119.661 31.7998C119.522 32.3919 118.761 32.4645 118.345 32.5695C117.928 32.6744 116.855 32.8144 116.578 32.7094C116.3 32.6044 116.439 32.1846 116.578 32.0124C116.717 31.8375 116.925 31.4204 116.925 31.2454C116.925 31.0705 116.778 30.3385 116.418 30.2686C116.057 30.1986 115.158 29.8138 115.158 29.2917C115.158 28.7696 115.537 27.5828 115.158 27.1953C114.779 26.8105 114.637 26.0785 114.015 26.3934C113.391 26.7082 112.561 27.3003 112.112 27.3702C111.661 27.4402 110.38 27.2303 109.929 27.2303C109.478 27.2303 105.981 25.8686 105.53 25.5215C105.079 25.1716 105.495 24.9617 104.558 24.9617C103.621 24.9617 101.996 25.1016 101.267 25.0667C100.538 25.0317 99.5695 24.9267 99.0837 24.5796C98.6005 24.2297 98.6326 24.5096 98.355 23.9498C98.0774 23.3901 97.9759 22.6581 97.4181 22.6581C96.8602 22.6581 96.5506 22.5881 95.998 22.938C95.4428 23.2878 95.2693 23.53 94.6474 23.4977C94.0228 23.4628 92.9845 23.5677 92.3599 23.1479C91.7353 22.7281 91.423 21.9961 91.2521 21.5763C91.0786 21.1565 90.9745 21.2964 91.0786 20.8066C91.1827 20.3195 91.7246 20.0047 91.0386 19.967C90.3526 19.932 89.0714 19.6871 88.8632 19.7221C88.655 19.7571 88.0998 20.002 87.6513 20.1419C87.2002 20.2819 85.7108 20.4191 85.0889 20.4191C84.4669 20.4191 84.5337 20.2442 83.9811 20.3841C83.4259 20.5241 82.3529 20.3841 81.0717 20.3491C79.7904 20.3142 79.6169 19.9993 79.027 19.7571C78.4398 19.5122 77.8846 19.6172 77.7458 19.6521C77.607 19.6871 77.0865 20.1069 76.5687 19.8621C76.0508 19.6172 73.7286 18.3604 73.7286 18.3604C73.7286 18.3604 72.378 18.1155 72.2045 18.2904C72.031 18.4627 71.5131 19.1973 70.715 19.5822C69.9196 19.9643 68.1873 20.4541 68.1873 20.4541C68.1873 20.4541 66.559 20.4891 65.5874 20.1742C64.6158 19.8594 64.098 19.5445 63.8204 19.6145C63.5428 19.6844 62.0534 20.7663 61.8131 20.9762C61.5729 21.1861 60.4972 21.0461 59.4936 21.0811C58.4899 21.1161 56.827 20.5214 56.1677 20.4514C55.5084 20.3814 54.8865 20.3115 54.5742 20.4514C54.2619 20.5913 53.397 20.9385 53.2929 21.2534C53.1888 21.5682 52.9806 22.4751 52.9139 23.0349C52.8445 23.5946 53.2609 24.5015 53.4691 24.8864C53.6773 25.2685 54.2325 25.8982 53.8481 26.318C53.4691 26.7378 52.4628 27.4348 51.4565 27.5048C50.4502 27.5748 49.4813 27.6797 48.7899 27.9246C48.0986 28.1695 47.127 28.4844 46.6786 28.6943C46.2301 28.9042 45.5708 29.7761 45.1544 30.1259C44.738 30.4758 44.359 30.6857 43.8385 30.4408C43.318 30.1959 43.1098 30.4408 42.971 29.916C42.8322 29.3913 42.971 29.0091 42.3117 29.0091C41.6524 29.0091 40.5447 28.8692 40.4085 29.0091C40.2697 29.1491 40.3391 29.1141 39.6131 29.6738C38.8844 30.2336 38.436 31.5603 38.1931 31.7702C37.9502 31.9801 37.4644 32.3622 37.2588 32.6771C37.0506 32.992 36.6716 33.0969 36.9465 33.3418C37.2241 33.5867 37.2588 33.6567 37.2241 34.0765C37.1894 34.4963 37.3629 34.2864 37.6405 34.7062C37.9181 35.126 37.6752 35.1933 37.814 35.823C37.9528 36.4527 38.4013 36.1379 38.5427 36.9048C38.6815 37.6745 38.4386 38.7563 38.2304 39.2111C38.0222 39.6659 37.7473 39.9458 37.814 40.6078C37.8834 41.2725 37.9528 41.5847 38.3345 42.0395C38.7136 42.4943 38.855 43.5411 39.4423 44.2731C40.0295 45.0078 40.8276 45.25 41.1746 46.2295C41.5216 47.2064 41.4522 47.9061 41.6577 48.5358C41.8659 49.1655 42.4211 49.2328 42.592 50.0724C42.7655 50.9121 42.5573 51.5041 43.0084 52.0289C43.4595 52.5536 44.4978 52.7985 44.4978 53.6328C44.4978 54.467 44.7407 54.6096 45.3306 55.0644C45.9178 55.5192 47.9972 56.741 47.7543 57.1931C47.5114 57.6452 44.1882 57.5429 44.012 57.9628C43.8385 58.3826 44.3243 60.1964 44.5672 60.6512C44.8101 61.106 46.4383 63.9343 46.1954 64.4941C45.9525 65.0538 46.126 65.401 45.7123 66.098C45.2959 66.795 45.053 67.8068 44.8128 68.6464C44.5699 69.4861 44.6046 69.7633 43.98 69.9382C43.3554 70.1131 42.8028 70.1481 41.5883 70.358C40.3738 70.5679 39.6852 70.358 39.1647 70.5679C38.6442 70.7778 38.7136 70.6728 38.2651 71.3375C37.814 72.0023 27.1131 82.616 26.6273 83.1757C26.1441 83.7355 20.149 91.4859 19.7006 92.0106C19.2495 92.5354 18.8331 93.5823 18.1418 94.107C17.4504 94.6318 16.4441 95.8535 15.7875 96.4133C15.1282 96.973 15.0241 96.5182 14.92 97.2152C14.8159 97.9122 14.7465 98.402 14.541 98.6119C14.3328 98.8218 14.0205 98.9268 13.9858 99.6588C13.9511 100.393 14.7492 101.09 14.7492 101.65C14.7492 102.21 14.888 103.254 14.888 104.024C14.888 104.793 14.2634 109.051 14.2634 109.051C14.2634 109.051 13.7082 109.82 13.9858 110.063C14.2634 110.307 14.5757 110.098 14.5063 110.622C14.4369 111.147 14.4716 111.669 14.4716 111.669C14.4716 111.669 14.8506 111.949 14.7492 112.366C14.6451 112.786 15.4085 113.483 15.4085 113.483C15.4085 113.483 17.0367 114.74 17.349 115.125C17.6613 115.509 18.5261 116.241 17.8695 116.661C17.2102 117.081 16.3801 117.533 15.582 116.801C14.7865 116.066 12.9154 114.915 12.3602 114.672C11.805 114.428 11.6689 114.498 11.4607 114.847C11.2525 115.197 10.1794 116.594 9.2452 117.326C8.3083 118.061 8.17217 118.967 7.82517 119.422C7.47817 119.877 7.09647 119.804 6.64804 120.504C6.19694 121.201 5.71113 121.516 6.0608 122.496C6.4078 123.472 6.4772 124.172 6.33573 124.729C6.19693 125.289 5.88463 124.974 5.71113 125.706C5.53763 126.441 5.71113 127.348 5.36413 127.592C5.01713 127.837 4.39253 128.327 4.0829 128.432C3.77327 128.537 3.5624 127.945 3.00987 128.432C2.45467 128.919 1.31223 130.633 1.0026 131.33C0.690302 132.027 0.415371 132.902 0.378001 133.532C0.343301 134.161 0.169801 135.068 0.0657008 135.488C-0.0383994 135.908 -0.00369934 136.605 0.0657008 136.745C0.135101 136.885 0.412701 136.99 0.965233 136.815C1.52043 136.64 2.62817 136.328 2.7643 136.99C2.90043 137.652 2.6949 137.967 3.0072 138.282C3.3195 138.596 3.4236 139.083 3.6665 140.028C3.9094 140.97 3.28747 140.798 4.2911 141.495C5.29473 142.192 7.09914 143.031 7.54757 143.556C7.99867 144.081 9.2105 147.956 10.1474 148.338C11.0843 148.72 12.1547 148.548 12.814 148.688C13.4733 148.828 14.4075 149.63 14.4075 150.19C14.4075 150.749 14.7198 151.551 14.928 151.656C15.1362 151.761 15.307 152.181 15.7955 152.353C16.2786 152.528 16.4201 152.283 16.7297 152.073C17.042 151.864 17.4211 151.654 17.9416 151.934C18.4621 152.211 18.8411 152.248 19.2575 151.969C19.6739 151.689 20.9898 149.49 21.5077 149.175C22.0282 148.86 23.1012 149.14 23.2747 149.105C23.4482 149.07 24.1742 148.44 24.4518 149.28C24.7294 150.12 23.9687 150.257 25.3193 151.132C26.67 152.003 30.5137 153.925 31.0021 153.96C31.4853 153.995 31.7976 153.82 32.6304 153.54C33.4632 153.26 34.1198 153.785 34.5709 153.82C35.022 153.855 36.0603 153.47 36.4741 153.438C36.8905 153.403 36.8905 153.648 37.4083 154.208C37.9288 154.767 38.2037 154.837 38.9671 154.8C39.7305 154.765 39.5917 154.974 40.1443 155.044C40.6995 155.114 40.3872 154.38 41.4255 154.695C42.4638 155.009 44.1294 156.651 45.0637 157.001C45.9979 157.351 46.8307 157.488 47.3138 157.001C47.797 156.514 47.7302 156.199 48.6992 156.304C49.6708 156.409 50.3968 156.269 50.3968 156.269C50.3968 156.269 52.3 155.572 52.9593 155.604C53.6186 155.639 54.3793 155.429 55.0039 156.301C55.6285 157.173 55.9755 157.943 56.7709 158.745C57.5664 159.547 58.917 159.862 59.1252 160.001C59.3334 160.141 59.958 160.978 60.3023 161.678C60.6493 162.375 61.4795 162.725 61.7224 163.282C61.9653 163.842 62.2055 164.189 62.8301 164.122C63.4547 164.052 64.5277 163.982 65.1176 163.772C65.7049 163.562 66.2948 162.515 66.7806 162.55C67.2664 162.585 67.8536 162.585 68.3394 162.168C68.8225 161.748 69.3777 160.911 69.7594 160.771C70.1385 160.631 71.1448 160.701 71.5959 160.246C72.047 159.792 71.2489 159.025 71.9749 158.99C72.7036 158.955 73.742 159.165 74.2625 158.99C74.783 158.815 75.9254 158.22 76.3418 158.22C76.7582 158.22 77.0705 158.395 77.6577 158.325C78.2449 158.255 79.2166 157.66 79.2166 157.66C79.2166 157.66 80.8795 158.22 81.8484 158.115C82.8173 158.01 84.8967 156.823 85.4145 156.823C85.9324 156.823 87.0427 157.348 87.7341 157.138C88.4254 156.928 88.4254 156.021 89.7413 156.021C91.0573 156.021 92.133 156.231 92.512 155.706C92.891 155.182 95.3868 149.038 95.6297 148.898C95.8726 148.758 100.306 147.501 100.757 147.361C101.208 147.221 101.59 147.081 102.212 146.697C102.837 146.314 103.007 145.545 103.493 145.475C103.976 145.405 104.118 145.23 104.497 145.055C104.876 144.88 104.876 144.148 104.876 144.148L104.911 142.821L104.98 141.845C104.98 141.845 106.574 141.425 107.476 141.53C108.375 141.635 108.343 141.495 108.447 142.122C108.551 142.751 108.135 143.274 109.107 143.204C110.078 143.134 110.77 143.483 111.047 142.889C111.322 142.297 111.29 141.877 111.568 141.737C111.845 141.597 112.606 141.737 112.814 142.017C113.022 142.297 113.543 142.751 113.922 142.714C114.301 142.679 114.338 142.227 114.821 142.364C115.305 142.504 115.721 143.029 116.103 142.924C116.482 142.819 116.727 143.099 117.245 142.084C117.766 141.072 118.283 140.165 119.044 140.442C119.808 140.722 120.395 141.139 120.707 140.93C121.019 140.72 121.124 140.265 121.607 139.953C122.09 139.638 123.406 138.879 123.79 139.102C124.169 139.326 124.415 139.813 124.658 140.023C124.901 140.233 127.81 140.023 128.053 140.198C128.296 140.373 129.265 141.279 129.852 141.944C130.439 142.609 130.372 143.376 131.064 143.831C131.755 144.285 132.206 144.145 132.553 144.495C132.9 144.845 134.008 145.192 134.251 145.265C134.494 145.338 134.91 145.125 134.942 146C134.977 146.872 134.699 147.956 135.706 147.991C136.712 148.026 136.952 147.294 136.952 147.294C136.952 147.294 137.99 148.761 138.476 148.691C138.959 148.621 140.139 147.609 141.004 147.784C141.872 147.959 142.389 148.831 141.733 149.181C141.073 149.53 139.934 149.81 140.174 150.682C140.417 151.554 140.729 152.079 141.247 151.659C141.767 151.239 141.73 149.982 142.389 150.122C143.049 150.262 142.91 150.472 143.153 151.589C143.396 152.706 143.569 153.508 144.226 153.193C144.885 152.878 144.746 152.668 144.954 152.076C145.163 151.484 144.85 150.784 145.891 150.749C146.93 150.714 147.242 150.644 147.899 150.784C148.558 150.924 149.492 150.33 149.943 150.854C150.394 151.379 151.12 151.656 151.71 151.519C152.298 151.379 153.061 151.239 152.645 152.149C152.228 153.056 153.128 156.479 153.336 156.654C153.544 156.829 154.791 157.109 154.791 157.109L155.933 157.283C155.933 157.283 156.002 157.423 156.488 157.843C156.971 158.263 157.596 158.088 157.874 157.423C158.149 156.759 157.874 156.342 158.498 156.377C159.123 156.412 159.988 156.726 160.022 157.178C160.057 157.633 160.057 158.26 160.265 158.365C160.473 158.47 160.82 158.61 161.098 158.89C161.373 159.17 162.136 159.1 161.893 159.66C161.651 160.219 161.026 160.499 160.959 160.951C160.89 161.406 161.41 161.858 161.651 162.033C161.891 162.208 162.414 164.302 161.824 164.547C161.237 164.792 160.852 165.211 161.165 165.734C161.477 166.258 161.512 166.258 161.165 166.92C160.818 167.585 160.644 167.932 160.922 168.317C161.199 168.699 160.575 169.087 160.543 169.364C160.508 169.644 161.616 169.609 160.922 170.236C160.231 170.865 159.085 170.586 159.123 171.143C159.157 171.702 159.47 172.154 159.886 172.399C160.303 172.644 160.615 172.399 160.719 173.096C160.823 173.793 161.378 174.805 162.382 174.948C163.386 175.088 163.316 174.493 163.802 174.913C164.285 175.333 163.802 175.438 164.181 176.345C164.56 177.251 165.254 176.974 165.358 177.356C165.462 177.739 164.979 178.613 165.636 179.138C166.295 179.663 167.056 180.185 167.368 179.625C167.68 179.065 167.68 177.739 168.131 177.634C168.583 177.529 169.274 177.109 169.482 178.368C169.69 179.625 170.069 180.36 169.794 180.917C169.517 181.476 168.999 181.197 169.17 182.034C169.343 182.873 169.621 183.535 169.549 184.477C169.479 185.419 168.441 185.279 168.785 186.014C169.132 186.748 170.171 186.853 170.275 186.853C170.379 186.853 171.348 187.655 171.038 188.145C170.726 188.632 170.205 188.947 170.205 189.717C170.205 190.486 169.997 190.694 170.552 190.973C171.108 191.253 171.177 191.393 171.695 191.743C172.215 192.093 172.386 191.848 173.046 191.988C173.705 192.128 173.705 192.023 173.878 192.618C174.052 193.21 173.809 193.7 174.642 193.63C175.475 193.56 176.513 193.105 176.857 193.63C177.204 194.154 177.274 194.259 177.621 194.469C177.968 194.679 178.937 194.329 179.006 194.889C179.075 195.449 179.179 197.82 179.179 197.82L179.353 199.461C179.353 199.461 179.873 200.788 179.873 201.208C179.873 201.628 179.665 202.674 179.665 202.674L180.461 203.896C180.461 203.896 180.287 204.246 180.357 204.873C180.426 205.503 181.048 205.503 181.048 206.13C181.048 206.757 181.427 207.317 181.843 207.491C182.26 207.666 182.639 207.386 183.576 207.841C184.513 208.296 186.624 209.728 186.589 210.008C186.555 210.287 185.447 209.973 184.753 210.008C184.061 210.043 183.957 209.903 183.298 209.868C182.639 209.833 182.465 209.903 181.083 209.903C179.7 209.903 179.489 209.416 178.832 209.833C178.173 210.253 178.659 210.425 177.829 210.705C176.996 210.984 176.857 211.159 176.409 210.67C175.958 210.183 176.305 209.83 175.992 209.553C175.68 209.273 175.197 209.066 175.197 209.066C175.197 209.066 174.746 207.252 174.364 207.914C173.985 208.579 173.777 209.171 173.777 209.171C173.777 209.171 173.048 208.506 172.739 209.171C172.426 209.835 172.669 210.357 172.392 210.847C172.114 211.334 171.214 211.687 170.867 211.127C170.52 210.567 169.482 209.381 169.482 209.381L168.236 208.789L167.68 207.357C167.68 207.357 166.952 206.975 166.885 207.812C166.816 208.651 167.16 209.278 166.469 209.173C165.777 209.068 165.636 209.138 165.532 208.439C165.428 207.742 164.944 206.657 164.736 207.322C164.528 207.987 164.528 208.299 164.459 208.789C164.389 209.276 163.938 209.418 163.626 209.66C163.313 209.905 163.247 210.395 162.862 210.567C162.483 210.742 161.824 210.949 162.099 209.87C162.377 208.789 162.377 208.439 162.619 207.879C162.862 207.319 162.966 206.762 162.619 206.377C162.272 205.995 162.307 204.773 161.616 205.47C160.925 206.167 160.925 206.482 160.578 206.482C160.231 206.482 160.022 205.785 159.053 206.272C158.082 206.759 158.325 206.797 157.876 207.179C157.425 207.561 156.595 206.829 156.803 207.739C157.011 208.646 156.248 208.646 156.04 208.751C155.832 208.856 155.519 208.471 155.797 209.591C156.075 210.707 155.97 210.987 156.213 211.687C156.456 212.384 156.352 214.095 156.491 214.655C156.63 215.215 156.942 215.142 157.842 215.877C158.741 216.612 159.713 216.297 158.915 217.553C158.119 218.81 157.668 219.367 157.529 220.067C157.39 220.764 158.084 221.953 158.116 222.233C158.151 222.513 158.151 223.455 157.492 223.77C156.833 224.085 155.343 224.12 154.166 224.505C152.989 224.887 152.572 223.98 152.468 225.274C152.364 226.566 152.225 227.193 152.538 228.068C152.85 228.94 153.576 229.672 152.711 229.672C151.846 229.672 151.118 229.986 151.118 230.406C151.118 230.826 150.979 231.278 150.285 231.453C149.594 231.628 149.247 231.978 149.177 232.398C149.108 232.817 148.969 233.549 148.518 233.2C148.067 232.85 146.924 232.92 146.924 232.92C146.924 232.92 145.782 232.64 145.782 233.722C145.782 234.803 145.886 234.943 146.511 235.363C147.135 235.783 147.549 236.305 147.482 236.935C147.413 237.565 146.927 237.737 146.962 238.262C146.996 238.786 146.375 238.436 146.233 238.996C146.094 239.556 146.233 239.868 146.094 240.323C145.955 240.778 145.574 241.268 144.535 240.915C143.497 240.565 141.383 239.658 141.036 240.075C140.689 240.495 140.657 240.6 140.481 240.947C140.307 241.297 139.926 241.227 140.134 241.854C140.342 242.484 140.513 242.341 140.617 243.111C140.721 243.881 140.652 243.741 141.1 244.752C141.551 245.764 141.447 246.079 142.173 247.021C142.902 247.966 143.801 248.698 144.565 248.873C145.328 249.047 146.193 249.642 146.193 249.642C146.193 249.642 146.468 250.899 147.37 251.004C148.27 251.109 150.106 251.424 150.974 251.424C151.841 251.424 152.637 251.354 153.018 250.864C153.397 250.377 153.678 250.024 153.226 249.607C152.775 249.187 152.119 248.663 152.847 248.595C153.576 248.525 153.68 248.77 153.851 248.316C154.025 247.861 153.747 247.059 154.23 247.933C154.713 248.805 156.446 249.365 156.654 249.015C156.862 248.665 157.033 248.038 157.345 247.689C157.657 247.339 157.588 247.164 158.488 247.201C159.387 247.236 159.526 247.516 159.977 246.992C160.428 246.467 160.428 246.362 160.949 246.257C161.469 246.152 161.883 245.875 162.264 245.522C162.644 245.172 163.476 244.335 164.552 244.335C165.628 244.335 166.319 244.195 167.6 244.3C168.882 244.405 169.816 244.3 170.683 245.312C171.551 246.324 172.173 245.904 172.624 247.126C173.075 248.348 173.638 249.836 173.547 250.63L173.526 250.592L173.513 250.573Z" fill="#CFE8D0"/>
<path opacity="0.7" d="M75.46 128.535C75.88 128.465 76.22 128.37 76.48 128.25C76.75 128.14 76.985 127.975 77.185 127.755C77.395 127.535 77.625 127.235 77.875 126.855L78.37 126.12L76.765 118.185H77.83L79.09 125.055L79.705 124.05C80.135 123.35 80.5 122.735 80.8 122.205C81.1 121.665 81.355 121.18 81.565 120.75C81.785 120.31 81.965 119.885 82.105 119.475C82.245 119.065 82.38 118.635 82.51 118.185H83.515C83.385 118.665 83.24 119.115 83.08 119.535C82.93 119.955 82.74 120.395 82.51 120.855C82.29 121.305 82.01 121.82 81.67 122.4C81.34 122.97 80.925 123.655 80.425 124.455L79.21 126.39C78.87 126.94 78.555 127.4 78.265 127.77C77.975 128.15 77.69 128.45 77.41 128.67C77.14 128.9 76.86 129.065 76.57 129.165C76.28 129.275 75.955 129.34 75.595 129.36L75.46 128.535ZM87.3973 126L89.6473 115.35H90.6973L89.6923 120.105H91.2373L95.8273 115.35H97.0723L92.0623 120.465L95.2123 126H94.0873L91.2973 121.02H89.4973L88.4473 126H87.3973ZM99.2289 126.15C98.6589 126.15 98.1639 126 97.7439 125.7C97.3239 125.4 97.0039 125 96.7839 124.5C96.5639 124 96.4539 123.46 96.4539 122.88C96.4539 122.26 96.5689 121.665 96.7989 121.095C97.0389 120.515 97.3589 120 97.7589 119.55C98.1689 119.09 98.6339 118.725 99.1539 118.455C99.6739 118.185 100.219 118.05 100.789 118.05C101.419 118.05 101.939 118.225 102.349 118.575C102.759 118.915 103.049 119.33 103.219 119.82L103.579 118.185H104.599L103.219 124.665C103.209 124.695 103.199 124.73 103.189 124.77C103.189 124.8 103.189 124.83 103.189 124.86C103.189 125.02 103.284 125.1 103.474 125.1L103.279 126C103.199 126.01 103.124 126.02 103.054 126.03C102.994 126.04 102.934 126.045 102.874 126.045C102.644 126.035 102.469 125.975 102.349 125.865C102.239 125.745 102.184 125.605 102.184 125.445C102.184 125.385 102.189 125.32 102.199 125.25C102.209 125.18 102.224 125.085 102.244 124.965C102.274 124.845 102.309 124.685 102.349 124.485C101.949 124.995 101.464 125.4 100.894 125.7C100.334 126 99.7789 126.15 99.2289 126.15ZM99.6489 125.25C99.8989 125.25 100.164 125.2 100.444 125.1C100.734 125 101.014 124.865 101.284 124.695C101.554 124.515 101.794 124.305 102.004 124.065C102.224 123.825 102.384 123.575 102.484 123.315L102.979 120.9C102.939 120.54 102.819 120.215 102.619 119.925C102.419 119.635 102.169 119.4 101.869 119.22C101.569 119.04 101.239 118.95 100.879 118.95C100.429 118.95 100.004 119.06 99.6039 119.28C99.2039 119.5 98.8439 119.795 98.5239 120.165C98.2139 120.535 97.9689 120.945 97.7889 121.395C97.6089 121.835 97.5189 122.28 97.5189 122.73C97.5189 123.19 97.6089 123.61 97.7889 123.99C97.9689 124.37 98.2139 124.675 98.5239 124.905C98.8439 125.135 99.2189 125.25 99.6489 125.25ZM106.994 118.185H107.894L107.579 119.7C107.979 119.21 108.454 118.815 109.004 118.515C109.564 118.205 110.124 118.05 110.684 118.05C111.264 118.05 111.759 118.205 112.169 118.515C112.589 118.815 112.909 119.215 113.129 119.715C113.349 120.215 113.459 120.755 113.459 121.335C113.459 121.945 113.344 122.54 113.114 123.12C112.884 123.69 112.569 124.205 112.169 124.665C111.769 125.125 111.309 125.49 110.789 125.76C110.269 126.02 109.714 126.15 109.124 126.15C108.504 126.15 107.989 125.98 107.579 125.64C107.169 125.3 106.874 124.88 106.694 124.38L105.674 129.195H104.654L106.994 118.185ZM109.034 125.25C109.484 125.25 109.909 125.14 110.309 124.92C110.719 124.7 111.079 124.41 111.389 124.05C111.699 123.69 111.944 123.285 112.124 122.835C112.304 122.385 112.394 121.94 112.394 121.5C112.394 121.03 112.304 120.605 112.124 120.225C111.954 119.835 111.709 119.525 111.389 119.295C111.069 119.065 110.689 118.95 110.249 118.95C110.009 118.95 109.744 119 109.454 119.1C109.174 119.2 108.894 119.345 108.614 119.535C108.344 119.715 108.104 119.92 107.894 120.15C107.684 120.38 107.529 120.625 107.429 120.885L106.919 123.285C106.989 123.655 107.119 123.99 107.309 124.29C107.509 124.58 107.754 124.815 108.044 124.995C108.344 125.165 108.674 125.25 109.034 125.25ZM114.49 126L116.14 118.185H122.41L120.745 126H119.725L121.21 118.995H116.98L115.51 126H114.49ZM125.958 126.15C125.388 126.15 124.893 126 124.473 125.7C124.053 125.4 123.733 125 123.513 124.5C123.293 124 123.183 123.46 123.183 122.88C123.183 122.26 123.298 121.665 123.528 121.095C123.768 120.515 124.088 120 124.488 119.55C124.898 119.09 125.363 118.725 125.883 118.455C126.403 118.185 126.948 118.05 127.518 118.05C128.148 118.05 128.668 118.225 129.078 118.575C129.488 118.915 129.778 119.33 129.948 119.82L130.308 118.185H131.328L129.948 124.665C129.938 124.695 129.928 124.73 129.918 124.77C129.918 124.8 129.918 124.83 129.918 124.86C129.918 125.02 130.013 125.1 130.203 125.1L130.008 126C129.928 126.01 129.853 126.02 129.783 126.03C129.723 126.04 129.663 126.045 129.603 126.045C129.373 126.035 129.198 125.975 129.078 125.865C128.968 125.745 128.913 125.605 128.913 125.445C128.913 125.385 128.918 125.32 128.928 125.25C128.938 125.18 128.953 125.085 128.973 124.965C129.003 124.845 129.038 124.685 129.078 124.485C128.678 124.995 128.193 125.4 127.623 125.7C127.063 126 126.508 126.15 125.958 126.15ZM126.378 125.25C126.628 125.25 126.893 125.2 127.173 125.1C127.463 125 127.743 124.865 128.013 124.695C128.283 124.515 128.523 124.305 128.733 124.065C128.953 123.825 129.113 123.575 129.213 123.315L129.708 120.9C129.668 120.54 129.548 120.215 129.348 119.925C129.148 119.635 128.898 119.4 128.598 119.22C128.298 119.04 127.968 118.95 127.608 118.95C127.158 118.95 126.733 119.06 126.333 119.28C125.933 119.5 125.573 119.795 125.253 120.165C124.943 120.535 124.698 120.945 124.518 121.395C124.338 121.835 124.248 122.28 124.248 122.73C124.248 123.19 124.338 123.61 124.518 123.99C124.698 124.37 124.943 124.675 125.253 124.905C125.573 125.135 125.948 125.25 126.378 125.25ZM133.708 118.185H134.653L134.263 119.955C134.683 119.365 135.178 118.9 135.748 118.56C136.318 118.22 136.893 118.05 137.473 118.05C137.863 118.05 138.193 118.13 138.463 118.29C138.733 118.45 138.933 118.68 139.063 118.98C139.203 119.28 139.268 119.65 139.258 120.09C139.558 119.64 139.883 119.265 140.233 118.965C140.583 118.665 140.958 118.44 141.358 118.29C141.758 118.13 142.153 118.05 142.543 118.05C142.963 118.05 143.298 118.13 143.548 118.29C143.798 118.44 143.983 118.66 144.103 118.95C144.223 119.24 144.283 119.58 144.283 119.97C144.283 120.19 144.268 120.42 144.238 120.66C144.208 120.9 144.163 121.155 144.103 121.425L143.128 126H142.108L143.023 121.635C143.123 121.165 143.173 120.76 143.173 120.42C143.173 119.93 143.073 119.57 142.873 119.34C142.673 119.1 142.378 118.98 141.988 118.98C141.618 118.98 141.253 119.075 140.893 119.265C140.533 119.455 140.198 119.72 139.888 120.06C139.578 120.39 139.318 120.78 139.108 121.23L138.103 126H137.083L137.998 121.635C138.058 121.385 138.098 121.16 138.118 120.96C138.148 120.76 138.163 120.57 138.163 120.39C138.163 119.91 138.063 119.555 137.863 119.325C137.663 119.095 137.368 118.98 136.978 118.98C136.428 118.98 135.888 119.185 135.358 119.595C134.838 120.005 134.413 120.545 134.083 121.215L133.078 126H132.058L133.708 118.185ZM148.392 126.15C147.822 126.15 147.327 126 146.907 125.7C146.487 125.4 146.167 125 145.947 124.5C145.727 124 145.617 123.46 145.617 122.88C145.617 122.26 145.732 121.665 145.962 121.095C146.202 120.515 146.522 120 146.922 119.55C147.332 119.09 147.797 118.725 148.317 118.455C148.837 118.185 149.382 118.05 149.952 118.05C150.582 118.05 151.102 118.225 151.512 118.575C151.922 118.915 152.212 119.33 152.382 119.82L152.742 118.185H153.762L152.382 124.665C152.372 124.695 152.362 124.73 152.352 124.77C152.352 124.8 152.352 124.83 152.352 124.86C152.352 125.02 152.447 125.1 152.637 125.1L152.442 126C152.362 126.01 152.287 126.02 152.217 126.03C152.157 126.04 152.097 126.045 152.037 126.045C151.807 126.035 151.632 125.975 151.512 125.865C151.402 125.745 151.347 125.605 151.347 125.445C151.347 125.385 151.352 125.32 151.362 125.25C151.372 125.18 151.387 125.085 151.407 124.965C151.437 124.845 151.472 124.685 151.512 124.485C151.112 124.995 150.627 125.4 150.057 125.7C149.497 126 148.942 126.15 148.392 126.15ZM148.812 125.25C149.062 125.25 149.327 125.2 149.607 125.1C149.897 125 150.177 124.865 150.447 124.695C150.717 124.515 150.957 124.305 151.167 124.065C151.387 123.825 151.547 123.575 151.647 123.315L152.142 120.9C152.102 120.54 151.982 120.215 151.782 119.925C151.582 119.635 151.332 119.4 151.032 119.22C150.732 119.04 150.402 118.95 150.042 118.95C149.592 118.95 149.167 119.06 148.767 119.28C148.367 119.5 148.007 119.795 147.687 120.165C147.377 120.535 147.132 120.945 146.952 121.395C146.772 121.835 146.682 122.28 146.682 122.73C146.682 123.19 146.772 123.61 146.952 123.99C147.132 124.37 147.377 124.675 147.687 124.905C148.007 125.135 148.382 125.25 148.812 125.25ZM157.267 122.115L155.272 118.185H156.367L157.897 121.245L157.957 121.47L158.122 121.26L160.972 118.185H162.067L158.407 122.115L160.402 126H159.307L157.777 122.955L157.687 122.745L157.537 122.94L154.717 126H153.607L157.267 122.115Z" fill="#131415"/>
<path fill-rule="evenodd" clip-rule="evenodd" d="M34.8165 85.9037C37.8424 82.9384 41.9463 81.2725 46.2254 81.2725C50.5046 81.2725 54.6085 82.9384 57.6343 85.9037C60.6601 88.869 62.36 92.8908 62.36 97.0844C62.36 108.943 46.2254 126.449 46.2254 126.449C46.2254 126.449 30.0908 108.943 30.0908 97.0844C30.0908 92.8908 31.7907 88.869 34.8165 85.9037ZM52.3101 97.2785L46.2254 91.1937L40.1406 97.2785L46.2254 103.363L52.3101 97.2785Z" fill="#01594D"/>
<path d="M88.168 109.024V106H78.052V84.724H80.968V103.984H86.044V84.724H88.96V104.596H90.436V109.024H88.168ZM98.7247 106.324C97.5007 106.324 96.5047 106.192 95.7367 105.928C94.9687 105.64 94.4047 105.112 94.0447 104.344C93.6847 103.576 93.5047 102.448 93.5047 100.96V92.32C93.5047 90.616 93.9007 89.452 94.6927 88.828C95.5087 88.18 96.8047 87.856 98.5807 87.856C100.333 87.856 101.605 88.18 102.397 88.828C103.213 89.452 103.621 90.616 103.621 92.32V96.964H96.2407V101.968C96.2407 103 96.3967 103.72 96.7087 104.128C97.0447 104.536 97.6927 104.74 98.6527 104.74C99.5407 104.74 100.129 104.548 100.417 104.164C100.729 103.756 100.885 103.024 100.885 101.968V99.52H103.621V100.924C103.621 102.388 103.441 103.516 103.081 104.308C102.721 105.076 102.181 105.604 101.461 105.892C100.741 106.18 99.8287 106.324 98.7247 106.324ZM96.2407 95.632H100.885V92.176C100.885 91.264 100.729 90.604 100.417 90.196C100.129 89.764 99.5167 89.548 98.5807 89.548C97.6687 89.548 97.0447 89.764 96.7087 90.196C96.3967 90.604 96.2407 91.264 96.2407 92.176V95.632ZM115.438 106V90.196H111.766V88.18H121.954V90.196H118.246V106H115.438ZM125.213 110.212C124.661 110.212 124.157 110.164 123.701 110.068C123.269 109.996 122.921 109.936 122.657 109.888V108.34C122.753 108.364 122.921 108.4 123.161 108.448C123.425 108.52 123.725 108.556 124.061 108.556C124.397 108.556 124.781 108.496 125.213 108.376C125.645 108.256 125.993 107.92 126.257 107.368C126.353 107.152 126.473 106.888 126.617 106.576C126.785 106.288 126.821 105.952 126.725 105.568L122.729 88.18H125.573L128.561 103.264H128.525L131.441 88.18H134.033L130.253 105.064C129.893 106.84 129.305 108.136 128.489 108.952C127.697 109.792 126.605 110.212 125.213 110.212ZM138.395 106V90.196H134.723V88.18H144.911V90.196H141.203V106H138.395Z" fill="#131415"/>
</svg>
