<svg width="476" height="326" viewBox="0 0 476 326" fill="none" xmlns="http://www.w3.org/2000/svg">
<path d="M205.975 297.452C205.949 297.679 206.469 297.286 206.688 297.452C206.906 297.619 207.017 297.341 207.236 297.452C207.454 297.564 207.841 298.05 207.784 297.366C207.73 296.683 207.125 296.513 207.347 295.906C207.565 295.296 207.302 295.296 207.79 294.91C208.278 294.523 208.554 294.299 208.554 293.75C208.554 293.2 208.006 292.811 207.895 292.092C207.784 291.373 208.113 291.095 208.113 290.325C208.113 289.555 208.443 289.884 208.113 289.166C207.784 288.447 207.508 288.115 207.261 288.227C207.014 288.338 206.849 288.281 206.631 288.837C206.412 289.389 206.136 289.888 205.971 289.722C205.807 289.555 206.025 289.555 205.971 289.223C205.918 288.891 205.911 288.207 205.911 288.207C205.911 288.207 205.588 287.744 205.426 288.207C205.262 288.671 204.989 288.891 204.989 288.891C204.989 288.891 204.276 288.383 204.276 288C204.276 287.616 204.66 286.955 204.935 286.68C205.208 286.406 206.415 285.466 206.415 285.466L207.058 284.926C207.058 284.926 206.716 284.719 206.415 284.926C206.114 285.134 205.373 285.629 205.373 285.629C205.373 285.629 204.181 285.712 204.099 285.176C204.016 284.636 204.058 283.808 204.099 283.102C204.14 282.4 204.127 281.86 204.051 281.403C203.975 280.949 203.357 279.62 203.522 279.288C203.687 278.956 204.096 278.336 204.264 278.128C204.428 277.921 204.593 277.55 204.387 277.176C204.181 276.803 203.852 276.387 204.14 276.141C204.428 275.895 204.881 275.726 205.046 275.643C205.211 275.56 205.829 274.733 205.829 274.733C205.829 274.733 206.279 275.106 206.279 275.397C206.279 275.688 206.266 275.48 206.025 276.02C205.788 276.56 205.499 276.809 205.664 277.595C205.829 278.384 206.485 278.921 206.938 279.253C207.388 279.585 207.721 279.793 207.803 280.496C207.885 281.198 208.05 281.697 207.885 282.112C207.721 282.527 207.103 282.939 207.679 283.026C208.253 283.109 208.557 283.067 208.557 283.067C208.557 283.067 208.57 283.358 208.557 283.483C208.544 283.607 208.297 283.773 208.215 283.898C208.132 284.022 208.297 284.189 208.874 283.732C209.447 283.278 209.904 282.86 210.354 282.489C210.807 282.115 211.298 281.825 211.466 281.412C211.631 280.997 212.001 280.46 211.837 280.045C211.672 279.63 211.631 279.422 211.139 279.505C210.645 279.588 210.195 279.713 209.866 279.505C209.536 279.298 208.959 279.132 209.207 278.553C209.454 277.975 209.866 277.394 210.398 277.352C210.934 277.311 211.754 277.269 211.878 277.518C212.001 277.767 212.249 277.972 212.413 277.972C212.578 277.972 212.825 278.387 212.908 277.847C212.99 277.307 213.358 276.397 213.69 275.982C214.02 275.566 214.102 275.649 214.264 275.154C214.429 274.656 214.346 274.864 214.264 274.407C214.181 273.953 213.852 274.033 214.099 273.659C214.346 273.285 214.289 273.742 214.359 273.119C214.429 272.496 214.223 271.877 214.14 271.711C214.058 271.544 213.605 271.627 213.605 271.257C213.605 270.886 213.811 270.222 213.975 270.097C214.14 269.973 214.4 269.89 214.371 270.551C214.346 271.215 214.032 271.465 214.371 271.918C214.714 272.372 214.999 272.995 215.29 273.327C215.579 273.659 216.155 273.867 216.279 274.075C216.403 274.282 216.609 274.777 216.485 275.026C216.361 275.276 213.196 278.467 213.114 278.755C213.031 279.045 212.54 279.17 213.031 279.045C213.525 278.921 217.141 275.231 217.309 275.068C217.474 274.902 217.556 274.445 217.515 274.116C217.474 273.784 217.597 272.458 217.965 272.375C218.335 272.292 218.624 272.209 218.624 272.829V273.825C218.624 273.825 219.365 273.95 219.98 273.123C220.598 272.295 220.763 271.714 221.213 271.008C221.662 270.305 221.954 269.682 222.651 268.893C223.348 268.104 228.199 262.469 228.199 262.469C228.199 262.469 228.158 261.766 227.993 261.721C227.829 261.68 227.42 261.929 227.128 261.721C226.84 261.513 226.51 261.389 226.593 260.807C226.675 260.229 226.675 260.06 226.593 259.689C226.51 259.316 226.181 258.281 225.975 257.948C225.769 257.616 225.357 257.245 225.031 257.201C224.701 257.159 224.248 257.201 224.001 256.993C223.754 256.785 223.877 256.453 223.18 256.079C222.483 255.706 222.112 255.501 221.495 255.415C220.877 255.329 220.835 255.955 220.138 254.875C219.441 253.798 218.906 253.051 218.7 252.137C218.494 251.224 218.906 250.645 219.441 250.562C219.977 250.479 220.347 250.064 220.595 250.23C220.842 250.396 221.377 250.313 221.415 251.102C221.456 251.891 221.786 252.885 221.786 253.176C221.786 253.466 221.951 253.715 221.951 253.715C221.951 253.715 222.401 254.089 222.363 253.591C222.322 253.093 222.157 252.639 222.322 252.431C222.486 252.224 222.445 251.396 222.939 251.23C223.434 251.064 224.007 251.396 224.007 251.853C224.007 252.31 223.925 252.393 223.76 252.85C223.595 253.303 223.678 253.763 223.801 254.134C223.925 254.505 224.007 254.466 224.375 254.549C224.746 254.632 225.363 255.297 225.731 255.667C226.102 256.041 226.349 256.702 226.349 256.702L226.102 256.827C226.102 256.827 225.775 256.952 226.019 257.242C226.266 257.533 226.225 258.114 226.555 258.402C226.884 258.693 227.09 259.066 227.296 259.105C227.502 259.146 227.791 259.105 227.955 259.146C228.12 259.188 227.955 259.437 228.202 259.811C228.45 260.184 228.697 260.558 228.697 260.558L229.315 260.392C229.315 260.392 229.644 260.184 229.809 259.728C229.974 259.271 229.891 259.105 230.303 258.443C230.715 257.782 231 257.284 231.248 256.827C231.495 256.373 231.945 255.83 232.236 255.211C232.524 254.588 232.933 254.134 232.895 253.802C232.854 253.469 232.236 252.351 231.907 251.978C231.577 251.604 231.371 251.562 231.412 251.313C231.453 251.064 231.618 250.898 231.618 250.649C231.618 250.399 231.577 250.53 231.618 250.198C231.659 249.863 232.236 248.952 232.236 248.952C232.236 248.952 232.696 248.745 232.895 249.866C233.098 250.984 233.139 251.109 233.139 251.316C233.139 251.524 233.51 252.642 233.51 252.642C233.51 252.642 233.428 253.14 233.757 252.933C234.087 252.725 234.948 251.936 235.196 251.524C235.443 251.109 235.769 250.735 235.937 250.364C236.102 249.991 236.349 249.786 236.308 249.368C236.267 248.952 235.858 248.416 235.937 248.083C236.019 247.751 236.438 247.294 236.311 246.924C236.181 246.55 235.896 246.135 235.813 245.64C235.731 245.141 235.566 244.767 235.731 244.397C235.896 244.023 236.884 243.774 237.54 243.196C238.199 242.617 238.938 241.496 239.473 241.372C240.009 241.247 241.241 241.081 242.024 240.832C242.807 240.583 243.586 240.624 244.245 240.043C244.904 239.464 245.11 239.793 245.189 239.046C245.272 238.298 245.148 236.394 244.983 235.442C244.819 234.49 244.448 233.951 244.534 233.369C244.616 232.791 244.781 232.497 244.657 231.877C244.534 231.254 244.575 231.299 244.163 230.925C243.751 230.552 243.174 230.427 242.93 229.766C242.683 229.101 242.724 228.769 242.48 228.523C242.233 228.274 241.45 227.945 241.45 227.945C241.45 227.945 240.753 227.82 240.753 227.696C240.753 227.571 240.547 227.363 240.63 227.242C240.712 227.117 240.959 227.2 240.959 226.951C240.959 226.702 241.042 227.076 240.753 226.328C240.465 225.581 239.521 225.252 239.686 224.175C239.85 223.099 239.768 220.447 239.768 220.447C239.768 220.447 240.056 220.613 240.262 221.15C240.468 221.69 240.921 222.642 240.959 223.428C241.001 224.217 240.959 224.549 241.206 224.67C241.454 224.795 242.027 224.961 242.151 225.249C242.274 225.539 242.439 227.114 242.439 227.114C242.439 227.114 242.068 227.322 242.274 227.405C242.48 227.488 242.724 227.405 243.139 227.405C243.554 227.405 243.757 227.28 243.798 227.82C243.84 228.36 244.128 228.897 244.293 229.021C244.457 229.146 244.622 229.354 244.911 229.686C245.199 230.018 245.57 230.101 245.446 230.762C245.323 231.427 245.611 232.254 245.776 232.503C245.94 232.753 246.064 232.42 246.064 233.331C246.064 234.241 245.899 235.609 246.064 236.647C246.229 237.682 245.858 237.806 246.064 238.222C246.27 238.637 246.27 238.969 246.682 239.218C247.094 239.468 247.3 239.592 247.712 239.672C248.124 239.755 248.577 239.921 249.274 240.126C249.971 240.333 250.386 240.416 250.63 240.25C250.877 240.084 251.203 240.624 251.203 239.71V237.346C251.203 236.807 251.368 236.519 251.203 236.104C251.039 235.688 250.709 235.401 250.997 235.232C251.286 235.065 251.986 234.899 252.065 235.522C252.148 236.145 252.189 236.599 252.065 237.222C251.942 237.845 251.818 237.43 251.942 237.845C252.065 238.26 251.695 238.548 252.065 238.26C252.436 237.969 252.271 237.72 252.601 237.388C252.927 237.056 253.095 237.014 253.298 236.723C253.504 236.433 253.71 236.059 253.669 235.688C253.627 235.315 253.257 234.775 252.886 234.404C252.515 234.03 252.103 233.989 252.145 233.369C252.186 232.746 251.815 231.919 252.35 232.168C252.886 232.417 253.345 232.542 253.672 233.203C253.998 233.868 254.242 234.155 254.366 234.28C254.489 234.404 254.778 234.487 254.778 234.113C254.778 233.74 254.489 233.411 254.778 232.871C255.066 232.331 255.351 231.999 255.845 231.794C256.34 231.587 256.587 231.379 256.79 231.171C256.996 230.964 257.078 230.507 257.408 230.718C257.737 230.925 257.981 231.258 257.737 231.631C257.49 232.005 257.164 232.254 256.793 232.916C256.422 233.58 255.887 234.657 255.887 234.657C255.887 234.657 255.313 236.024 255.104 236.522C254.898 237.021 254.733 237.848 254.445 238.097C254.157 238.346 253.58 238.969 253.58 238.969C253.58 238.969 253.621 239.385 254.239 239.385C254.857 239.385 255.307 239.758 256.007 239.094C256.704 238.429 257.525 237.976 257.835 237.851C258.146 237.727 259.626 237.644 260.367 237.81C261.109 237.976 261.806 238.183 262.218 238.388C262.629 238.596 263.371 239.011 263.903 238.886C264.439 238.762 264.892 238.886 265.015 238.308C265.139 237.73 265.263 236.65 265.713 236.193C266.163 235.736 266.866 235.366 266.33 234.867C265.795 234.369 265.51 234.414 265.263 233.666C265.015 232.919 264.566 232.877 264.892 232.091C265.221 231.302 265.836 230.683 266.207 230.101C266.578 229.523 267.195 229.025 267.237 228.402C267.278 227.779 267.443 227.117 267.237 227.076C267.031 227.034 266.207 227.2 266.045 226.868C265.88 226.536 265.551 226.245 265.719 225.872C265.884 225.498 266.007 225.293 266.169 224.999C266.334 224.709 266.581 224.172 266.334 223.964C266.086 223.757 265.716 223.466 265.922 223.262C266.128 223.054 266.704 222.389 267.075 223.054C267.446 223.718 267.607 224.255 267.341 224.504C267.075 224.753 266.048 224.38 266.787 225.332C267.525 226.284 267.855 226.121 268.184 226.533C268.514 226.948 268.967 226.699 268.634 227.654C268.305 228.606 268.184 228.482 267.813 229.229C267.443 229.977 267.319 229.229 267.116 230.929C266.91 232.628 266.622 232.794 266.869 233.58C267.116 234.369 267.405 234.74 267.611 235.155C267.817 235.57 267.817 235.778 267.937 236.152C268.061 236.525 268.308 236.73 268.349 236.899C268.39 237.065 268.308 237.564 268.472 237.813C268.637 238.062 268.596 238.602 269.417 238.765C270.237 238.931 271.432 238.931 271.72 239.139C272.009 239.346 272.379 239.678 272.417 240.091C272.459 240.506 272.005 240.88 272.417 240.963C272.829 241.046 272.991 241.336 273.324 241.046C273.653 240.755 274.021 240.257 274.268 240.174C274.515 240.091 275.748 239.924 276.159 240.132C276.571 240.34 276.654 240.71 277.066 240.835C277.478 240.96 277.931 241.084 278.504 241.126C279.078 241.167 279.737 241.126 280.19 241.25C280.64 241.375 280.725 241.333 280.725 241.828C280.725 242.324 280.684 242.451 280.725 242.905C280.767 243.359 280.767 243.569 280.19 243.902C279.616 244.234 277.642 244.48 276.777 244.442C275.912 244.403 273.444 243.614 272.829 243.614C272.215 243.614 271.72 244.029 270.608 244.068C269.496 244.109 267.398 243.528 266.701 243.196C266.004 242.863 266.166 242.656 265.345 242.656C264.524 242.656 261.974 242.739 261.685 242.656C261.397 242.573 258.273 242.49 257.984 242.531C257.696 242.573 256.175 241.618 256.175 241.618C256.175 241.618 255.725 241.327 255.845 241.659C255.969 241.991 257.037 242.611 257.778 243.234C258.52 243.857 258.932 244.56 259.67 245.141C260.411 245.719 260.576 246.013 260.903 245.889C261.232 245.764 261.232 245.266 261.562 244.978C261.891 244.688 262.918 244.649 263.33 244.649C263.742 244.649 263.618 244.317 264.442 244.442C265.263 244.566 265.307 244.691 265.798 245.065C266.292 245.438 266.866 245.812 267.278 245.812C267.69 245.812 267.975 245.563 268.184 245.358C268.39 245.151 268.72 244.905 269.049 245.317C269.379 245.729 270.038 245.895 270.323 246.477C270.611 247.055 271.064 247.39 270.858 247.844C270.652 248.297 270.694 248.467 270.285 248.467C269.876 248.467 269.626 248.135 269.502 248.591C269.379 249.045 269.585 249.339 268.805 249.588C268.022 249.837 265.393 250.377 264.898 250.623C264.404 250.869 263.295 251.121 263.089 251.658C262.883 252.198 263.418 253.316 263.83 253.358C264.242 253.399 265.228 253.482 265.64 252.859C266.052 252.236 266.258 251.284 266.505 251.284C266.752 251.284 266.587 251.367 267.287 251.949C267.988 252.53 269.344 253.233 269.756 253.275C270.168 253.316 270.947 253.192 271.112 253.192C271.277 253.192 271.4 253.358 271.685 253.894C271.974 254.434 271.644 254.597 273.247 255.137C274.851 255.677 275.592 255.76 276.087 255.635C276.581 255.511 276.704 255.22 276.907 255.511C277.113 255.802 277.604 256.383 277.154 256.463C276.704 256.546 276.495 256.338 276.372 256.629C276.248 256.92 276.784 257.418 275.836 257.376C274.892 257.335 262.142 254.888 261.774 254.85C261.403 254.808 260.583 254.766 260.541 254.434C260.5 254.102 260.171 253.607 260.171 253.607C260.171 253.607 259.965 253.814 259.264 253.69C258.567 253.565 257.908 253.358 257.579 252.901C257.249 252.444 256.758 251.824 256.634 251.409C256.511 250.994 256.387 250.62 256.346 250.291C256.305 249.959 256.099 249.502 255.934 249.464C255.769 249.425 255.316 248.674 255.316 249.256C255.316 249.837 255.358 250.291 255.522 250.914C255.687 251.537 255.399 252.406 256.343 253.153C257.287 253.901 258.111 254.23 259.014 254.52C259.92 254.811 260.947 255.06 260.947 255.06L276.204 258.003C276.204 258.003 278.219 258.335 279.29 258.542C280.358 258.75 281.305 259.207 282.208 259.456C283.115 259.705 283.4 259.83 284.1 259.871C284.797 259.913 285.374 259.83 285.786 259.913C286.198 259.996 287.018 260.204 287.719 260.287C288.416 260.37 288.625 260.619 289.854 260.702C291.087 260.785 293.844 260.951 294.788 260.993C295.732 261.034 297.009 261.076 297.171 261.034C297.335 260.993 297.212 260.868 297.5 260.785C297.788 260.702 298.074 260.702 298.074 260.702C298.074 260.702 297.579 260.328 297.044 260.287C296.508 260.245 296.47 260.204 296.179 260.287C295.89 260.37 295.684 260.453 295.314 260.453C294.943 260.453 294.572 260.204 294.16 260.038C293.748 259.871 293.872 259.622 293.254 259.913C292.636 260.204 292.434 260.245 291.939 260.204C291.445 260.162 290.909 259.83 290.459 259.913C290.009 259.996 290.295 260.079 289.553 260.038C288.812 259.996 288.362 259.83 287.991 259.788C287.62 259.747 287.456 259.83 286.879 259.622C286.305 259.415 285.44 259.162 285.276 259.102C285.111 259.041 285.152 258.667 285.893 258.584C286.635 258.501 287.867 258.459 288.485 258.21C289.103 257.961 288.897 257.507 290.253 257.421C291.61 257.338 292.598 257.089 293.913 257.089C295.228 257.089 296.543 257.297 297.079 257.214C297.614 257.13 298.023 256.674 298.067 256.386C298.108 256.095 297.779 256.137 298.067 255.808C298.356 255.476 298.641 255.185 299.012 255.268C299.382 255.351 299.462 255.766 299.877 255.766C300.292 255.766 301.03 255.808 301.439 255.517C301.847 255.227 302.259 253.984 302.507 253.568C302.754 253.153 302.795 251.952 303.001 252.866C303.207 253.779 303.289 254.316 303.289 254.565C303.289 254.814 303.083 254.856 303.001 255.23C302.918 255.603 302.589 255.933 302.918 256.019C303.248 256.102 303.701 255.894 304.072 255.77C304.443 255.645 305.102 255.52 305.428 255.645C305.754 255.77 306.169 255.811 305.878 256.143C305.59 256.476 305.304 256.722 305.26 256.971C305.219 257.22 305.219 257.511 305.507 257.424C305.796 257.341 306.204 256.801 306.413 256.722C306.619 256.638 307.402 258.255 308.346 258.587C309.291 258.919 309.376 259.003 309.661 258.919C309.95 258.836 310.482 258.753 310.77 258.919C311.059 259.086 311.306 259.287 311.512 259.105C311.718 258.919 311.429 258.587 311.306 258.341C311.182 258.092 311.284 257.677 311.581 257.552C311.879 257.428 312.291 257.718 312.329 257.303C312.37 256.888 312.082 256.6 311.958 256.476C311.835 256.351 311.341 255.936 311.711 255.648C312.082 255.357 312.247 255.274 312.576 255.195C312.906 255.111 312.865 255.028 313.071 254.696C313.277 254.367 313.235 253.824 313.606 254.156C313.977 254.489 314.1 255.441 314.389 255.648C314.677 255.856 315.21 255.731 315.254 256.102C315.295 256.476 314.966 256.642 314.68 257.012C314.392 257.386 314.268 257.801 314.433 258.213C314.598 258.629 315.099 259.539 315.26 260.038C315.422 260.536 315.748 261.114 315.545 261.239C315.339 261.363 315.133 261.488 315.298 261.654C315.463 261.82 315.872 261.82 316.242 261.82C316.613 261.82 317.231 261.737 317.557 261.986C317.884 262.235 318.422 262.485 318.216 262.609C318.011 262.734 317.396 263.606 317.31 263.81C317.228 264.018 317.31 264.018 317.434 264.928C317.557 265.842 317.475 266.13 317.269 266.254C317.063 266.379 315.336 265.258 315.171 265.258C315.007 265.258 314.512 265.008 314.43 265.258C314.348 265.507 314.224 265.59 313.689 266.085C313.153 266.583 312.044 266.832 311.838 266.832C311.632 266.832 311.303 267.04 311.265 267.286C311.223 267.535 311.059 267.66 310.691 267.66C310.323 267.66 309.908 267.618 309.579 267.909C309.249 268.2 308.264 269.03 307.687 269.608C307.114 270.187 307.152 270.519 306.743 270.685C306.331 270.851 305.59 271.1 305.222 271.183C304.851 271.266 304.648 271.474 304.154 270.851C303.66 270.228 303.334 269.567 303.042 269.65C302.754 269.733 302.548 269.775 302.592 270.273C302.633 270.771 302.839 270.976 302.674 271.433C302.51 271.886 302.304 272.343 301.442 272.966C300.577 273.589 298.565 274.499 298.029 274.956C297.494 275.41 296.508 276.282 296.22 276.697C295.932 277.113 296.179 277.113 295.479 277.486C294.781 277.86 294.246 277.86 294.122 278.275C293.999 278.691 294.164 279.148 294.164 279.148C294.164 279.148 294.658 279.064 294.493 279.397C294.328 279.729 294.205 279.85 293.875 279.895C293.546 279.937 293.257 279.854 292.845 280.02C292.434 280.186 291.613 280.56 291.613 280.56C291.613 280.56 291.572 280.352 291.201 281.138C290.83 281.927 291.077 282.173 290.459 282.173C289.842 282.173 289.677 281.633 289.227 282.048C288.777 282.463 288.733 282.547 288.035 283.249C287.338 283.952 286.432 284.7 286.02 285.073C285.608 285.447 285.238 285.863 284.99 286.108C284.743 286.358 284.578 286.562 284.578 286.731C284.578 286.901 284.784 287.147 284.867 287.31C284.949 287.476 285.032 287.393 284.908 287.808C284.784 288.223 284.537 288.556 284.867 288.885C285.196 289.217 285.649 289.338 286.141 289.338C286.632 289.338 288.238 289.421 288.691 289.67C289.141 289.92 288.939 290.249 289.556 290.124C290.174 289.999 290.463 290 290.669 289.709C290.875 289.418 290.957 288.961 291.328 288.674C291.698 288.383 292.069 288.22 293.055 288.22C294.04 288.22 294.246 288.012 294.905 287.929C295.564 287.846 296.591 288.179 297.576 288.508C298.565 288.84 298.974 289.172 299.797 289.792C300.618 290.415 300.539 290.539 301.648 291.45C302.76 292.363 303.993 293.648 304.487 294.063C304.981 294.478 305.352 294.641 305.599 294.641C305.846 294.641 306.049 294.226 306.217 294.641C306.382 295.056 306.505 295.676 306.835 295.842C307.164 296.009 307.247 296.133 307.532 295.925C307.82 295.718 308.229 295.386 308.353 295.178C308.476 294.97 308.476 294.68 309.012 294.724C309.547 294.766 309.918 294.6 310.121 294.475C310.327 294.35 309.997 293.897 310.739 294.267C311.48 294.641 311.312 294.97 313.245 295.967C315.178 296.964 314.848 296.788 315.628 297.746C316.41 298.705 316.943 299.532 317.19 300.114C317.437 300.692 317.64 301.772 317.64 302.436C317.64 303.1 317.805 303.886 317.805 305.008C317.805 306.129 317.846 306.624 317.681 307.247C317.516 307.87 316.984 307.538 316.692 308.074C316.404 308.614 316.198 308.407 316.242 310.228C316.284 312.052 315.995 312.381 316.201 313.668C316.407 314.952 316.651 314.994 316.49 315.451C316.325 315.904 316.242 316.198 316.04 316.447C315.834 316.697 315.545 316.738 315.298 316.738C315.051 316.738 314.969 316.655 314.848 317.029C314.725 317.403 314.313 317.569 314.151 317.527C313.986 317.486 313.822 317.61 313.78 317.859C313.739 318.109 313.78 318.275 313.451 318.358C313.125 318.441 312.709 318.399 312.709 318.732C312.709 319.064 313.159 320.057 314.436 320.805C315.71 321.552 316.246 321.802 316.819 321.718C317.393 321.635 318.381 321.335 318.752 321.734C319.123 322.134 319.696 322.674 319.985 323.089C320.273 323.504 320.026 323.587 320.805 323.961C321.588 324.335 322.079 324.044 322.573 324.664C323.068 325.287 322.862 325.948 323.686 325.948C324.509 325.948 326.068 326.156 326.401 325.74C326.731 325.325 326.277 324.788 327.142 324.705C328.008 324.622 328.416 325.038 328.952 325.038C329.487 325.038 329.649 325.245 330.39 325.038C331.132 324.83 331.132 324.664 331.788 324.249C332.447 323.833 332.485 323.584 333.432 323.376C334.376 323.169 333.926 323.293 334.706 322.549C335.489 321.802 335.324 321.306 336.021 320.933C336.718 320.559 337.212 320.479 337.583 320.268C337.954 320.06 338.033 319.69 338.242 319.271C338.448 318.856 339.31 318.607 339.516 318.358C339.722 318.109 339.269 318.275 339.516 317.818C339.763 317.364 341.078 315.495 341.366 314.543C341.655 313.591 341.861 313.218 342.311 312.429C342.764 311.64 342.681 311.432 343.299 311.02C343.917 310.605 342.355 311.56 344.367 310.397C346.382 309.237 349.507 306.998 350.372 306.669C351.237 306.337 351.893 305.755 353.413 305.717C354.934 305.675 355.47 305.883 355.92 305.177C356.37 304.471 356.741 304.017 357.441 304.1C358.138 304.183 358.261 304.017 359.044 304.723C359.827 305.426 359.618 305.551 360.441 305.302C361.262 305.052 361.674 305.343 361.756 304.599C361.839 303.851 361.427 303.024 361.756 302.57C362.083 302.117 362.577 301.535 363.113 301.078C363.648 300.625 364.057 300.002 364.222 299.794C364.386 299.586 364.592 299.005 364.919 298.676C365.248 298.344 365.369 298.222 366.072 298.136C366.769 298.053 366.814 298.053 367.305 298.302C367.799 298.551 368.087 298.676 368.335 298.51C368.582 298.344 369.117 298.095 368.705 297.721C368.293 297.347 367.552 297.181 367.885 296.893C368.217 296.606 369.323 296.146 369.323 295.772C369.323 295.398 369.405 295.318 369.323 294.858C369.241 294.405 369.405 293.906 369.817 293.284C370.229 292.661 369.941 291.916 371.544 291.542C373.148 291.169 373.765 291.003 374.63 291.044C375.496 291.086 375.125 290.753 376.234 291.044C377.346 291.335 378.167 291.584 378.785 291.872C379.402 292.162 379.567 291.871 380.1 292.744C380.635 293.616 380.673 294.028 381.373 294.152C382.07 294.277 382.606 294.526 383.756 293.82C384.91 293.117 385.195 292.661 386.595 292.37C387.993 292.079 388.734 292.453 389.514 292.702C390.296 292.951 390.828 293.2 391.364 293.2C391.899 293.2 392.638 292.993 393.132 292.453C393.626 291.913 393.953 291.086 394.777 291.003C395.597 290.92 396.503 290.753 396.957 290.463C397.407 290.172 397.945 289.76 398.069 289.303C398.192 288.849 397.863 288.182 397.619 287.687C397.372 287.188 397.001 286.735 397.001 286.153C397.001 285.572 397.042 284.911 397.001 284.661C396.96 284.412 396.754 283.834 396.795 283.626C396.836 283.419 397.083 283.336 397.166 283.173C397.248 283.007 397.083 282.508 396.836 282.051C396.589 281.598 396.177 281.224 396.589 281.138C397.001 281.055 397.331 281.221 397.495 281.262C397.66 281.304 398.278 280.847 398.36 280.349C398.443 279.85 398.154 279.314 398.36 279.148C398.566 278.981 399.019 278.569 399.102 278.898C399.184 279.231 399.39 279.601 399.799 279.314C400.211 279.023 400.867 278.735 401.155 278.441C401.443 278.151 402.061 277.819 402.185 277.365C402.308 276.911 402.144 276.33 401.735 275.915C401.323 275.499 401.364 274.547 400.746 274.547C400.128 274.547 399.802 274.921 399.102 274.963C398.405 275.004 398.484 275.087 397.869 274.963C397.251 274.838 397.334 274.547 396.513 274.755C395.692 274.963 395.074 275.046 394.951 274.963C394.827 274.88 394.786 274.34 393.883 274.509C392.977 274.675 392.977 274.758 392.65 274.717C392.321 274.675 391.909 274.426 391.583 274.301C391.253 274.177 390.718 273.848 390.103 274.426C389.485 275.004 389.073 275.253 388.541 275.253C388.008 275.253 387.72 275.004 387.552 275.253C387.387 275.502 387.511 275.707 387.181 275.918C386.852 276.125 386.316 275.876 386.44 276.292C386.564 276.707 386.728 276.79 386.605 277.081C386.481 277.371 385.863 277.371 385.822 277.745C385.781 278.119 386.193 278.077 385.987 278.41C385.781 278.742 385.66 278.783 384.919 278.988C384.178 279.195 384.425 279.403 383.975 279.486C383.525 279.569 384.057 279.195 383.11 279.112C382.165 279.029 381.259 278.697 381.012 278.448C380.765 278.199 380.518 277.371 380.477 276.915C380.435 276.461 380.271 275.963 380.312 275.713C380.353 275.464 380.147 275.011 379.491 275.796C378.835 276.582 378.671 276.748 378.671 277.122C378.671 277.496 378.835 277.745 378.465 278.199C378.094 278.652 377.644 278.528 377.6 279.112C377.558 279.691 377.805 279.566 377.558 280.109C377.311 280.649 377.558 281.023 376.285 281.642C375.011 282.265 373.693 282.968 372.913 283.259C372.13 283.55 370.98 283.923 370.53 283.799C370.08 283.674 365.061 279.86 364.691 279.282C364.32 278.703 360.042 273.988 359.51 273.234C358.974 272.48 355.933 269.168 355.356 268.299C354.782 267.427 352.561 263.823 352.108 262.909C351.658 261.999 351.119 260.462 350.875 259.677C350.628 258.887 349.602 257.399 349.313 256.651C349.025 255.904 348.74 254.993 348.616 254.374C348.493 253.751 348.451 253.422 348.451 252.84C348.451 252.259 348.328 251.39 348.204 251.348C348.081 251.307 347.71 251.431 347.71 252.22C347.71 253.009 347.71 253.297 347.545 253.505C347.38 253.712 346.927 253.629 346.927 253.629C346.927 253.629 346.601 253.006 346.309 253.339C346.021 253.671 345.527 253.792 345.197 253.712C344.868 253.629 344.5 252.76 344.538 253.505C344.579 254.252 344.744 254.789 345.156 255.409C345.568 256.032 345.853 256.111 346.062 256.319C346.268 256.527 346.433 256.734 346.433 256.859C346.433 256.983 346.845 257.233 346.845 257.233C346.845 257.233 347.133 256.198 347.38 256.032C347.628 255.865 348.41 255.865 348.369 256.322C348.328 256.776 348.493 257.15 348.74 257.731C348.987 258.312 349.028 258.603 349.313 258.974C349.602 259.347 349.725 259.14 349.763 259.926C349.804 260.715 349.804 261.667 349.681 262.497C349.557 263.325 349.231 264.114 349.598 264.155C349.969 264.197 350.381 263.366 350.587 263.079C350.793 262.788 350.834 262.747 351.205 263.328C351.576 263.906 352.273 264.861 352.602 265.775C352.929 266.689 353.176 267.35 354.453 268.676C355.727 270.001 356.798 270.953 357.371 271.742C357.945 272.532 358.562 273.234 359.345 273.982C360.128 274.729 361.402 276.47 361.772 277.049C362.143 277.627 363.458 279.288 364.155 279.991C364.852 280.694 365.47 280.78 365.8 281.69C366.126 282.604 366.126 282.479 366.953 283.224C367.774 283.971 368.762 284.345 368.639 284.757C368.515 285.169 368.474 285.505 367.897 285.505C367.321 285.505 367.032 285.339 366.706 285.051C366.376 284.76 366.132 284.722 365.638 284.636C365.144 284.553 364.773 284.137 364.323 284.137C363.873 284.137 363.379 284.054 363.379 284.054L362.39 283.307C362.39 283.307 360.334 283.431 359.76 283.348C359.187 283.265 358.648 282.895 358.648 282.895C358.648 282.895 358.442 282.317 357.951 282.479C357.457 282.646 358.033 282.729 356.76 282.812C355.486 282.895 354.95 282.978 354.991 282.77C355.033 282.562 355.403 282.272 355.651 281.857C355.898 281.441 355.856 280.198 355.856 280.198C355.856 280.198 355.53 279.451 356.104 279.202C356.677 278.953 357.666 278.374 357.872 277.668C358.078 276.966 358.654 276.384 358.078 275.595C357.501 274.806 357.213 274.436 357.089 273.979C356.965 273.522 357.089 273.151 356.392 272.694C355.695 272.241 355.362 272.196 355.201 271.698C355.036 271.199 354.171 270.701 353.927 270.621C353.68 270.538 353.886 270.538 352.983 270.372C352.079 270.206 351.379 270.081 351.503 269.957C351.626 269.832 351.462 269.254 351.297 269.168C351.132 269.085 350.761 269.708 350.555 269.621C350.349 269.538 349.858 269.289 349.982 269.043C350.105 268.794 350.188 268.794 350.555 268.503C350.926 268.212 351.585 267.676 351.005 267.593C350.432 267.51 347.263 269.043 346.896 269.168C346.525 269.292 345.498 269.5 345.457 269.251C345.416 269.002 345.704 268.503 346.199 268.174C346.693 267.842 347.019 267.264 347.019 267.015C347.019 266.765 346.978 266.436 347.555 266.436C348.131 266.436 348.585 266.519 348.296 266.062C348.008 265.609 347.925 265.647 347.761 265.315C347.596 264.983 347.596 264.072 347.187 264.28C346.775 264.488 347.187 264.82 346.405 265.107C345.622 265.395 345.46 265.357 345.048 265.44C344.636 265.523 344.307 265.066 344.554 264.775C344.801 264.484 344.76 264.36 345.337 264.028C345.91 263.695 345.787 263.654 346.569 263.155C347.352 262.657 347.802 262.242 347.39 262.203C346.978 262.162 346.525 261.996 346.034 262.162C345.539 262.328 345.46 262.037 345.045 262.616C344.633 263.194 343.277 264.606 342.906 265.267C342.536 265.932 341.344 266.842 340.809 267.257C340.273 267.673 339.37 268.005 339.205 267.88C339.041 267.756 338.711 267.091 339.37 266.721C340.029 266.35 340.4 266.056 340.767 265.807C341.138 265.558 341.341 265.558 341.341 265.018C341.341 264.478 341.382 263.897 341.835 263.484C342.285 263.069 342.409 263.318 342.903 262.449C343.397 261.577 344.095 261.871 343.847 261.124C343.6 260.376 342.903 259.175 342.326 259.22C341.753 259.261 341.259 258.887 341.135 259.593C341.012 260.296 341.094 260.545 340.97 261.002C340.847 261.456 340.52 261.331 340.352 261.83C340.188 262.328 340.311 262.533 339.982 262.782C339.652 263.031 338.952 263.072 339.037 262.449C339.12 261.827 339.037 260.875 338.832 261.248C338.626 261.622 339.326 261.826 338.42 262.037C337.513 262.245 336.899 262.12 336.857 261.788C336.816 261.459 337.269 261.459 337.228 261.085C337.187 260.712 337.228 260.712 336.693 260.213C336.157 259.715 335.663 259.341 335.748 259.095C335.831 258.846 336.322 258.597 336.322 258.597C336.322 258.597 336.116 257.683 335.704 257.562C335.292 257.44 335.169 257.23 334.963 257.686C334.757 258.14 334.715 258.351 334.266 258.434C333.816 258.517 333.033 258.475 333.198 257.935C333.362 257.396 333.157 257.313 332.827 257.396C332.497 257.479 332.621 257.725 332.497 258.143C332.374 258.558 332.621 259.054 332.168 258.808C331.715 258.558 331.756 258.517 331.471 258.019C331.182 257.52 331.388 257.354 330.527 257.316C329.662 257.274 328.8 256.942 328.8 256.942C328.8 256.942 328.594 257.025 329.17 257.357C329.744 257.69 330.2 257.856 330.609 258.354C331.018 258.852 331.515 259.018 331.553 259.597C331.594 260.175 331.8 260.632 331.43 260.839C331.059 261.047 331.224 261.667 330.441 261.255C329.658 260.839 328.879 260.801 329.329 260.466C329.779 260.137 330.15 260.05 329.947 259.638C329.741 259.223 329.823 258.437 329.126 258.188C328.429 257.939 327.44 257.44 327.07 257.067C326.699 256.693 326.534 256.115 326.534 255.945C326.534 255.776 325.961 255.572 325.669 255.616C325.381 255.658 324.886 255.658 324.928 256.239C324.969 256.817 325.175 257.067 324.722 257.153C324.272 257.236 323.901 257.153 323.777 257.153C323.654 257.153 323.53 257.402 323.204 257.319C322.874 257.236 322.71 257.36 322.26 256.654C321.81 255.952 322.013 255.907 321.81 255.952C321.604 255.993 320.78 255.952 320.656 255.869C320.533 255.786 320.45 255.204 320.327 255.08C320.203 254.955 320.244 255.287 320.574 254.872C320.903 254.457 320.78 254.664 321.109 254.332C321.439 254 321.727 254.083 321.439 253.668C321.151 253.252 320.865 253.003 320.656 253.045C320.45 253.086 320.286 252.629 320.083 252.712C319.877 252.795 319.753 253.166 319.836 253.54C319.918 253.913 320.083 254.287 319.671 254.367C319.259 254.45 319.135 254.367 318.929 254.367C318.723 254.367 318.023 254.492 318.023 254.492C318.023 254.492 317.735 254.076 317.611 253.789C317.488 253.498 317.364 253.291 317.161 253.415C316.959 253.54 316.255 253.54 316.42 253.207C316.585 252.875 316.626 252.418 316.914 252.297C317.203 252.172 317.326 252.256 317.326 251.757C317.326 251.259 317.079 250.847 317.285 250.681C317.491 250.514 317.735 249.853 318.229 249.933C318.723 250.016 319.135 250.556 319.627 250.598C320.121 250.639 320.039 250.681 320.492 250.431C320.942 250.182 321.109 250.099 321.48 250.307C321.851 250.514 322.345 250.39 322.345 250.39C322.345 250.39 322.51 249.355 323.166 250.224C323.825 251.096 324.81 252.297 325.302 252.962C325.796 253.626 325.999 253.997 326.331 253.872C326.661 253.747 326.949 253.332 327.114 253.294C327.279 253.252 327.485 253.377 327.732 253.543C327.979 253.709 328.35 253.751 328.638 253.584C328.926 253.418 329.256 253.501 329.132 253.131C329.009 252.757 328.762 252.134 328.762 251.722C328.762 251.31 328.435 250.562 329.05 251.019C329.668 251.476 329.747 251.684 329.915 252.054C330.08 252.428 329.997 252.633 330.203 252.677C330.409 252.719 330.653 252.843 330.653 252.303C330.653 251.764 330.777 251.85 330.324 251.351C329.874 250.853 328.638 249.818 328.679 249.569C328.72 249.32 329.129 248.991 328.885 248.742C328.641 248.492 328.103 248.368 328.391 248.119C328.679 247.869 329.132 247.496 329.132 247.496C329.132 247.496 329.132 246.585 329.627 247.08C330.121 247.579 330.409 248.281 330.571 248.863C330.736 249.441 331.312 250.23 331.312 250.23C331.312 250.23 332.177 250.604 332.009 251.182C331.845 251.76 331.68 251.636 331.35 252.383C331.021 253.131 330.777 253.335 330.568 254.083C330.362 254.83 329.785 255.45 330.444 255.45C331.103 255.45 331.186 255.118 331.433 255.118C331.68 255.118 331.927 255.367 332.092 255.409C332.257 255.45 332.71 255.492 332.71 254.91C332.71 254.329 332.669 253.668 332.627 253.294C332.586 252.92 332.833 252.754 332.833 252.754C332.833 252.754 333.245 253.332 333.369 253.751C333.492 254.166 333.039 254.204 333.492 254.166C333.942 254.124 334.028 253.543 334.028 253.543L333.904 252.508C333.904 252.508 333.987 251.885 333.822 251.636C333.657 251.387 333.328 251.428 333.451 250.888C333.575 250.348 334.025 250.639 334.272 250.805C334.519 250.971 334.478 251.259 334.931 250.93C335.381 250.598 335.137 250.307 335.752 250.39C336.37 250.473 335.793 251.093 336.081 251.262C336.37 251.428 336.74 251.677 337.273 252.01C337.808 252.339 337.723 252.3 338.217 252.339C338.711 252.38 338.505 252.297 339.037 252.38C339.573 252.463 339.858 251.757 339.858 251.757C339.858 251.757 339.408 250.431 339.94 250.307C340.473 250.182 340.723 250.639 340.723 250.639L341.506 252.214C341.506 252.214 341.382 253.54 341.012 253.955L340.641 254.37C340.641 254.37 340.229 253.335 340.105 253.335C339.982 253.335 339.611 253.418 339.611 253.418L339.281 253.543C339.281 253.543 338.416 253.792 338.293 254.37C338.169 254.949 338.21 255.987 338.21 255.987C338.21 255.987 337.266 256.028 337.101 256.361C336.937 256.693 336.895 257.482 336.895 257.482C336.895 257.482 337.469 257.606 337.884 257.648C338.296 257.69 338.502 257.482 338.543 258.146C338.584 258.811 338.993 259.389 338.993 259.389C338.993 259.389 340.39 259.638 340.885 258.6C341.379 257.565 341.791 257.15 342.076 256.402C342.365 255.655 342.447 255.326 342.65 254.249C342.856 253.172 342.403 251.847 343.1 251.348C343.797 250.85 346.062 250.601 347.007 250.559C347.951 250.518 347.542 249.895 348.198 249.233C348.854 248.572 350.172 247.7 351.037 247.08C351.902 246.457 352.146 245.796 352.887 245.713C353.629 245.63 353.585 245.796 353.876 245.588C354.164 245.381 354.618 244.18 354.985 243.764C355.356 243.349 355.603 242.892 355.479 242.729C355.356 242.566 355.067 242.895 354.944 242.522C354.82 242.148 354.491 241.608 354.779 241.32C355.068 241.03 355.15 240.531 355.229 240.324C355.311 240.116 355.229 239.247 355.435 239.576C355.641 239.908 355.885 241.234 356.009 241.65C356.132 242.065 356.544 242.397 356.829 242.023C357.118 241.65 357.324 241.071 357.447 240.781C357.571 240.49 357.773 240.116 357.773 240.116C357.773 240.116 357.979 239.413 357.691 238.873C357.403 238.334 356.538 237.548 356.538 237.215C356.538 236.883 356.088 236.842 356.538 236.883C356.988 236.925 357.935 237.506 358.265 237.88C358.594 238.254 359.047 238.583 359.253 239.04C359.459 239.493 359.542 239.742 359.418 240.075C359.294 240.407 359.006 240.528 359.13 241.027C359.253 241.525 359.047 241.854 359.624 241.816C360.197 241.774 360.53 241.733 360.939 241.733C361.348 241.733 362.13 241.442 361.883 241.899C361.636 242.352 361.31 242.522 360.977 243.183C360.651 243.847 360.441 244.799 360.441 244.799C360.441 244.799 360.524 245.007 360.812 244.55C361.101 244.093 364.966 238.126 364.966 238.126L364.554 238.001C364.554 238.001 363.363 239.576 362.827 239.905C362.292 240.238 362.045 240.653 361.883 240.154C361.718 239.656 360.815 238.33 360.568 237.541C360.321 236.752 360.033 235.343 359.995 234.391C359.957 233.439 359.953 232.069 359.83 231.449C359.706 230.826 359.542 230.29 359.542 229.833C359.542 229.376 359.212 228.507 359.542 227.967C359.871 227.427 359.954 226.808 360.283 227.469C360.613 228.133 361.272 229.127 361.227 229.708C361.186 230.286 360.774 230.207 360.815 230.868C360.857 231.532 361.265 232.858 361.598 233.852C361.928 234.848 361.928 235.51 362.707 236.174C363.49 236.838 363.696 237.084 364.104 237.001C364.513 236.918 364.554 237.251 364.763 236.752C364.973 236.254 364.805 235.963 365.134 235.925C365.461 235.883 365.628 235.883 365.628 236.34C365.628 236.797 364.969 236.631 365.464 237.043C365.958 237.458 365.834 237.583 366.494 237.168C367.153 236.752 368.385 235.426 368.921 234.928C369.456 234.43 369.951 233.27 370.689 232.564C371.43 231.861 372.663 231.114 373.116 230.615C373.566 230.117 374.146 229.743 374.146 229.743L375.461 228.459L378.176 227.175L380.109 227.092L383.275 226.469C383.275 226.469 384.631 226.14 384.919 227.009L385.207 227.881L385.702 228.213L386.275 227.839L386.522 228.255C386.522 228.255 386.811 228.545 386.893 228.296C386.975 228.047 387.017 227.756 387.387 227.053C387.758 226.351 387.882 225.52 388.702 224.482C389.523 223.447 390.223 221.706 391.374 221.664C392.527 221.623 392.156 221.789 392.977 221.747C393.797 221.706 393.265 221.581 394.868 221.207C396.472 220.834 398.202 220.172 398.899 220.875C399.596 221.578 400.255 222.575 400.379 222.865C400.502 223.156 400.626 222.948 400.543 223.488C400.461 224.028 400.255 224.485 400.094 224.648C399.929 224.814 399.888 224.773 399.682 224.814C399.476 224.856 399.023 224.897 399.064 225.268C399.105 225.641 399.187 225.846 399.514 225.808C399.84 225.769 400.008 225.932 400.211 225.434C400.417 224.936 402.058 221.166 402.226 220.792C402.394 220.418 402.518 220.045 402.473 219.674C402.432 219.3 401.953 218.76 402.483 218.553C403.009 218.345 402.885 218.511 403.297 218.137C403.709 217.764 403.173 216.978 404.488 216.396C405.803 215.818 407.575 214.492 408.107 214.243C408.642 213.994 410.243 212.876 410.613 212.585C410.984 212.295 411.396 211.921 411.681 211.921C411.966 211.921 413.079 212.585 413.161 212.748C413.243 212.914 413.611 213.205 413.611 213.496V214.119C413.611 214.119 413.652 214.409 413.94 213.911C414.229 213.413 414.229 213.208 414.558 212.997C414.888 212.787 415.255 212.665 415.341 212.25C415.423 211.835 414.97 211.835 415.341 211.422C415.712 211.007 420.192 205.33 420.645 205.161C421.095 204.995 422.001 204.87 423.196 204.87C424.39 204.87 424.676 204.787 425.005 204.497C425.335 204.206 425.499 204.043 425.949 204.043C426.399 204.043 426.691 204.043 427.062 203.628C427.432 203.212 427.556 202.756 428.091 202.756C428.627 202.756 429.571 203.129 429.736 203.171C429.901 203.212 430.107 203.129 430.477 203.046C430.848 202.963 431.834 203.005 432.451 202.756C433.069 202.506 433.069 202.177 433.44 202.133C433.811 202.091 434.384 202.423 434.631 202.711C434.879 203.001 435.081 202.918 435.002 203.251C434.92 203.583 434.755 203.417 434.837 203.791C434.92 204.164 435.782 204.826 436.029 204.369C436.276 203.915 436.317 203.541 436.935 203.002C437.553 202.462 438.003 202.05 438.209 201.676C438.415 201.302 438.58 200.973 438.415 200.641C438.25 200.309 437.841 200.558 438.003 199.813C438.168 199.066 438.25 197.948 438.947 197.12C439.644 196.293 440.18 195.296 440.18 194.718C440.18 194.14 439.853 193.268 439.438 193.434C439.026 193.6 437.382 194.469 437.055 193.974C436.726 193.475 437.344 190.99 437.673 190.246C438.003 189.498 438.291 188.006 438.538 187.137C438.785 186.265 439.28 180.339 439.568 180.215C439.856 180.09 440.227 179.965 440.76 179.882C441.292 179.799 441.704 179.135 442.363 178.764C443.022 178.39 446.682 178.435 447.011 178.39C447.341 178.349 447.052 177.189 447.629 176.237C448.203 175.285 448.494 174.455 449.109 174.164C449.727 173.873 450.589 173.956 450.3 172.88C450.012 171.803 449.109 168.903 449.641 168.529C450.177 168.155 450.215 167.781 450.833 167.989C451.45 168.197 452.189 168.072 452.559 167.66C452.93 167.245 454.987 165.67 457.617 165.67C460.246 165.67 464.401 164.427 464.689 164.469C464.977 164.51 464.565 164.973 465.757 165.114C466.948 165.254 468.06 164.881 468.799 164.839C469.54 164.798 471.226 164.465 471.964 164.714C472.705 164.964 474.144 165.219 474.68 165.114C475.215 165.005 476.406 164.631 475.586 163.763C474.765 162.89 474.353 163.14 474.106 162.146C473.859 161.149 473.2 158.169 473.488 157.958C473.777 157.75 474.353 157.46 475.091 157.006C475.833 156.552 476.147 152.818 475.865 151.741C475.583 150.665 474.8 150.333 474.721 149.253C474.638 148.176 474.35 147.802 474.597 147.138C474.844 146.473 474.968 145.355 474.886 144.566C474.803 143.777 475.092 142.538 474.721 142.039C474.35 141.541 473.447 141.375 473.282 140.464C473.117 139.554 472.417 137.976 472.585 137.148C472.75 136.321 471.473 135.366 471.147 135.449C470.817 135.532 470.24 136.152 469.584 135.158C468.925 134.162 468.022 133.417 468.187 131.679C468.352 129.938 467.981 126.955 468.269 126.622C468.558 126.29 468.887 125.463 469.667 125.463C470.446 125.463 474.109 125.792 474.394 125.463C474.683 125.13 474.968 123.514 474.559 123.31C474.147 123.102 472.832 123.226 470.982 122.731C469.131 122.233 468.723 122.524 468.513 121.53C468.307 120.533 466.045 119.083 466.045 118.505C466.045 117.927 466.416 116.141 466.581 116.058C466.745 115.975 467.772 116.681 468.637 116.058C469.502 115.435 470.611 114.608 470.941 114.317C471.27 114.026 471.682 113.365 471.885 112.576C472.088 111.787 471.679 110.918 472.668 110.253C473.656 109.589 475.507 108.803 475.709 108.512C475.915 108.222 476.245 108.305 475.709 107.685C475.174 107.062 474.844 107.231 474.844 106.11C474.844 104.989 475.256 102.919 474.803 102.171C474.353 101.423 471.885 98.4813 471.885 97.7785C471.885 97.0757 472.008 96.2036 472.582 95.6253C473.155 95.0471 474.185 94.3411 474.103 93.6351C474.021 92.9323 473.485 91.9771 473.114 91.9771C472.744 91.9771 470.855 91.6034 470.608 91.9771C470.361 92.3509 469.046 94.2996 468.51 94.8363C467.975 95.3762 465.057 95.7084 464.521 95.4592C463.986 95.21 462.547 93.4307 461.52 93.5936C460.494 93.7565 459.67 93.6766 459.385 93.2198C459.096 92.7662 457.987 89.9038 457.002 90.153C456.013 90.4022 452.724 91.2296 452.11 90.7312C451.492 90.2329 450.3 89.5716 449.85 89.2394C449.4 88.9071 448.944 85.5912 448.618 85.5496C448.288 85.5081 447.097 85.342 447.014 85.9649C446.932 86.5879 446.194 87.6229 445.699 87.7475C445.205 87.8721 441.175 87.5399 441.175 87.5399C441.175 87.5399 440.268 85.8819 439.819 85.7573C439.369 85.6327 438.215 84.9522 438.009 85.5017C437.803 86.0512 438.215 86.4665 437.189 86.2556C436.162 86.0448 434.559 85.3611 434.597 85.2909C434.638 85.2206 434.803 83.3166 434.803 83.3166C434.803 83.3166 434.143 82.4445 433.938 82.4892C433.732 82.5308 430.484 82.9876 429.704 83.0674C428.922 83.1505 428.716 83.2751 428.224 82.9844C427.73 82.6937 427.195 82.0292 426.786 82.486C426.374 82.9429 425.842 83.5658 425.512 83.109C425.183 82.6553 424.28 80.7066 424.032 80.7066C423.785 80.7066 421.897 80.3744 421.897 80.7066C421.897 81.0389 422.432 85.0577 422.432 85.2238C422.432 85.3899 421.65 87.5878 420.458 87.4632C419.267 87.3386 414.539 83.7351 413.921 82.9876C413.303 82.2401 410.344 81.1219 409.52 80.7482C408.7 80.3744 408.452 80.6651 408.452 79.9591C408.452 79.2531 408.082 78.841 407.299 78.2596C406.516 77.6814 404.831 77.183 404.748 76.6847C404.666 76.1863 403.639 73.2058 403.268 72.8703C402.898 72.5413 400.35 71.0878 400.391 69.8866C400.433 68.6854 400.309 67.398 400.021 67.398C399.732 67.398 399.156 67.2319 398.541 67.398C397.923 67.5641 397.676 67.8517 396.855 68.5992C396.035 69.3467 392.454 72.7873 392.128 73.161C391.798 73.5348 389.824 73.1195 388.715 73.0365C387.603 72.9534 387.441 73.0365 387.318 73.3272C387.194 73.6179 386.991 74.3239 385.632 74.3239C384.273 74.3239 383.411 73.784 383.373 74.5315C383.332 75.2791 383.496 76.231 383.332 76.8093C383.167 77.3875 383.332 77.806 381.893 77.9689C380.454 78.135 377.783 78.3427 377.492 78.0935C377.203 77.8443 376.053 76.8923 376.053 76.8923L370.502 77.0584L366.269 72.7458L356.893 73.4933C356.893 73.4933 355.454 75.5666 355.207 75.6464C354.96 75.7295 353.562 75.8125 352.491 75.1928C351.424 74.5699 350.888 74.819 350.888 74.1162C350.888 73.4134 351.382 73.3272 350.476 72.9151C349.57 72.4998 348.093 72.4167 348.049 71.7554C348.008 71.091 347.884 69.8515 347.723 69.1838C347.558 68.5193 347.517 67.628 347.149 67.3278C346.778 67.0275 346.366 66.0755 346.614 65.8678C346.861 65.6602 346.94 65.5771 347.723 65.3695C348.505 65.1618 348.955 64.4974 348.955 64.4974C348.955 64.4974 348.749 61.9257 348.667 61.7213C348.585 61.5136 347.678 61.5551 347.476 61.0568C347.27 60.5584 346.902 59.0666 346.569 57.9485C346.24 56.8272 345.625 55.9998 345.172 55.4216C344.722 54.8433 343.775 54.1373 343.898 53.8051C344.022 53.4729 344.557 52.7701 344.804 52.3963C345.051 52.0225 345.669 51.3612 345.463 50.8214C345.257 50.2815 344.722 49.994 344.19 49.9077C343.657 49.8215 343.325 49.5787 342.916 49.617C342.504 49.6585 341.762 50.3645 341.271 50.0706C340.777 49.7799 338.889 49.0739 338.641 48.1219C338.394 47.17 338.271 46.0071 338.147 45.4704C338.024 44.9338 337.653 43.6048 337.158 43.4802C336.664 43.3556 336.709 42.6528 336.252 43.2726C335.802 43.8955 335.802 44.9306 334.855 44.5983C333.911 44.2661 333.046 43.5633 332.716 43.9338C332.387 44.3076 329.715 46.4608 329.468 46.6269C329.221 46.793 328.315 46.4192 327.906 46.5438C327.497 46.6684 327.247 46.8345 327.041 46.7515C326.835 46.6684 326.382 46.6684 326.468 45.7548C326.553 44.8411 326.797 44.3044 326.179 44.2629C325.561 44.2214 323.464 43.9722 322.846 44.4705C322.228 44.9689 321.816 45.5056 321.037 45.3427C320.254 45.1765 318.939 44.6399 318.654 45.052C318.365 45.4672 318.08 45.9656 317.421 46.087C316.762 46.2084 315.53 46.6269 315.365 45.9209C315.2 45.2181 314.829 44.6782 315.324 44.0968C315.818 43.5186 316.106 43.4738 316.312 42.771C316.518 42.0682 316.93 41.0715 316.395 40.7425C315.859 40.4102 314.421 39.7074 314.421 39.5413C314.421 39.3752 314.421 38.7139 314.832 38.42C315.244 38.1293 315.038 37.5926 314.956 37.2604C314.874 36.9281 314.997 34.7718 314.997 34.2766C314.997 33.7815 314.379 32.9509 314.091 32.3279C313.803 31.705 313.394 31.4143 312.982 31.0853C312.57 30.753 312.038 30.3824 311.379 29.964C310.72 29.5487 310.022 29.1749 310.146 28.7213C310.27 28.2676 310.558 27.6862 311.176 27.7246C311.794 27.7661 311.873 27.683 312.367 27.4754C312.862 27.2677 313.109 27.2262 313.521 26.8109C313.933 26.3956 313.685 26.0218 314.341 26.188C315 26.3541 316.068 26.7278 316.357 26.6416C316.645 26.5585 317.345 26.4787 317.51 26.1464C317.675 25.8142 318.416 24.9868 318.169 24.2776C317.922 23.5748 317.428 22.3736 317.18 21.9551C316.933 21.5398 315.701 20.4633 314.836 19.9266C313.971 19.3899 313.521 19.2621 313.191 18.3517C312.862 17.4412 312.944 17.2336 312.45 16.6937C311.955 16.1538 311.217 15.7417 310.558 15.1603C309.899 14.5821 308.749 14.3712 308.749 13.0071C308.749 11.643 308.831 11.5568 308.955 10.9338C309.078 10.3109 308.913 9.1928 308.666 8.40693C308.419 7.61787 308.337 7.41023 308.131 6.87354C307.925 6.33365 308.213 6.20906 307.513 5.87683C306.816 5.54459 306.73 5.25388 306.198 5.1293C305.666 5.00471 305.254 5.46153 305.007 4.80025C304.759 4.13578 303.733 2.93462 303.733 2.93462C303.733 2.93462 302.912 2.7685 302.744 2.43627C302.579 2.10403 302.047 0.65369 301.47 0.407708C300.897 0.15853 300.073 0.0339418 299.62 0.0339418C299.167 0.0339418 298.346 0.283119 297.852 0.656885C297.358 1.03065 296.413 1.48428 295.919 1.77818C295.425 2.06889 295.013 2.27654 294.439 2.48099C293.866 2.68864 292.712 2.73017 292.589 2.68864C292.465 2.64711 292.177 2.73017 292.3 2.39793C292.424 2.06569 292.836 1.69512 292.465 1.15524C292.094 0.615355 290.944 0.656885 290.082 0.823003C289.217 0.989121 288.603 0.823003 288.603 0.823003C288.603 0.823003 287.041 0.0754713 286.793 0.0339418C286.546 -0.00758772 286.134 -0.0906468 285.805 0.366178C285.475 0.819808 284.984 1.44275 284.49 1.94111C283.995 2.43946 283.175 2.81323 282.31 3.72368C281.445 4.63414 280.583 5.09096 279.965 5.17402C279.347 5.25708 278.568 4.67566 278.115 4.67566C277.661 4.67566 277.208 4.42649 277.002 5.0079C276.796 5.58612 276.632 5.91836 276.014 6.00461C275.396 6.08767 274.822 6.91826 273.422 5.96308C272.024 5.0111 272.148 4.55427 271.324 4.05911C270.504 3.56076 269.968 3.31158 269.021 3.43617C268.076 3.56076 267.211 3.35311 266.717 3.68535C266.223 4.01439 265.526 4.22523 265.402 4.76192C265.278 5.3018 265.155 6.08767 265.484 6.50296C265.814 6.91826 266.058 7.99483 265.69 8.11942C265.32 8.24401 264.169 8.49319 264.661 9.07141C265.152 9.64962 265.773 9.61129 265.32 10.1927C264.87 10.7709 264.537 11.0648 264.331 11.8922C264.125 12.7196 263.672 13.4256 263.672 13.4256L262.439 13.9655C262.439 13.9655 262.11 14.713 261.372 15.0421C260.63 15.3743 260.836 15.4574 259.933 15.4158C259.027 15.3743 257.18 16.1187 256.52 15.7896C255.861 15.4574 255.823 14.5054 255.041 14.4223C254.258 14.3393 253.808 14.1316 252.534 14.4639C251.26 14.7929 250.725 15.0037 250.231 15.0037C249.736 15.0037 249.781 14.6715 248.339 14.6715C246.897 14.6715 245.912 14.63 245.215 14.713C244.518 14.7961 243.57 14.0486 243.57 14.0486L241.843 13.3841L240.776 13.8824L240.817 15.5404C240.817 15.5404 241.39 17.0738 241.311 17.4891C241.229 17.9044 241.064 18.7733 240.281 17.9875C239.499 17.1984 239.068 16.7448 238.298 16.7033C237.528 16.6617 236.992 16.371 236.992 16.371C236.992 16.371 235.554 15.3743 234.895 15.4574C234.236 15.5404 233.456 15.582 232.879 16.2848C232.303 16.9876 232.262 16.6585 231.606 17.8182C230.947 18.9778 230.208 19.8467 229.673 20.8434C229.137 21.8401 229.59 22.3768 228.399 22.7921C227.208 23.2074 225.848 23.2074 225.398 23.7888C224.948 24.3671 225.687 24.661 224.657 24.99C223.627 25.3222 223.998 25.8621 223.751 26.3988C223.503 26.9387 223.009 26.731 222.886 27.1463C222.762 27.5616 223.092 28.143 222.638 28.7628C222.188 29.3857 221.941 29.1366 221.773 29.8809C221.609 30.6284 221.609 31.2066 221.526 31.6635C221.444 32.1203 221.155 32.0788 220.867 32.4909C220.579 32.9062 220.949 33.6122 220.785 34.0243C220.62 34.4396 220.002 34.398 219.796 35.0593C219.59 35.7238 218.931 36.0113 219.508 36.7173C220.081 37.4201 220.496 37.2955 220.29 38.043C220.084 38.7906 220.785 39.4519 220.95 39.618C221.114 39.7841 221.155 40.4454 221.155 40.9437C221.155 41.4421 221.197 41.6082 221.444 41.9404C221.691 42.2727 221.856 42.3557 222.185 42.9755C222.512 43.5984 223.215 44.5919 223.05 44.9242C222.886 45.2564 222.68 45.5886 222.68 45.7516C222.68 45.9145 222.927 46.2499 222.844 46.7483C222.762 47.2466 222.35 46.9144 222.185 47.7003C222.021 48.4861 222.474 48.6139 221.856 48.9845C221.238 49.3582 220.046 49.6873 220.046 49.6873C220.046 49.6873 217.825 48.6906 217.499 48.3615C217.169 48.0293 215.648 46.7036 215.566 46.2883C215.484 45.873 215.607 45.2532 215.319 44.5472C215.031 43.8412 214.825 43.346 214.454 42.9307C214.083 42.5155 212.603 41.0651 212.071 41.0651C211.539 41.0651 211.165 41.8126 210.509 42.0171C209.85 42.2248 207.879 40.9821 207.299 41.1897C206.726 41.3974 204.707 43.6367 204.422 43.8827C204.134 44.1319 203.066 44.298 202.819 44.0073C202.572 43.7166 201.298 41.6849 200.515 41.5187C199.732 41.3526 198.829 42.4707 198.459 42.64C198.088 42.8062 197.103 42.8062 196.732 42.8892C196.361 42.9723 195.743 43.0138 195.743 43.4674C195.743 43.9211 195.372 45.2915 195.125 45.6653C194.878 46.0391 194.384 46.4927 193.972 46.1637C193.56 45.8314 193.275 45.4609 192.983 45.7484C192.695 46.0391 191.627 46.4128 191.421 46.4128C191.215 46.4128 190.147 46.4128 189.735 45.3778C189.324 44.3428 188.009 42.2695 188.215 41.9788C188.421 41.6881 189.159 40.4454 189.121 40.1962C189.08 39.947 188.5 39.8672 188.196 39.4487C187.888 39.0334 187.312 37.4201 187.15 37.0463C186.985 36.6726 185.382 36.631 184.723 36.8387C184.064 37.0463 183.325 37.2125 183.119 37.7491C182.913 38.289 182.872 38.9088 182.584 39.241C182.296 39.5732 181.64 39.4902 181.393 39.5317C181.145 39.5732 180.857 39.0334 180.325 39.4902C179.789 39.9438 178.227 40.5668 178.104 40.9405C177.98 41.3143 177.654 42.2247 177.654 42.9307C177.654 43.6368 177.571 44.6718 177.365 45.004C177.159 45.3363 177.077 46.3713 176.091 45.4577C175.103 44.544 175.147 44.7101 174.529 44.298C173.911 43.8859 173.5 43.3013 173.461 42.7646C173.42 42.2247 173.42 41.8925 173.461 41.1897C173.503 40.4869 173.911 39.2857 173.008 39.241C172.102 39.1995 171.487 39.158 171.158 39.241C170.828 39.3241 170.169 38.6628 169.637 38.6181C169.101 38.5765 168.281 38.7842 168.116 38.9503C167.951 39.1164 167.295 40.4422 166.224 40.3591C165.157 40.2761 164.703 37.9951 164.333 37.7459C163.962 37.4968 163.591 37.2061 163.759 36.794C163.924 36.3787 163.759 34.8037 163.186 34.89C162.612 34.9762 162.032 35.0976 161.294 35.6375C160.553 36.1774 160.02 36.6726 159.567 37.1709C159.117 37.6693 159.361 37.6246 158.949 38.206C158.537 38.7842 158.331 39.6148 157.675 39.5317C157.016 39.4487 156.072 39.1164 155.619 39.3656C155.169 39.6148 154.922 39.864 154.713 39.5317C154.507 39.2027 153.971 38.0814 153.971 38.0814L152.78 38.1229V40.7744C152.78 40.7744 152.244 41.8095 151.3 42.4324C150.356 43.0553 149.985 44.1319 149.491 43.7581C148.997 43.3844 148.382 43.3045 148.461 42.5155C148.543 41.7264 148.873 41.3143 149.035 40.7329C149.199 40.1547 149.529 39.6978 148.952 39.1164C148.379 38.5382 147.884 38.0399 147.349 37.9951C146.813 37.9536 146.528 37.9536 146.158 37.7875C145.787 37.6214 145.09 36.9154 144.843 36.5033C144.595 36.0912 143.813 35.8803 143.239 36.1742C142.666 36.4649 142.209 37.0463 142.048 37.7491C141.883 38.452 140.98 38.5382 140.486 38.6628C139.991 38.7874 138.718 38.9535 138.388 38.8289C138.059 38.7043 138.223 38.206 138.388 38.0015C138.553 37.7939 138.8 37.2987 138.8 37.0911C138.8 36.8834 138.626 36.0145 138.198 35.9314C137.77 35.8484 136.702 35.3915 136.702 34.7718C136.702 34.1521 137.152 32.7432 136.702 32.2832C136.252 31.8264 136.084 30.9575 135.346 31.3312C134.605 31.705 133.619 32.4078 133.087 32.4909C132.551 32.5739 131.031 32.3247 130.495 32.3247C129.96 32.3247 125.809 30.7083 125.273 30.2962C124.738 29.8809 125.232 29.6317 124.12 29.6317C123.008 29.6317 121.078 29.7978 120.213 29.7563C119.348 29.7148 118.198 29.5902 117.621 29.1781C117.047 28.7628 117.085 29.095 116.756 28.4306C116.426 27.7661 116.306 26.8972 115.644 26.8972C114.982 26.8972 114.614 26.8141 113.958 27.2294C113.299 27.6447 113.093 27.9322 112.355 27.8939C111.613 27.8523 110.381 27.9769 109.639 27.4786C108.898 26.9802 108.527 26.1113 108.324 25.6129C108.118 25.1146 107.995 25.2807 108.118 24.6993C108.242 24.1211 108.885 23.7473 108.071 23.7026C107.256 23.6611 105.735 23.3703 105.488 23.4119C105.241 23.4534 104.582 23.7441 104.05 23.9102C103.514 24.0763 101.746 24.2393 101.008 24.2393C100.27 24.2393 100.349 24.0316 99.6929 24.1977C99.0339 24.3639 97.7601 24.1977 96.2391 24.1562C94.7182 24.1147 94.5123 23.7409 93.812 23.4534C93.1149 23.1627 92.4558 23.2873 92.291 23.3288C92.1263 23.3703 91.5084 23.8687 90.8937 23.578C90.279 23.2873 87.5223 21.7954 87.5223 21.7954C87.5223 21.7954 85.919 21.5047 85.713 21.7124C85.507 21.9168 84.8923 22.7889 83.9449 23.2458C83.0007 23.6994 80.9442 24.2808 80.9442 24.2808C80.9442 24.2808 79.0114 24.3223 77.858 23.9486C76.7046 23.5748 76.0899 23.201 75.7604 23.2841C75.4308 23.3671 73.6628 24.6514 73.3776 24.9005C73.0924 25.1497 71.8154 24.9836 70.624 25.0251C69.4326 25.0667 67.4586 24.3607 66.6759 24.2776C65.8933 24.1945 65.155 24.1115 64.7843 24.2776C64.4136 24.4437 63.3869 24.8558 63.2634 25.2296C63.1398 25.6034 62.8926 26.6799 62.8134 27.3444C62.731 28.0089 63.2253 29.0854 63.4725 29.5423C63.7196 29.9959 64.3787 30.7434 63.9224 31.2418C63.4725 31.7401 62.2779 32.5675 61.0833 32.6506C59.8888 32.7337 58.7386 32.8582 57.9179 33.149C57.0972 33.4397 55.9439 33.8134 55.4115 34.0626C54.8792 34.3118 54.0965 35.3468 53.6022 35.7621C53.1079 36.1774 52.658 36.4266 52.0401 36.1359C51.4222 35.8452 51.1751 36.1359 51.0103 35.5129C50.8455 34.89 51.0103 34.4364 50.2277 34.4364C49.445 34.4364 48.13 34.2702 47.9684 34.4364C47.8037 34.6025 47.8861 34.561 47.0242 35.2254C46.1592 35.8899 45.6268 37.4648 45.3385 37.714C45.0502 37.9632 44.4735 38.4168 44.2295 38.7906C43.9823 39.1643 43.5324 39.2889 43.8588 39.5796C44.1883 39.8703 44.2295 39.9534 44.1883 40.4518C44.1471 40.9501 44.3531 40.7009 44.6826 41.1993C45.0121 41.6976 44.7238 41.7775 44.8886 42.525C45.0533 43.2726 45.5857 42.8988 45.7536 43.8093C45.9184 44.7229 45.63 46.0071 45.3829 46.547C45.1357 47.0869 44.8093 47.4191 44.8886 48.205C44.9709 48.9941 45.0533 49.3646 45.5064 49.9045C45.9564 50.4444 46.1243 51.6871 46.8214 52.556C47.5185 53.4281 48.4659 53.7157 48.8778 54.8785C49.2898 56.0381 49.2074 56.8687 49.4514 57.6162C49.6985 58.3638 50.3576 58.4436 50.5604 59.4403C50.7663 60.437 50.5192 61.1399 51.0547 61.7628C51.5902 62.3857 52.8228 62.6764 52.8228 63.6668C52.8228 64.6571 53.1111 64.8264 53.8114 65.3663C54.5085 65.9062 56.9768 67.3565 56.6885 67.8932C56.4001 68.4299 52.4552 68.3085 52.2461 68.8068C52.0401 69.3052 52.6168 71.4583 52.9052 71.9982C53.1935 72.5381 55.1263 75.8956 54.838 76.5601C54.5497 77.2246 54.7556 77.6367 54.2645 78.4641C53.7702 79.2914 53.4818 80.4926 53.1967 81.4893C52.9083 82.486 52.9495 82.8151 52.2081 83.0227C51.4666 83.2304 50.8107 83.2719 49.369 83.5211C47.9273 83.7702 47.1098 83.5211 46.4919 83.7702C45.874 84.0194 45.9564 83.8948 45.424 84.6839C44.8886 85.473 32.1856 98.0724 31.6089 98.7369C31.0354 99.4013 23.9187 108.602 23.3863 109.225C22.8508 109.848 22.3565 111.09 21.5359 111.713C20.7152 112.336 19.5206 113.787 18.7411 114.451C17.9585 115.115 17.8349 114.576 17.7113 115.403C17.5878 116.23 17.5054 116.812 17.2614 117.061C17.0142 117.31 16.6435 117.435 16.6023 118.304C16.5611 119.176 17.5085 120.003 17.5085 120.668C17.5085 121.332 17.6733 122.572 17.6733 123.485C17.6733 124.399 16.9319 129.453 16.9319 129.453C16.9319 129.453 16.2728 130.366 16.6023 130.654C16.9319 130.945 17.3026 130.695 17.2202 131.318C17.1378 131.941 17.179 132.561 17.179 132.561C17.179 132.561 17.629 132.893 17.5085 133.388C17.385 133.887 18.2912 134.714 18.2912 134.714C18.2912 134.714 20.2241 136.206 20.5948 136.663C20.9655 137.12 21.9921 137.989 21.2127 138.487C20.43 138.985 19.4446 139.522 18.4972 138.653C17.5529 137.781 15.3317 136.414 14.6726 136.126C14.0136 135.835 13.852 135.919 13.6048 136.334C13.3577 136.749 12.0839 138.407 10.9749 139.276C9.86268 140.148 9.70108 141.225 9.28916 141.765C8.87724 142.305 8.42413 142.218 7.8918 143.049C7.3563 143.876 6.77961 144.25 7.1947 145.413C7.60662 146.572 7.68901 147.403 7.52107 148.064C7.3563 148.729 6.98558 148.355 6.77961 149.224C6.57366 150.096 6.77961 151.173 6.36769 151.463C5.95577 151.754 5.21432 152.335 4.84676 152.46C4.4792 152.585 4.22888 151.882 3.57298 152.46C2.9139 153.038 1.55774 155.073 1.19018 155.901C0.819449 156.728 0.493081 157.766 0.448721 158.514C0.407529 159.261 0.201569 160.338 0.0779926 160.836C-0.0455834 161.335 -0.00439144 162.162 0.0779926 162.328C0.160377 162.494 0.489913 162.619 1.14582 162.411C1.80489 162.204 3.11986 161.833 3.28146 162.619C3.44306 163.405 3.19908 163.778 3.56981 164.152C3.94054 164.526 4.06411 165.104 4.35245 166.226C4.6408 167.344 3.90251 167.139 5.09391 167.967C6.28531 168.794 8.42729 169.791 8.95962 170.414C9.49512 171.037 10.9337 175.637 12.0459 176.09C13.158 176.544 14.4287 176.34 15.2113 176.506C15.9939 176.672 17.103 177.624 17.103 178.288C17.103 178.953 17.4737 179.905 17.7208 180.029C17.968 180.154 18.1708 180.652 18.7506 180.857C19.3242 181.064 19.4921 180.774 19.8597 180.524C20.2304 180.275 20.6803 180.026 21.2982 180.358C21.9161 180.687 22.366 180.732 22.8603 180.4C23.3546 180.068 24.9168 177.458 25.5315 177.084C26.1494 176.71 27.4231 177.042 27.6291 177.001C27.8351 176.959 28.6969 176.212 29.0265 177.208C29.356 178.205 28.4529 178.368 30.0563 179.406C31.6596 180.441 36.2224 182.722 36.8022 182.764C37.3758 182.805 37.7465 182.598 38.7351 182.265C39.7237 181.933 40.5032 182.556 41.0387 182.598C41.5742 182.639 42.8068 182.182 43.2979 182.144C43.7922 182.103 43.7922 182.393 44.4069 183.058C45.0248 183.722 45.3512 183.805 46.2574 183.761C47.1636 183.719 46.9989 183.968 47.6548 184.051C48.3138 184.134 47.9431 183.262 49.1757 183.636C50.4083 184.01 52.3855 185.958 53.4945 186.374C54.6035 186.789 55.5921 186.952 56.1657 186.374C56.7392 185.796 56.66 185.422 57.8102 185.546C58.9635 185.671 59.8254 185.505 59.8254 185.505C59.8254 185.505 62.0846 184.677 62.8673 184.716C63.6499 184.757 64.553 184.508 65.2944 185.543C66.0359 186.578 66.4478 187.492 67.3921 188.444C68.3363 189.396 69.9396 189.77 70.1868 189.936C70.4339 190.102 71.1754 191.095 71.5841 191.926C71.9961 192.753 72.9815 193.169 73.2698 193.83C73.5582 194.494 73.8434 194.906 74.5848 194.827C75.3263 194.744 76.6001 194.66 77.3003 194.411C77.9974 194.162 78.6977 192.919 79.2744 192.961C79.8511 193.003 80.5482 193.002 81.1248 192.507C81.6984 192.009 82.3574 191.015 82.8106 190.849C83.2605 190.683 84.4551 190.766 84.9906 190.226C85.526 189.687 84.5786 188.776 85.4405 188.735C86.3055 188.693 87.5381 188.942 88.156 188.735C88.7739 188.527 90.1301 187.821 90.6244 187.821C91.1187 187.821 91.4894 188.029 92.1865 187.945C92.8836 187.862 94.037 187.156 94.037 187.156C94.037 187.156 96.011 187.821 97.1612 187.696C98.3114 187.572 100.78 186.163 101.394 186.163C102.009 186.163 103.327 186.786 104.148 186.537C104.969 186.287 104.969 185.211 106.531 185.211C108.093 185.211 109.37 185.46 109.82 184.837C110.27 184.214 113.232 176.921 113.521 176.755C113.809 176.589 119.072 175.097 119.608 174.931C120.143 174.765 120.596 174.599 121.335 174.142C122.076 173.688 122.279 172.774 122.856 172.691C123.429 172.608 123.597 172.401 124.047 172.193C124.497 171.985 124.497 171.116 124.497 171.116L124.538 169.542L124.62 168.382C124.62 168.382 126.512 167.883 127.583 168.008C128.651 168.133 128.613 167.967 128.736 168.711C128.86 169.458 128.366 170.078 129.519 169.995C130.672 169.912 131.493 170.327 131.823 169.621C132.149 168.919 132.111 168.42 132.441 168.254C132.77 168.088 133.673 168.254 133.92 168.586C134.167 168.919 134.785 169.458 135.235 169.414C135.685 169.372 135.73 168.835 136.303 168.998C136.877 169.165 137.371 169.787 137.824 169.663C138.274 169.538 138.566 169.871 139.18 168.666C139.798 167.465 140.413 166.388 141.316 166.717C142.222 167.05 142.919 167.545 143.29 167.296C143.661 167.047 143.784 166.507 144.358 166.136C144.931 165.762 146.493 164.861 146.95 165.127C147.4 165.392 147.691 165.97 147.979 166.219C148.268 166.468 151.722 166.219 152.01 166.427C152.298 166.634 153.449 167.711 154.146 168.5C154.843 169.289 154.763 170.2 155.584 170.739C156.405 171.279 156.94 171.113 157.352 171.529C157.764 171.944 159.079 172.356 159.367 172.442C159.656 172.528 160.15 172.276 160.188 173.314C160.229 174.349 159.9 175.637 161.094 175.678C162.289 175.72 162.574 174.851 162.574 174.851C162.574 174.851 163.807 176.592 164.383 176.509C164.957 176.426 166.357 175.225 167.384 175.432C168.414 175.64 169.029 176.675 168.249 177.09C167.466 177.506 166.113 177.838 166.399 178.873C166.687 179.908 167.058 180.531 167.672 180.033C168.29 179.534 168.246 178.042 169.029 178.208C169.811 178.374 169.646 178.624 169.935 179.949C170.223 181.275 170.429 182.227 171.209 181.853C171.991 181.48 171.826 181.23 172.074 180.528C172.321 179.825 171.95 178.994 173.186 178.953C174.418 178.911 174.789 178.828 175.569 178.994C176.351 179.16 177.46 178.454 177.996 179.077C178.531 179.7 179.393 180.029 180.093 179.866C180.79 179.7 181.697 179.534 181.202 180.614C180.708 181.69 181.776 185.754 182.023 185.962C182.27 186.169 183.75 186.502 183.75 186.502L185.106 186.709C185.106 186.709 185.189 186.875 185.765 187.374C186.339 187.872 187.08 187.664 187.41 186.875C187.736 186.086 187.41 185.591 188.151 185.633C188.893 185.674 189.919 186.048 189.96 186.585C190.002 187.124 190.002 187.869 190.249 187.993C190.496 188.118 190.908 188.284 191.237 188.616C191.564 188.949 192.47 188.865 192.182 189.53C191.893 190.194 191.152 190.527 191.073 191.063C190.99 191.603 191.608 192.14 191.893 192.348C192.178 192.555 192.8 195.041 192.099 195.331C191.402 195.622 190.946 196.12 191.317 196.74C191.687 197.363 191.729 197.363 191.317 198.149C190.905 198.938 190.699 199.35 191.028 199.807C191.358 200.261 190.616 200.721 190.578 201.05C190.537 201.382 191.852 201.34 191.028 202.085C190.208 202.832 188.848 202.5 188.893 203.161C188.934 203.826 189.305 204.362 189.799 204.653C190.293 204.944 190.664 204.653 190.787 205.481C190.911 206.308 191.57 207.509 192.762 207.678C193.953 207.844 193.871 207.139 194.447 207.637C195.021 208.135 194.447 208.26 194.897 209.336C195.347 210.413 196.171 210.084 196.295 210.538C196.418 210.991 195.845 212.029 196.624 212.652C197.407 213.275 198.31 213.895 198.68 213.231C199.051 212.566 199.051 210.991 199.587 210.867C200.122 210.742 200.943 210.244 201.19 211.739C201.437 213.231 201.887 214.103 201.561 214.764C201.231 215.428 200.617 215.096 200.819 216.09C201.025 217.086 201.355 217.872 201.269 218.99C201.187 220.108 199.954 219.942 200.363 220.814C200.775 221.687 202.008 221.811 202.131 221.811C202.255 221.811 203.405 222.763 203.037 223.345C202.667 223.923 202.049 224.297 202.049 225.21C202.049 226.124 201.802 226.37 202.461 226.702C203.12 227.034 203.202 227.2 203.817 227.616C204.435 228.031 204.637 227.74 205.42 227.906C206.203 228.073 206.203 227.948 206.409 228.654C206.615 229.357 206.326 229.938 207.315 229.855C208.304 229.772 209.536 229.232 209.945 229.855C210.357 230.478 210.439 230.603 210.851 230.852C211.263 231.101 212.413 230.686 212.496 231.35C212.578 232.015 212.702 234.829 212.702 234.829L212.908 236.778C212.908 236.778 213.525 238.353 213.525 238.851C213.525 239.349 213.278 240.592 213.278 240.592L214.223 242.042C214.223 242.042 214.017 242.458 214.099 243.202C214.181 243.95 214.92 243.95 214.92 244.694C214.92 245.438 215.37 246.103 215.864 246.31C216.358 246.518 216.808 246.186 217.92 246.726C219.033 247.266 221.539 248.965 221.498 249.297C221.456 249.63 220.142 249.256 219.318 249.297C218.497 249.339 218.373 249.173 217.591 249.131C216.808 249.09 216.602 249.173 214.961 249.173C213.319 249.173 213.069 248.595 212.29 249.09C211.507 249.588 212.084 249.793 211.098 250.125C210.11 250.457 209.945 250.665 209.413 250.083C208.877 249.505 209.289 249.087 208.918 248.757C208.548 248.425 207.974 248.179 207.974 248.179C207.974 248.179 207.439 246.026 206.985 246.812C206.535 247.601 206.288 248.304 206.288 248.304C206.288 248.304 205.423 247.515 205.056 248.304C204.685 249.093 204.973 249.713 204.644 250.294C204.314 250.872 203.246 251.291 202.835 250.626C202.423 249.962 201.19 248.553 201.19 248.553L199.71 247.85L199.051 246.151C199.051 246.151 198.186 245.697 198.107 246.691C198.025 247.687 198.433 248.432 197.613 248.307C196.792 248.182 196.624 248.266 196.501 247.435C196.377 246.608 195.803 245.32 195.556 246.109C195.309 246.898 195.309 247.269 195.227 247.85C195.144 248.428 194.609 248.598 194.238 248.885C193.867 249.176 193.788 249.757 193.332 249.962C192.882 250.169 192.099 250.415 192.426 249.134C192.755 247.85 192.755 247.435 193.044 246.77C193.332 246.106 193.455 245.445 193.044 244.988C192.632 244.534 192.673 243.084 191.852 243.911C191.031 244.739 191.031 245.112 190.62 245.112C190.208 245.112 189.96 244.285 188.81 244.863C187.657 245.441 187.945 245.486 187.413 245.94C186.877 246.393 185.892 245.525 186.139 246.604C186.386 247.681 185.48 247.681 185.233 247.805C184.986 247.93 184.615 247.473 184.945 248.802C185.274 250.128 185.15 250.46 185.439 251.291C185.727 252.118 185.604 254.15 185.768 254.814C185.933 255.479 186.304 255.393 187.372 256.265C188.44 257.137 189.593 256.763 188.645 258.255C187.701 259.747 187.166 260.408 187.001 261.239C186.836 262.066 187.66 263.478 187.698 263.81C187.739 264.143 187.739 265.261 186.957 265.634C186.174 266.008 184.406 266.05 183.009 266.507C181.611 266.96 181.117 265.884 180.993 267.42C180.87 268.954 180.705 269.698 181.076 270.736C181.446 271.771 182.308 272.64 181.282 272.64C180.255 272.64 179.39 273.014 179.39 273.512C179.39 274.011 179.225 274.547 178.401 274.755C177.581 274.963 177.169 275.378 177.086 275.876C177.004 276.375 176.839 277.244 176.304 276.828C175.768 276.413 174.412 276.496 174.412 276.496C174.412 276.496 173.056 276.164 173.056 277.448C173.056 278.732 173.179 278.898 173.921 279.397C174.662 279.895 175.154 280.515 175.074 281.262C174.992 282.01 174.415 282.214 174.456 282.837C174.498 283.46 173.759 283.045 173.591 283.709C173.427 284.374 173.591 284.744 173.427 285.284C173.262 285.824 172.809 286.406 171.576 285.987C170.344 285.572 167.834 284.495 167.422 284.99C167.01 285.489 166.972 285.613 166.763 286.025C166.557 286.441 166.104 286.358 166.351 287.102C166.598 287.85 166.801 287.68 166.925 288.594C167.048 289.508 166.966 289.341 167.498 290.543C168.034 291.744 167.91 292.117 168.772 293.236C169.637 294.357 170.705 295.226 171.611 295.433C172.517 295.641 173.544 296.347 173.544 296.347C173.544 296.347 173.87 297.839 174.941 297.964C176.009 298.088 178.189 298.462 179.219 298.462C180.249 298.462 181.193 298.379 181.646 297.797C182.096 297.219 182.429 296.801 181.893 296.306C181.358 295.807 180.578 295.184 181.443 295.104C182.308 295.021 182.432 295.312 182.635 294.772C182.841 294.232 182.511 293.28 183.085 294.319C183.658 295.354 185.715 296.018 185.962 295.603C186.209 295.188 186.412 294.443 186.782 294.028C187.153 293.613 187.071 293.405 188.138 293.45C189.206 293.491 189.371 293.823 189.907 293.2C190.442 292.578 190.442 292.453 191.06 292.328C191.678 292.204 192.169 291.875 192.622 291.456C193.072 291.041 194.061 290.047 195.338 290.047C196.615 290.047 197.435 289.881 198.956 290.006C200.477 290.13 201.586 290.006 202.616 291.207C203.646 292.408 204.384 291.91 204.919 293.36C205.455 294.811 206.124 296.577 206.016 297.52L205.99 297.475L205.975 297.452Z" fill="#C1EDC5"/>
<path opacity="0.2" d="M60 161C60 161 26.3333 141.833 20.5 137.5C17.5 135.311 16 132 18 129.5C19.6 127.5 18.3333 119.667 17.5 116C19.3333 113.167 24.4 107.1 30 105.5C37 103.5 74 144 74 144L60 161Z" fill="#01594D"/>
<path fill-rule="evenodd" clip-rule="evenodd" d="M41.558 102.039C44.7253 98.9904 49.021 97.2778 53.5002 97.2778C57.9794 97.2778 62.2752 98.9904 65.4425 102.039C68.6097 105.087 70.3891 109.222 70.3891 113.533C70.3891 125.725 53.5002 143.722 53.5002 143.722C53.5002 143.722 36.6113 125.725 36.6113 113.533C36.6113 109.222 38.3907 105.087 41.558 102.039ZM61.0394 115.297L53.5755 107.833L46.1116 115.297L53.5755 122.761L61.0394 115.297Z" fill="#01594D"/>
<path d="M85.464 128.16L85.912 126H77.32L79.736 114.64H81.176L79.032 124.72H84.616L86.76 114.64H88.2L86.056 124.72H87.464L86.744 128.16H85.464ZM93.0056 126.16C92.163 126.16 91.4643 125.963 90.9096 125.568C90.3656 125.163 89.9763 124.629 89.7416 123.968C89.5176 123.307 89.459 122.587 89.5656 121.808C89.651 121.221 89.827 120.672 90.0936 120.16C90.371 119.637 90.723 119.179 91.1496 118.784C91.5763 118.379 92.0616 118.064 92.6056 117.84C93.1603 117.616 93.7523 117.504 94.3816 117.504C94.8936 117.504 95.3683 117.589 95.8056 117.76C96.243 117.92 96.595 118.171 96.8616 118.512C97.1283 118.843 97.2616 119.259 97.2616 119.76C97.2616 120.603 96.9043 121.253 96.1896 121.712C95.4856 122.16 94.355 122.384 92.7976 122.384C92.403 122.384 91.987 122.379 91.5496 122.368C91.1123 122.347 90.6376 122.315 90.1256 122.272L90.3976 121.232C90.8456 121.264 91.2563 121.291 91.6296 121.312C92.0136 121.323 92.3923 121.328 92.7656 121.328C93.555 121.328 94.1683 121.264 94.6056 121.136C95.0536 121.008 95.3683 120.832 95.5496 120.608C95.731 120.373 95.811 120.101 95.7896 119.792C95.779 119.547 95.699 119.339 95.5496 119.168C95.411 118.997 95.219 118.869 94.9736 118.784C94.739 118.699 94.4723 118.656 94.1736 118.656C93.779 118.656 93.4003 118.736 93.0376 118.896C92.675 119.045 92.3443 119.264 92.0456 119.552C91.7576 119.84 91.5123 120.176 91.3096 120.56C91.1176 120.944 90.9896 121.36 90.9256 121.808C90.8403 122.427 90.8723 122.981 91.0216 123.472C91.171 123.952 91.4323 124.331 91.8056 124.608C92.179 124.875 92.6483 125.008 93.2136 125.008C93.6083 125.008 93.9496 124.955 94.2376 124.848C94.5256 124.731 94.7603 124.597 94.9416 124.448C95.1336 124.288 95.2723 124.155 95.3576 124.048C95.4536 123.931 95.5016 123.872 95.5016 123.872L96.7176 124.272C96.7176 124.272 96.6483 124.368 96.5096 124.56C96.371 124.752 96.1523 124.971 95.8536 125.216C95.555 125.461 95.171 125.68 94.7016 125.872C94.2323 126.064 93.667 126.16 93.0056 126.16ZM103.961 117.648H105.241L104.857 119.44C105.284 118.843 105.796 118.373 106.393 118.032C106.99 117.68 107.598 117.504 108.217 117.504C108.633 117.504 108.98 117.584 109.257 117.744C109.545 117.904 109.764 118.133 109.913 118.432C110.062 118.731 110.142 119.099 110.153 119.536C110.484 119.088 110.83 118.715 111.193 118.416C111.556 118.117 111.94 117.893 112.345 117.744C112.75 117.584 113.161 117.504 113.577 117.504C114.036 117.504 114.398 117.589 114.665 117.76C114.932 117.931 115.124 118.171 115.241 118.48C115.369 118.779 115.433 119.131 115.433 119.536C115.433 119.76 115.417 119.995 115.385 120.24C115.353 120.485 115.31 120.741 115.257 121.008L114.185 126H112.777L113.769 121.328C113.865 120.88 113.913 120.491 113.913 120.16C113.913 119.691 113.812 119.344 113.609 119.12C113.417 118.885 113.134 118.768 112.761 118.768C112.409 118.768 112.057 118.864 111.705 119.056C111.353 119.237 111.022 119.493 110.713 119.824C110.414 120.155 110.158 120.539 109.945 120.976L108.889 126H107.481L108.473 121.328C108.526 121.093 108.564 120.88 108.585 120.688C108.606 120.496 108.617 120.315 108.617 120.144C108.617 119.675 108.521 119.328 108.329 119.104C108.137 118.88 107.854 118.768 107.481 118.768C106.958 118.768 106.436 118.971 105.913 119.376C105.401 119.771 104.985 120.299 104.665 120.96L103.593 126H102.185L103.961 117.648ZM115.83 128.448C116.278 128.384 116.641 128.299 116.918 128.192C117.206 128.096 117.457 127.941 117.67 127.728C117.883 127.525 118.113 127.243 118.358 126.88L118.822 126.176L117.206 117.648H118.662L119.814 124.736L120.358 123.84C120.806 123.104 121.185 122.459 121.494 121.904C121.803 121.349 122.065 120.843 122.278 120.384C122.502 119.915 122.689 119.461 122.838 119.024C122.987 118.587 123.126 118.128 123.254 117.648H124.646C124.507 118.16 124.353 118.64 124.182 119.088C124.011 119.536 123.809 120.005 123.574 120.496C123.339 120.987 123.041 121.541 122.678 122.16C122.326 122.768 121.883 123.499 121.35 124.352L120.07 126.416C119.707 127.003 119.366 127.493 119.046 127.888C118.726 128.293 118.406 128.619 118.086 128.864C117.777 129.109 117.451 129.285 117.11 129.392C116.779 129.509 116.417 129.573 116.022 129.584L115.83 128.448ZM126.422 117.648H127.702L127.318 119.44C127.744 118.843 128.256 118.373 128.854 118.032C129.451 117.68 130.059 117.504 130.678 117.504C131.094 117.504 131.44 117.584 131.718 117.744C132.006 117.904 132.224 118.133 132.374 118.432C132.523 118.731 132.603 119.099 132.614 119.536C132.944 119.088 133.291 118.715 133.654 118.416C134.016 118.117 134.4 117.893 134.806 117.744C135.211 117.584 135.622 117.504 136.038 117.504C136.496 117.504 136.859 117.589 137.126 117.76C137.392 117.931 137.584 118.171 137.702 118.48C137.83 118.779 137.894 119.131 137.894 119.536C137.894 119.76 137.878 119.995 137.846 120.24C137.814 120.485 137.771 120.741 137.718 121.008L136.646 126H135.238L136.23 121.328C136.326 120.88 136.374 120.491 136.374 120.16C136.374 119.691 136.272 119.344 136.07 119.12C135.878 118.885 135.595 118.768 135.222 118.768C134.87 118.768 134.518 118.864 134.166 119.056C133.814 119.237 133.483 119.493 133.174 119.824C132.875 120.155 132.619 120.539 132.406 120.976L131.35 126H129.942L130.934 121.328C130.987 121.093 131.024 120.88 131.046 120.688C131.067 120.496 131.078 120.315 131.078 120.144C131.078 119.675 130.982 119.328 130.79 119.104C130.598 118.88 130.315 118.768 129.942 118.768C129.419 118.768 128.896 118.971 128.374 119.376C127.862 119.771 127.446 120.299 127.126 120.96L126.054 126H124.646L126.422 117.648Z" fill="#1F2023"/>
</svg>
