<svg width="12" height="12" viewBox="0 0 12 12" fill="none" xmlns="http://www.w3.org/2000/svg">
<g id="TelephoneFill" clip-path="url(#clip0_133_258)">
<path id="Vector" fill-rule="evenodd" clip-rule="evenodd" d="M1.4141 0.382628C1.54533 0.251594 1.70291 0.149946 1.8764 0.0844202C2.04989 0.018894 2.23532 -0.00901425 2.42041 0.00254491C2.6055 0.0141041 2.78601 0.0648667 2.95 0.151469C3.11399 0.238071 3.2577 0.358535 3.3716 0.504878L4.71785 2.23438C4.9646 2.55163 5.0516 2.96488 4.9541 3.35488L4.54385 4.99738C4.52264 5.08245 4.52379 5.17156 4.54718 5.25606C4.57057 5.34056 4.61541 5.41757 4.67735 5.47963L6.5201 7.32238C6.58223 7.38444 6.65937 7.42936 6.74402 7.45275C6.82866 7.47615 6.91792 7.47723 7.0031 7.45588L8.64485 7.04563C8.83731 6.99751 9.0382 6.99377 9.23231 7.0347C9.42643 7.07563 9.6087 7.16015 9.76535 7.28188L11.4949 8.62738C12.1166 9.11113 12.1736 10.0299 11.6171 10.5856L10.8416 11.3611C10.2866 11.9161 9.4571 12.1599 8.68385 11.8876C6.70474 11.1913 4.90781 10.0583 3.42635 8.57263C1.94082 7.09139 0.807809 5.29472 0.111353 3.31588C-0.160147 2.54338 0.0836032 1.71313 0.638603 1.15813L1.4141 0.382628Z" fill="#01594D"/>
</g>
<defs>
<clipPath id="clip0_133_258">
<rect width="12" height="12" fill="white"/>
</clipPath>
</defs>
</svg>
